SplineFontDB: 3.2
FontName: RobotoLegacy-Light
FullName: Roboto Legacy Light
FamilyName: Roboto Legacy Light
Weight: Light
Copyright: Font data copyright Google 2011
Version: 1.00000; 2011
ItalicAngle: 0
UnderlinePosition: -200
UnderlineWidth: 100
Ascent: 1536
Descent: 512
InvalidEm: 0
sfntRevision: 0x00010000
LayerCount: 2
Layer: 0 1 "Back" 1
Layer: 1 1 "Fore" 0
XUID: [1021 474 -1613799265 6259]
StyleMap: 0x0000
FSType: 4
OS2Version: 3
OS2_WeightWidthSlopeOnly: 0
OS2_UseTypoMetrics: 0
CreationTime: 1221222574
ModificationTime: 1744076186
PfmFamily: 81
TTFWeight: 300
TTFWidth: 5
LineGap: 0
VLineGap: 0
Panose: 0 0 0 0 0 0 0 0 0 0
OS2TypoAscent: 1536
OS2TypoAOffset: 0
OS2TypoDescent: -512
OS2TypoDOffset: 0
OS2TypoLinegap: 102
OS2WinAscent: 1946
OS2WinAOffset: 0
OS2WinDescent: 512
OS2WinDOffset: 0
HheadAscent: 1900
HheadAOffset: 0
HheadDescent: -500
HheadDOffset: 0
OS2SubXSize: 1434
OS2SubYSize: 1331
OS2SubXOff: 0
OS2SubYOff: 287
OS2SupXSize: 1434
OS2SupYSize: 1331
OS2SupXOff: 0
OS2SupYOff: 977
OS2StrikeYSize: 102
OS2StrikeYPos: 512
OS2CapHeight: 1456
OS2XHeight: 1082
OS2Vendor: 'pyrs'
OS2CodePages: 2000019f.4f010000
OS2UnicodeRanges: e00002ef.5000205b.00000020.00000000
Lookup: 1 0 0 "'smcp' Lowercase to Small Capitals lookup 0" { "'smcp' Lowercase to Small Capitals lookup 0 subtable"  } ['smcp' ('DFLT' <'dflt' > ) ]
Lookup: 4 0 1 "'liga' Standard Ligatures lookup 1" { "'liga' Standard Ligatures lookup 1 subtable"  } ['liga' ('DFLT' <'dflt' > ) ]
Lookup: 258 0 0 "'kern' Horizontal Kerning lookup 0" { "'kern' Horizontal Kerning lookup 0 per glyph data 0"  "'kern' Horizontal Kerning lookup 0 per glyph data 1"  "'kern' Horizontal Kerning lookup 0 per glyph data 2"  "'kern' Horizontal Kerning lookup 0 kerning class 3"  } ['kern' ('DFLT' <'dflt' > ) ]
MarkAttachClasses: 1
DEI: 91125
KernClass2: 32+ 29 "'kern' Horizontal Kerning lookup 0 kerning class 3"

StartChar: exclam
Encoding: 33 33 4
Width: 462
GlyphClass: 1
Flags: W
LayerCount: 2
Fore
SplineSet
288 478 m 1,0,-1
 169 478 l 1,1,-1
 169 1456 l 1,2,-1
 288 1456 l 1,3,-1
 288 478 l 1,0,-1
300 0 m 1,4,-1
 158 0 l 1,5,-1
 158 167 l 1,6,-1
 300 167 l 1,7,-1
 300 0 l 1,4,-1
EndSplineSet
Validated: 1
EndChar

StartChar: quotedbl
Encoding: 34 34 5
Width: 666
GlyphClass: 1
Flags: W
LayerCount: 2
Fore
SplineSet
287 1240 m 1,0,-1
 214 979 l 1,1,-1
 142 979 l 1,2,-1
 167 1234 l 1,3,-1
 167 1456 l 1,4,-1
 287 1456 l 1,5,-1
 287 1240 l 1,0,-1
526 1240 m 1,6,-1
 453 979 l 1,7,-1
 381 979 l 1,8,-1
 407 1237 l 1,9,-1
 407 1456 l 1,10,-1
 526 1456 l 1,11,-1
 526 1240 l 1,6,-1
EndSplineSet
Validated: 1
EndChar

StartChar: numbersign
Encoding: 35 35 6
Width: 1270
GlyphClass: 1
Flags: W
LayerCount: 2
Fore
SplineSet
735 410 m 1,0,-1
 422 410 l 1,1,-1
 345 0 l 1,2,-1
 245 0 l 1,3,-1
 322 410 l 1,4,-1
 67 410 l 1,5,-1
 67 503 l 1,6,-1
 339 503 l 1,7,-1
 422 944 l 1,8,-1
 143 944 l 1,9,-1
 143 1040 l 1,10,-1
 440 1040 l 1,11,-1
 519 1456 l 1,12,-1
 619 1456 l 1,13,-1
 540 1040 l 1,14,-1
 854 1040 l 1,15,-1
 933 1456 l 1,16,-1
 1033 1456 l 1,17,-1
 954 1040 l 1,18,-1
 1183 1040 l 1,19,-1
 1183 944 l 1,20,-1
 936 944 l 1,21,-1
 853 503 l 1,22,-1
 1108 503 l 1,23,-1
 1108 410 l 1,24,-1
 835 410 l 1,25,-1
 758 0 l 1,26,-1
 658 0 l 1,27,-1
 735 410 l 1,0,-1
439 503 m 1,28,-1
 753 503 l 1,29,-1
 836 944 l 1,30,-1
 522 944 l 1,31,-1
 439 503 l 1,28,-1
EndSplineSet
Validated: 1
EndChar

StartChar: dollar
Encoding: 36 36 7
Width: 1154
GlyphClass: 1
Flags: W
LayerCount: 2
Fore
SplineSet
909 359 m 0,0,1
 909 469 909 469 837 539 c 128,-1,2
 765 609 765 609 583 674 c 1,3,4
 375 740 375 740 275 833 c 128,-1,5
 175 926 175 926 175 1095 c 0,6,7
 175 1257 175 1257 275 1359 c 128,-1,8
 375 1461 375 1461 547 1475 c 1,9,-1
 547 1677 l 1,10,-1
 649 1677 l 1,11,-1
 649 1475 l 1,12,13
 824 1459 824 1459 920.5 1346 c 128,-1,14
 1017 1233 1017 1233 1014 1042 c 1,15,-1
 1012 1037 l 1,16,-1
 899 1037 l 1,17,18
 899 1184 899 1184 819 1277 c 128,-1,19
 739 1370 739 1370 596 1370 c 0,20,21
 448 1370 448 1370 371 1293 c 128,-1,22
 294 1216 294 1216 294 1097 c 0,23,24
 294 983 294 983 362 913.5 c 128,-1,25
 430 844 430 844 624 780 c 0,26,27
 830 711 830 711 929.5 619.5 c 128,-1,28
 1029 528 1029 528 1029 361 c 0,29,30
 1029 195 1029 195 925.5 96 c 128,-1,31
 822 -3 822 -3 646 -18 c 1,32,-1
 646 -208 l 1,33,-1
 544 -208 l 1,34,-1
 544 -19 l 1,35,36
 363 -8 363 -8 243.5 96.5 c 128,-1,37
 124 201 124 201 128 412 c 1,38,-1
 131 418 l 1,39,-1
 243 418 l 1,40,41
 243 241 243 241 344 163 c 128,-1,42
 445 85 445 85 588 85 c 0,43,44
 736 85 736 85 822.5 162.5 c 128,-1,45
 909 240 909 240 909 359 c 0,0,1
EndSplineSet
Validated: 33
EndChar

StartChar: percent
Encoding: 37 37 8
Width: 1514
GlyphClass: 1
Flags: W
LayerCount: 2
Fore
SplineSet
110 1176 m 2,0,1
 110 1303 110 1303 188.5 1390 c 128,-1,2
 267 1477 267 1477 395 1477 c 0,3,4
 522 1477 522 1477 600.5 1390 c 128,-1,5
 679 1303 679 1303 679 1176 c 2,6,-1
 679 1099 l 2,7,8
 679 973 679 973 601 886.5 c 128,-1,9
 523 800 523 800 397 800 c 0,10,11
 268 800 268 800 189 886.5 c 128,-1,12
 110 973 110 973 110 1099 c 2,13,-1
 110 1176 l 2,0,1
206 1099 m 2,14,15
 206 1011 206 1011 255.5 949 c 128,-1,16
 305 887 305 887 397 887 c 0,17,18
 486 887 486 887 534.5 949 c 128,-1,19
 583 1011 583 1011 583 1099 c 2,20,-1
 583 1176 l 2,21,22
 583 1264 583 1264 534 1327 c 128,-1,23
 485 1390 485 1390 395 1390 c 256,24,25
 305 1390 305 1390 255.5 1327 c 128,-1,26
 206 1264 206 1264 206 1176 c 2,27,-1
 206 1099 l 2,14,15
842 357 m 2,28,29
 842 483 842 483 920.5 570 c 128,-1,30
 999 657 999 657 1127 657 c 0,31,32
 1254 657 1254 657 1333 570 c 128,-1,33
 1412 483 1412 483 1412 357 c 2,34,-1
 1412 279 l 2,35,36
 1412 152 1412 152 1333.5 65.5 c 128,-1,37
 1255 -21 1255 -21 1129 -21 c 0,38,39
 1000 -21 1000 -21 921 65.5 c 128,-1,40
 842 152 842 152 842 279 c 2,41,-1
 842 357 l 2,28,29
939 279 m 2,42,43
 939 190 939 190 988 128 c 128,-1,44
 1037 66 1037 66 1129 66 c 0,45,46
 1218 66 1218 66 1266.5 128 c 128,-1,47
 1315 190 1315 190 1315 279 c 2,48,-1
 1315 357 l 2,49,50
 1315 448 1315 448 1266 509 c 128,-1,51
 1217 570 1217 570 1127 570 c 256,52,53
 1037 570 1037 570 988 508.5 c 128,-1,54
 939 447 939 447 939 357 c 2,55,-1
 939 279 l 2,42,43
426 121 m 1,56,-1
 352 169 l 1,57,-1
 1063 1307 l 1,58,-1
 1137 1259 l 1,59,-1
 426 121 l 1,56,-1
EndSplineSet
Validated: 1
EndChar

StartChar: ampersand
Encoding: 38 38 9
Width: 1260
GlyphClass: 1
Flags: W
LayerCount: 2
Fore
SplineSet
388 795 m 1,0,1
 307 895 307 895 268 977.5 c 128,-1,2
 229 1060 229 1060 229 1147 c 0,3,4
 229 1305 229 1305 318 1391 c 128,-1,5
 407 1477 407 1477 562 1477 c 0,6,7
 706 1477 706 1477 790.5 1396 c 128,-1,8
 875 1315 875 1315 875 1192 c 0,9,10
 875 1102 875 1102 830 1037 c 128,-1,11
 785 972 785 972 700 907 c 2,12,-1
 541 785 l 1,13,-1
 953 304 l 1,14,15
 1002 375 1002 375 1029 463 c 128,-1,16
 1056 551 1056 551 1056 651 c 1,17,-1
 1166 651 l 1,18,19
 1166 523 1166 523 1129.5 415.5 c 128,-1,20
 1093 308 1093 308 1024 221 c 1,21,-1
 1209 5 l 1,22,-1
 1207 0 l 1,23,-1
 1070 0 l 1,24,-1
 948 141 l 1,25,26
 863 63 863 63 762 21 c 128,-1,27
 661 -21 661 -21 544 -21 c 0,28,29
 335 -21 335 -21 213 86 c 128,-1,30
 91 193 91 193 91 371 c 0,31,32
 91 491 91 491 163.5 587.5 c 128,-1,33
 236 684 236 684 373 784 c 2,34,-1
 388 795 l 1,0,1
544 80 m 0,35,36
 636 80 636 80 723.5 116 c 128,-1,37
 811 152 811 152 881 219 c 1,38,-1
 467 701 l 2,39,40
 462 706 462 706 458.5 709.5 c 128,-1,41
 455 713 455 713 453 717 c 1,42,-1
 406 681 l 1,43,44
 290 587 290 587 250.5 511 c 128,-1,45
 211 435 211 435 211 371 c 0,46,47
 211 247 211 247 296.5 163.5 c 128,-1,48
 382 80 382 80 544 80 c 0,35,36
349 1149 m 0,49,50
 349 1083 349 1083 380.5 1012 c 128,-1,51
 412 941 412 941 477 861 c 1,52,-1
 654 993 l 2,53,54
 712 1038 712 1038 736.5 1087 c 128,-1,55
 761 1136 761 1136 761 1192 c 0,56,57
 761 1271 761 1271 708.5 1323 c 128,-1,58
 656 1375 656 1375 562 1375 c 0,59,60
 460 1375 460 1375 404.5 1310 c 128,-1,61
 349 1245 349 1245 349 1149 c 0,49,50
EndSplineSet
Validated: 1
EndChar

StartChar: quotesingle
Encoding: 39 39 10
Width: 423
GlyphClass: 1
Flags: W
LayerCount: 2
Fore
SplineSet
287 1261 m 1,0,-1
 214 986 l 1,1,-1
 142 986 l 1,2,-1
 167 1252 l 1,3,-1
 167 1456 l 1,4,-1
 287 1456 l 1,5,-1
 287 1261 l 1,0,-1
EndSplineSet
Validated: 1
EndChar

StartChar: parenleft
Encoding: 40 40 11
Width: 640
GlyphClass: 1
Flags: W
LayerCount: 2
Fore
SplineSet
140 588 m 2,0,1
 140 951 140 951 279 1239 c 128,-1,2
 418 1527 418 1527 589 1625 c 1,3,-1
 595 1624 l 1,4,-1
 621 1551 l 1,5,6
 476 1448 476 1448 368 1185 c 128,-1,7
 260 922 260 922 260 591 c 2,8,-1
 260 571 l 2,9,10
 260 240 260 240 368 -23 c 128,-1,11
 476 -286 476 -286 621 -393 c 1,12,-1
 595 -463 l 1,13,-1
 589 -463 l 1,14,15
 416 -363 416 -363 278 -81 c 128,-1,16
 140 201 140 201 140 573 c 2,17,-1
 140 588 l 2,0,1
EndSplineSet
Validated: 1
EndChar

StartChar: parenright
Encoding: 41 41 12
Width: 652
GlyphClass: 1
Flags: W
LayerCount: 2
Fore
SplineSet
498 573 m 2,0,1
 498 201 498 201 360 -81 c 128,-1,2
 222 -363 222 -363 50 -463 c 1,3,-1
 44 -463 l 1,4,-1
 18 -393 l 1,5,6
 162 -291 162 -291 270.5 -26 c 128,-1,7
 379 239 379 239 379 571 c 2,8,-1
 379 591 l 2,9,10
 379 920 379 920 268.5 1186.5 c 128,-1,11
 158 1453 158 1453 18 1555 c 1,12,-1
 44 1625 l 1,13,-1
 50 1625 l 1,14,15
 220 1527 220 1527 359 1239 c 128,-1,16
 498 951 498 951 498 588 c 2,17,-1
 498 573 l 2,0,1
EndSplineSet
Validated: 1
EndChar

StartChar: asterisk
Encoding: 42 42 13
Width: 869
GlyphClass: 1
Flags: W
LayerCount: 2
Fore
SplineSet
361 706 m 1,0,-1
 89 782 l 1,1,-1
 121 883 l 1,2,-1
 393 791 l 1,3,-1
 385 1082 l 1,4,-1
 489 1081 l 1,5,-1
 485 787 l 1,6,-1
 749 884 l 1,7,-1
 782 783 l 1,8,-1
 509 699 l 1,9,-1
 681 469 l 1,10,-1
 596 407 l 1,11,-1
 433 648 l 1,12,-1
 274 409 l 1,13,-1
 189 469 l 1,14,-1
 361 706 l 1,0,-1
EndSplineSet
Validated: 1
EndChar

StartChar: plus
Encoding: 43 43 14
Width: 1156
GlyphClass: 1
Flags: W
LayerCount: 2
Fore
SplineSet
630 740 m 1,0,-1
 1073 740 l 1,1,-1
 1073 628 l 1,2,-1
 630 628 l 1,3,-1
 630 146 l 1,4,-1
 509 146 l 1,5,-1
 509 628 l 1,6,-1
 75 628 l 1,7,-1
 75 740 l 1,8,-1
 509 740 l 1,9,-1
 509 1206 l 1,10,-1
 630 1206 l 1,11,-1
 630 740 l 1,0,-1
EndSplineSet
Validated: 1
EndChar

StartChar: comma
Encoding: 44 44 15
Width: 392
GlyphClass: 1
Flags: W
LayerCount: 2
Fore
SplineSet
271 18 m 1,0,-1
 165 -258 l 1,1,-1
 83 -258 l 1,2,-1
 152 21 l 1,3,-1
 152 188 l 1,4,-1
 271 188 l 1,5,-1
 271 18 l 1,0,-1
EndSplineSet
Validated: 1
EndChar

StartChar: hyphen
Encoding: 45 45 16
Width: 860
GlyphClass: 1
Flags: W
LayerCount: 2
Fore
SplineSet
720 570 m 1,0,-1
 130 570 l 1,1,-1
 130 671 l 1,2,-1
 720 671 l 1,3,-1
 720 570 l 1,0,-1
EndSplineSet
Validated: 1
EndChar

StartChar: period
Encoding: 46 46 17
Width: 489
GlyphClass: 1
Flags: W
LayerCount: 2
Fore
SplineSet
304 0 m 1,0,-1
 167 0 l 1,1,-1
 167 164 l 1,2,-1
 304 164 l 1,3,-1
 304 0 l 1,0,-1
EndSplineSet
Validated: 1
EndChar

StartChar: slash
Encoding: 47 47 18
Width: 813
GlyphClass: 1
Flags: W
LayerCount: 2
Fore
SplineSet
139 -125 m 1,0,-1
 30 -125 l 1,1,-1
 638 1456 l 1,2,-1
 746 1456 l 1,3,-1
 139 -125 l 1,0,-1
EndSplineSet
Validated: 1
EndChar

StartChar: zero
Encoding: 48 48 19
Width: 1135
GlyphClass: 1
Flags: W
LayerCount: 2
Fore
SplineSet
1020 514 m 2,0,1
 1020 265 1020 265 899.5 122 c 128,-1,2
 779 -21 779 -21 569 -21 c 256,3,4
 359 -21 359 -21 237 122.5 c 128,-1,5
 115 266 115 266 115 514 c 2,6,-1
 115 942 l 2,7,8
 115 1189 115 1189 236 1333 c 128,-1,9
 357 1477 357 1477 567 1477 c 256,10,11
 777 1477 777 1477 898.5 1333 c 128,-1,12
 1020 1189 1020 1189 1020 942 c 2,13,-1
 1020 514 l 2,0,1
900 961 m 2,14,15
 900 1152 900 1152 813.5 1263.5 c 128,-1,16
 727 1375 727 1375 567 1375 c 256,17,18
 407 1375 407 1375 320.5 1263 c 128,-1,19
 234 1151 234 1151 234 961 c 2,20,-1
 234 496 l 2,21,22
 234 307 234 307 321.5 193.5 c 128,-1,23
 409 80 409 80 569 80 c 0,24,25
 728 80 728 80 814 193 c 128,-1,26
 900 306 900 306 900 496 c 2,27,-1
 900 961 l 2,14,15
EndSplineSet
Validated: 1
EndChar

StartChar: one
Encoding: 49 49 20
Width: 1135
GlyphClass: 1
Flags: W
LayerCount: 2
Fore
SplineSet
659 0 m 1,0,-1
 539 0 l 1,1,-1
 539 1353 l 1,2,-1
 194 1311 l 1,3,-1
 194 1407 l 1,4,-1
 659 1477 l 1,5,-1
 659 0 l 1,0,-1
EndSplineSet
Validated: 1
EndChar

StartChar: two
Encoding: 50 50 21
Width: 1135
GlyphClass: 1
Flags: W
LayerCount: 2
Fore
SplineSet
1039 0 m 1,0,-1
 153 0 l 1,1,-1
 153 92 l 1,2,-1
 632 651 l 2,3,4
 760 802 760 802 809 898.5 c 128,-1,5
 858 995 858 995 858 1089 c 0,6,7
 858 1222 858 1222 786.5 1298.5 c 128,-1,8
 715 1375 715 1375 575 1375 c 0,9,10
 419 1375 419 1375 335 1282.5 c 128,-1,11
 251 1190 251 1190 251 1046 c 1,12,-1
 139 1046 l 1,13,-1
 137 1052 l 1,14,15
 132 1230 132 1230 252 1353.5 c 128,-1,16
 372 1477 372 1477 575 1477 c 0,17,18
 762 1477 762 1477 870 1372 c 128,-1,19
 978 1267 978 1267 978 1088 c 0,20,21
 978 970 978 970 907 852 c 128,-1,22
 836 734 836 734 698 566 c 1,23,-1
 304 106 l 1,24,-1
 306 101 l 1,25,-1
 1039 101 l 1,26,-1
 1039 0 l 1,0,-1
EndSplineSet
Validated: 33
EndChar

StartChar: three
Encoding: 51 51 22
Width: 1135
GlyphClass: 1
Flags: W
LayerCount: 2
Fore
SplineSet
551 798 m 2,0,1
 710 798 710 798 792 877 c 128,-1,2
 874 956 874 956 874 1081 c 0,3,4
 874 1211 874 1211 798 1293 c 128,-1,5
 722 1375 722 1375 573 1375 c 0,6,7
 433 1375 433 1375 341 1291.5 c 128,-1,8
 249 1208 249 1208 249 1075 c 1,9,-1
 137 1075 l 1,10,-1
 135 1081 l 1,11,12
 130 1251 130 1251 256 1364 c 128,-1,13
 382 1477 382 1477 573 1477 c 0,14,15
 767 1477 767 1477 880.5 1372 c 128,-1,16
 994 1267 994 1267 994 1077 c 0,17,18
 994 969 994 969 931.5 881 c 128,-1,19
 869 793 869 793 760 750 c 1,20,21
 886 710 886 710 953.5 619 c 128,-1,22
 1021 528 1021 528 1021 395 c 0,23,24
 1021 200 1021 200 898 89.5 c 128,-1,25
 775 -21 775 -21 578 -21 c 0,26,27
 393 -21 393 -21 250.5 88.5 c 128,-1,28
 108 198 108 198 113 389 c 1,29,-1
 115 395 l 1,30,-1
 227 395 l 1,31,32
 227 260 227 260 326 170 c 128,-1,33
 425 80 425 80 578 80 c 0,34,35
 730 80 730 80 816 164 c 128,-1,36
 902 248 902 248 902 391 c 0,37,38
 902 545 902 545 810.5 620.5 c 128,-1,39
 719 696 719 696 551 696 c 2,40,-1
 417 696 l 1,41,-1
 417 798 l 1,42,-1
 551 798 l 2,0,1
EndSplineSet
Validated: 33
EndChar

StartChar: four
Encoding: 52 52 23
Width: 1135
GlyphClass: 1
Flags: W
LayerCount: 2
Fore
SplineSet
860 469 m 1,0,-1
 1088 469 l 1,1,-1
 1088 368 l 1,2,-1
 860 368 l 1,3,-1
 860 0 l 1,4,-1
 741 0 l 1,5,-1
 741 368 l 1,6,-1
 72 368 l 1,7,-1
 72 436 l 1,8,-1
 729 1456 l 1,9,-1
 860 1456 l 1,10,-1
 860 469 l 1,0,-1
214 469 m 1,11,-1
 741 469 l 1,12,-1
 741 1299 l 1,13,-1
 735 1301 l 1,14,-1
 684 1192 l 1,15,-1
 214 469 l 1,11,-1
EndSplineSet
Validated: 1
EndChar

StartChar: five
Encoding: 53 53 24
Width: 1135
GlyphClass: 1
Flags: W
LayerCount: 2
Fore
SplineSet
187 655 m 1,0,-1
 267 1456 l 1,1,-1
 975 1456 l 1,2,-1
 975 1345 l 1,3,-1
 370 1345 l 1,4,-1
 316 821 l 1,5,6
 371 870 371 870 437.5 898 c 128,-1,7
 504 926 504 926 616 929 c 0,8,9
 803 932 803 932 916.5 806 c 128,-1,10
 1030 680 1030 680 1030 464 c 0,11,12
 1030 243 1030 243 919 111 c 128,-1,13
 808 -21 808 -21 586 -21 c 0,14,15
 406 -21 406 -21 286 79.5 c 128,-1,16
 166 180 166 180 171 377 c 1,17,-1
 173 383 l 1,18,-1
 281 383 l 1,19,20
 281 236 281 236 364 158 c 128,-1,21
 447 80 447 80 586 80 c 0,22,23
 749 80 749 80 829.5 178 c 128,-1,24
 910 276 910 276 910 462 c 0,25,26
 910 625 910 625 829.5 721 c 128,-1,27
 749 817 749 817 603 817 c 0,28,29
 464 817 464 817 390.5 772.5 c 128,-1,30
 317 728 317 728 284 638 c 1,31,-1
 187 655 l 1,0,-1
EndSplineSet
Validated: 33
EndChar

StartChar: six
Encoding: 54 54 25
Width: 1135
GlyphClass: 1
Flags: W
LayerCount: 2
Fore
SplineSet
626 1477 m 0,0,1
 707 1477 707 1477 787.5 1460 c 128,-1,2
 868 1443 868 1443 927 1411 c 1,3,-1
 896 1313 l 1,4,5
 836 1344 836 1344 773.5 1359.5 c 128,-1,6
 711 1375 711 1375 626 1375 c 0,7,8
 473 1375 473 1375 373.5 1253 c 128,-1,9
 274 1131 274 1131 274 936 c 2,10,-1
 274 736 l 1,11,12
 334 820 334 820 429 870.5 c 128,-1,13
 524 921 524 921 639 921 c 0,14,15
 832 921 832 921 940 795 c 128,-1,16
 1048 669 1048 669 1048 454 c 0,17,18
 1048 241 1048 241 926.5 110 c 128,-1,19
 805 -21 805 -21 607 -21 c 0,20,21
 411 -21 411 -21 283 128 c 128,-1,22
 155 277 155 277 155 531 c 2,23,-1
 155 925 l 2,24,25
 155 1167 155 1167 290.5 1322 c 128,-1,26
 426 1477 426 1477 626 1477 c 0,0,1
606 823 m 0,27,28
 488 823 488 823 397.5 759.5 c 128,-1,29
 307 696 307 696 274 598 c 1,30,-1
 274 522 l 2,31,32
 274 321 274 321 368 200.5 c 128,-1,33
 462 80 462 80 607 80 c 0,34,35
 755 80 755 80 841.5 186 c 128,-1,36
 928 292 928 292 928 454 c 0,37,38
 928 630 928 630 846.5 726.5 c 128,-1,39
 765 823 765 823 606 823 c 0,27,28
EndSplineSet
Validated: 1
EndChar

StartChar: seven
Encoding: 55 55 26
Width: 1135
GlyphClass: 1
Flags: W
LayerCount: 2
Fore
SplineSet
1038 1354 m 1,0,1
 793 1068 793 1068 669.5 781.5 c 128,-1,2
 546 495 546 495 546 144 c 2,3,-1
 546 0 l 1,4,-1
 426 0 l 1,5,-1
 426 144 l 2,6,7
 426 491 426 491 554.5 786 c 128,-1,8
 683 1081 683 1081 914 1354 c 1,9,-1
 91 1354 l 1,10,-1
 91 1456 l 1,11,-1
 1038 1456 l 1,12,-1
 1038 1354 l 1,0,1
EndSplineSet
Validated: 1
EndChar

StartChar: eight
Encoding: 56 56 27
Width: 1135
GlyphClass: 1
Flags: W
LayerCount: 2
Fore
SplineSet
996 1090 m 0,0,1
 996 972 996 972 927.5 883 c 128,-1,2
 859 794 859 794 746 754 c 1,3,4
 876 713 876 713 956.5 617 c 128,-1,5
 1037 521 1037 521 1037 394 c 0,6,7
 1037 198 1037 198 906.5 88.5 c 128,-1,8
 776 -21 776 -21 579 -21 c 0,9,10
 369 -21 369 -21 234.5 88 c 128,-1,11
 100 197 100 197 100 394 c 0,12,13
 100 522 100 522 182 618 c 128,-1,14
 264 714 264 714 400 755 c 1,15,16
 281 795 281 795 211 883.5 c 128,-1,17
 141 972 141 972 141 1090 c 0,18,19
 141 1276 141 1276 263 1376.5 c 128,-1,20
 385 1477 385 1477 577 1477 c 0,21,22
 758 1477 758 1477 877 1376.5 c 128,-1,23
 996 1276 996 1276 996 1090 c 0,0,1
917 393 m 0,24,25
 917 530 917 530 818 617 c 128,-1,26
 719 704 719 704 577 704 c 0,27,28
 424 704 424 704 321.5 617 c 128,-1,29
 219 530 219 530 219 393 c 0,30,31
 219 250 219 250 321 165 c 128,-1,32
 423 80 423 80 579 80 c 0,33,34
 722 80 722 80 819.5 165.5 c 128,-1,35
 917 251 917 251 917 393 c 0,24,25
876 1091 m 0,36,37
 876 1216 876 1216 789 1295.5 c 128,-1,38
 702 1375 702 1375 577 1375 c 0,39,40
 439 1375 439 1375 349.5 1298.5 c 128,-1,41
 260 1222 260 1222 260 1091 c 0,42,43
 260 962 260 962 351 883.5 c 128,-1,44
 442 805 442 805 579 805 c 0,45,46
 704 805 704 805 790 884 c 128,-1,47
 876 963 876 963 876 1091 c 0,36,37
EndSplineSet
Validated: 1
EndChar

StartChar: nine
Encoding: 57 57 28
Width: 1135
GlyphClass: 1
Flags: W
LayerCount: 2
Fore
SplineSet
518 80 m 0,0,1
 678 80 678 80 773 186 c 128,-1,2
 868 292 868 292 868 482 c 2,3,-1
 868 694 l 1,4,5
 815 605 815 605 726.5 557 c 128,-1,6
 638 509 638 509 531 509 c 0,7,8
 333 509 333 509 213.5 640.5 c 128,-1,9
 94 772 94 772 94 983 c 0,10,11
 94 1196 94 1196 219 1336.5 c 128,-1,12
 344 1477 344 1477 532 1477 c 0,13,14
 738 1477 738 1477 865 1342 c 128,-1,15
 992 1207 992 1207 992 958 c 2,16,-1
 992 484 l 2,17,18
 992 247 992 247 860.5 113 c 128,-1,19
 729 -21 729 -21 518 -21 c 0,20,21
 443 -21 443 -21 366.5 -5 c 128,-1,22
 290 11 290 11 218 42 c 1,23,-1
 240 139 l 1,24,25
 306 107 306 107 369.5 93.5 c 128,-1,26
 433 80 433 80 518 80 c 0,0,1
531 610 m 0,27,28
 658 610 658 610 745 674 c 128,-1,29
 832 738 832 738 868 832 c 1,30,-1
 868 971 l 2,31,32
 868 1165 868 1165 778 1270 c 128,-1,33
 688 1375 688 1375 537 1375 c 0,34,35
 396 1375 396 1375 307 1262 c 128,-1,36
 218 1149 218 1149 218 983 c 0,37,38
 218 823 218 823 301.5 716.5 c 128,-1,39
 385 610 385 610 531 610 c 0,27,28
EndSplineSet
Validated: 1
EndChar

StartChar: less
Encoding: 60 60 31
Width: 1047
GlyphClass: 1
Flags: W
LayerCount: 2
Fore
SplineSet
290 578 m 1,0,-1
 182 550 l 1,1,-1
 182 544 l 1,2,-1
 290 516 l 1,3,-1
 904 248 l 1,4,-1
 904 122 l 1,5,-1
 77 501 l 1,6,-1
 77 598 l 1,7,-1
 904 976 l 1,8,-1
 904 850 l 1,9,-1
 290 578 l 1,0,-1
EndSplineSet
Validated: 1
EndChar

StartChar: equal
Encoding: 61 61 32
Width: 1147
GlyphClass: 1
Flags: W
LayerCount: 2
Fore
SplineSet
983 833 m 1,0,-1
 149 833 l 1,1,-1
 149 939 l 1,2,-1
 983 939 l 1,3,-1
 983 833 l 1,0,-1
983 422 m 1,4,-1
 149 422 l 1,5,-1
 149 528 l 1,6,-1
 983 528 l 1,7,-1
 983 422 l 1,4,-1
EndSplineSet
Validated: 1
EndChar

StartChar: greater
Encoding: 62 62 33
Width: 1061
GlyphClass: 1
Flags: W
LayerCount: 2
Fore
SplineSet
124 844 m 1,0,-1
 124 967 l 1,1,-1
 969 589 l 1,2,-1
 969 492 l 1,3,-1
 124 113 l 1,4,-1
 124 237 l 1,5,-1
 756 511 l 1,6,-1
 864 538 l 1,7,-1
 864 544 l 1,8,-1
 756 573 l 1,9,-1
 124 844 l 1,0,-1
EndSplineSet
Validated: 1
EndChar

StartChar: question
Encoding: 63 63 34
Width: 930
GlyphClass: 1
Flags: W
LayerCount: 2
Fore
SplineSet
377 404 m 1,0,1
 378 535 378 535 399 586.5 c 128,-1,2
 420 638 420 638 513 723 c 1,3,4
 621 835 621 835 670.5 910.5 c 128,-1,5
 720 986 720 986 720 1102 c 0,6,7
 720 1230 720 1230 652 1300 c 128,-1,8
 584 1370 584 1370 458 1370 c 0,9,10
 340 1370 340 1370 268 1301.5 c 128,-1,11
 196 1233 196 1233 195 1116 c 1,12,-1
 83 1116 l 1,13,-1
 81 1122 l 1,14,15
 78 1287 78 1287 185 1382 c 128,-1,16
 292 1477 292 1477 458 1477 c 0,17,18
 637 1477 637 1477 738.5 1376 c 128,-1,19
 840 1275 840 1275 840 1103 c 0,20,21
 840 968 840 968 773.5 863.5 c 128,-1,22
 707 759 707 759 585 645 c 0,23,24
 523 592 523 592 509.5 546 c 128,-1,25
 496 500 496 500 496 404 c 1,26,-1
 377 404 l 1,0,1
512 0 m 1,27,-1
 373 0 l 1,28,-1
 373 154 l 1,29,-1
 512 154 l 1,30,-1
 512 0 l 1,27,-1
EndSplineSet
Validated: 33
EndChar

StartChar: at
Encoding: 64 64 35
Width: 1870
GlyphClass: 1
Flags: W
LayerCount: 2
Fore
SplineSet
1751 513 m 0,0,1
 1741 297 1741 297 1634 138 c 128,-1,2
 1527 -21 1527 -21 1321 -21 c 0,3,4
 1243 -21 1243 -21 1190.5 30 c 128,-1,5
 1138 81 1138 81 1121 172 c 1,6,7
 1068 76 1068 76 990 27.5 c 128,-1,8
 912 -21 912 -21 810 -21 c 0,9,10
 679 -21 679 -21 611 99 c 128,-1,11
 543 219 543 219 562 416 c 0,12,13
 585 670 585 670 703 823.5 c 128,-1,14
 821 977 821 977 989 977 c 0,15,16
 1083 977 1083 977 1140 950.5 c 128,-1,17
 1197 924 1197 924 1266 869 c 1,18,-1
 1264 867 l 1,19,-1
 1267 867 l 1,20,-1
 1217 293 l 2,21,22
 1207 161 1207 161 1247 113 c 128,-1,23
 1287 65 1287 65 1342 65 c 0,24,25
 1484 65 1484 65 1566.5 189.5 c 128,-1,26
 1649 314 1649 314 1660 513 c 0,27,28
 1678 902 1678 902 1510 1117.5 c 128,-1,29
 1342 1333 1342 1333 980 1333 c 0,30,31
 657 1333 657 1333 447 1097.5 c 128,-1,32
 237 862 237 862 220 478 c 0,33,34
 201 99 201 99 383.5 -134.5 c 128,-1,35
 566 -368 566 -368 903 -368 c 0,36,37
 991 -368 991 -368 1081 -346 c 128,-1,38
 1171 -324 1171 -324 1233 -289 c 1,39,-1
 1264 -364 l 1,40,41
 1200 -405 1200 -405 1097 -429 c 128,-1,42
 994 -453 994 -453 899 -453 c 0,43,44
 519 -453 519 -453 311 -203.5 c 128,-1,45
 103 46 103 46 122 478 c 0,46,47
 140 902 140 902 374.5 1161 c 128,-1,48
 609 1420 609 1420 984 1420 c 0,49,50
 1375 1420 1375 1420 1571.5 1178.5 c 128,-1,51
 1768 937 1768 937 1751 513 c 0,0,1
672 416 m 0,52,53
 656 261 656 261 698 169 c 128,-1,54
 740 77 740 77 836 77 c 0,55,56
 922 77 922 77 992.5 120 c 128,-1,57
 1063 163 1063 163 1115 277 c 0,58,59
 1115 282 1115 282 1115 285.5 c 128,-1,60
 1115 289 1115 289 1116 293 c 2,61,-1
 1163 837 l 1,62,63
 1131 860 1131 860 1092 873 c 128,-1,64
 1053 886 1053 886 1005 886 c 0,65,66
 871 886 871 886 783 767 c 128,-1,67
 695 648 695 648 672 416 c 0,52,53
EndSplineSet
Validated: 33
EndChar

StartChar: A
Encoding: 65 65 36
Width: 1256
GlyphClass: 1
Flags: W
LayerCount: 2
Fore
SplineSet
948 406 m 1,0,-1
 309 406 l 1,1,-1
 162 0 l 1,2,-1
 38 0 l 1,3,-1
 573 1456 l 1,4,-1
 686 1456 l 1,5,-1
 1217 0 l 1,6,-1
 1093 0 l 1,7,-1
 948 406 l 1,0,-1
347 513 m 1,8,-1
 909 513 l 1,9,-1
 633 1285 l 1,10,-1
 627 1285 l 1,11,-1
 347 513 l 1,8,-1
EndSplineSet
Validated: 1
Substitution2: "'smcp' Lowercase to Small Capitals lookup 0 subtable" A.smcp
EndChar

StartChar: B
Encoding: 66 66 37
Width: 1263
GlyphClass: 1
Flags: W
LayerCount: 2
Fore
SplineSet
186 0 m 1,0,-1
 186 1456 l 1,1,-1
 611 1456 l 2,2,3
 838 1456 838 1456 965 1360.5 c 128,-1,4
 1092 1265 1092 1265 1092 1073 c 0,5,6
 1092 964 1092 964 1030.5 882 c 128,-1,7
 969 800 969 800 865 766 c 1,8,9
 1003 749 1003 749 1090.5 646 c 128,-1,10
 1178 543 1178 543 1178 405 c 0,11,12
 1178 210 1178 210 1051.5 105 c 128,-1,13
 925 0 925 0 713 0 c 2,14,-1
 186 0 l 1,0,-1
306 702 m 1,15,-1
 306 101 l 1,16,-1
 713 101 l 2,17,18
 874 101 874 101 966 180.5 c 128,-1,19
 1058 260 1058 260 1058 403 c 0,20,21
 1058 534 1058 534 967.5 615.5 c 128,-1,22
 877 697 877 697 725 702 c 1,23,-1
 709 702 l 1,24,-1
 306 702 l 1,15,-1
306 803 m 1,25,-1
 656 803 l 2,26,27
 807 806 807 806 889.5 875.5 c 128,-1,28
 972 945 972 945 972 1077 c 0,29,30
 972 1215 972 1215 880 1284.5 c 128,-1,31
 788 1354 788 1354 611 1354 c 2,32,-1
 306 1354 l 1,33,-1
 306 803 l 1,25,-1
EndSplineSet
Validated: 1
Substitution2: "'smcp' Lowercase to Small Capitals lookup 0 subtable" B.smcp
EndChar

StartChar: C
Encoding: 67 67 38
Width: 1313
GlyphClass: 1
Flags: W
LayerCount: 2
Fore
SplineSet
1189 455 m 1,0,-1
 1191 449 l 1,1,2
 1195 235 1195 235 1051 107 c 128,-1,3
 907 -21 907 -21 673 -21 c 0,4,5
 430 -21 430 -21 281 154.5 c 128,-1,6
 132 330 132 330 132 609 c 2,7,-1
 132 846 l 2,8,9
 132 1124 132 1124 281 1300.5 c 128,-1,10
 430 1477 430 1477 673 1477 c 0,11,12
 910 1477 910 1477 1052.5 1352 c 128,-1,13
 1195 1227 1195 1227 1191 1008 c 1,14,-1
 1189 1002 l 1,15,-1
 1077 1002 l 1,16,17
 1077 1178 1077 1178 969.5 1276.5 c 128,-1,18
 862 1375 862 1375 673 1375 c 0,19,20
 482 1375 482 1375 366.5 1227 c 128,-1,21
 251 1079 251 1079 251 848 c 2,22,-1
 251 609 l 2,23,24
 251 375 251 375 366.5 227.5 c 128,-1,25
 482 80 482 80 673 80 c 0,26,27
 862 80 862 80 969.5 176 c 128,-1,28
 1077 272 1077 272 1077 455 c 1,29,-1
 1189 455 l 1,0,-1
EndSplineSet
Validated: 33
Substitution2: "'smcp' Lowercase to Small Capitals lookup 0 subtable" C.smcp
EndChar

StartChar: D
Encoding: 68 68 39
Width: 1378
GlyphClass: 1
Flags: W
LayerCount: 2
Fore
SplineSet
186 0 m 1,0,-1
 186 1456 l 1,1,-1
 630 1456 l 2,2,3
 897 1456 897 1456 1071.5 1278 c 128,-1,4
 1246 1100 1246 1100 1246 821 c 2,5,-1
 1246 634 l 2,6,7
 1246 355 1246 355 1071.5 177.5 c 128,-1,8
 897 0 897 0 630 0 c 2,9,-1
 186 0 l 1,0,-1
306 1354 m 1,10,-1
 306 101 l 1,11,-1
 630 101 l 2,12,13
 846 101 846 101 986 252 c 128,-1,14
 1126 403 1126 403 1126 634 c 2,15,-1
 1126 824 l 2,16,17
 1126 1052 1126 1052 985.5 1203 c 128,-1,18
 845 1354 845 1354 630 1354 c 2,19,-1
 306 1354 l 1,10,-1
EndSplineSet
Validated: 1
Substitution2: "'smcp' Lowercase to Small Capitals lookup 0 subtable" D.smcp
EndChar

StartChar: E
Encoding: 69 69 40
Width: 1129
GlyphClass: 1
Flags: W
LayerCount: 2
Fore
SplineSet
959 705 m 1,0,-1
 306 705 l 1,1,-1
 306 101 l 1,2,-1
 1061 101 l 1,3,-1
 1061 0 l 1,4,-1
 186 0 l 1,5,-1
 186 1456 l 1,6,-1
 1056 1456 l 1,7,-1
 1056 1354 l 1,8,-1
 306 1354 l 1,9,-1
 306 807 l 1,10,-1
 959 807 l 1,11,-1
 959 705 l 1,0,-1
EndSplineSet
Validated: 1
Substitution2: "'smcp' Lowercase to Small Capitals lookup 0 subtable" E.smcp
EndChar

StartChar: F
Encoding: 70 70 41
Width: 1128
GlyphClass: 1
Flags: W
LayerCount: 2
Fore
SplineSet
975 682 m 1,0,-1
 306 682 l 1,1,-1
 306 0 l 1,2,-1
 186 0 l 1,3,-1
 186 1456 l 1,4,-1
 1077 1456 l 1,5,-1
 1077 1354 l 1,6,-1
 306 1354 l 1,7,-1
 306 785 l 1,8,-1
 975 785 l 1,9,-1
 975 682 l 1,0,-1
EndSplineSet
Validated: 1
Substitution2: "'smcp' Lowercase to Small Capitals lookup 0 subtable" F.smcp
EndChar

StartChar: G
Encoding: 71 71 42
Width: 1410
GlyphClass: 1
Flags: W
LayerCount: 2
Fore
SplineSet
1221 196 m 1,0,1
 1173 117 1173 117 1043.5 48 c 128,-1,2
 914 -21 914 -21 717 -21 c 0,3,4
 466 -21 466 -21 306 152 c 128,-1,5
 146 325 146 325 146 600 c 2,6,-1
 146 867 l 2,7,8
 146 1137 146 1137 301 1307 c 128,-1,9
 456 1477 456 1477 702 1477 c 0,10,11
 939 1477 939 1477 1078.5 1352 c 128,-1,12
 1218 1227 1218 1227 1214 1034 c 1,13,-1
 1211 1028 l 1,14,-1
 1101 1028 l 1,15,16
 1101 1179 1101 1179 997 1277 c 128,-1,17
 893 1375 893 1375 702 1375 c 0,18,19
 506 1375 506 1375 386 1233 c 128,-1,20
 266 1091 266 1091 266 869 c 2,21,-1
 266 600 l 2,22,23
 266 372 266 372 391 226 c 128,-1,24
 516 80 516 80 717 80 c 0,25,26
 870 80 870 80 967 126 c 128,-1,27
 1064 172 1064 172 1102 233 c 1,28,-1
 1102 606 l 1,29,-1
 710 606 l 1,30,-1
 710 708 l 1,31,-1
 1221 708 l 1,32,-1
 1221 196 l 1,0,1
EndSplineSet
Validated: 33
Substitution2: "'smcp' Lowercase to Small Capitals lookup 0 subtable" G.smcp
EndChar

StartChar: H
Encoding: 72 72 43
Width: 1439
GlyphClass: 1
Flags: W
LayerCount: 2
Fore
SplineSet
1253 0 m 1,0,-1
 1133 0 l 1,1,-1
 1133 670 l 1,2,-1
 306 670 l 1,3,-1
 306 0 l 1,4,-1
 186 0 l 1,5,-1
 186 1456 l 1,6,-1
 306 1456 l 1,7,-1
 306 772 l 1,8,-1
 1133 772 l 1,9,-1
 1133 1456 l 1,10,-1
 1253 1456 l 1,11,-1
 1253 0 l 1,0,-1
EndSplineSet
Validated: 1
Substitution2: "'smcp' Lowercase to Small Capitals lookup 0 subtable" H.smcp
EndChar

StartChar: I
Encoding: 73 73 44
Width: 554
GlyphClass: 1
Flags: W
LayerCount: 2
Fore
SplineSet
337 0 m 1,0,-1
 217 0 l 1,1,-1
 217 1456 l 1,2,-1
 337 1456 l 1,3,-1
 337 0 l 1,0,-1
EndSplineSet
Validated: 1
Substitution2: "'smcp' Lowercase to Small Capitals lookup 0 subtable" I.smcp
EndChar

StartChar: J
Encoding: 74 74 45
Width: 1122
GlyphClass: 1
Flags: W
LayerCount: 2
Fore
SplineSet
820 1456 m 1,0,-1
 940 1456 l 1,1,-1
 940 422 l 2,2,3
 940 219 940 219 821.5 99 c 128,-1,4
 703 -21 703 -21 515 -21 c 0,5,6
 315 -21 315 -21 198 85 c 128,-1,7
 81 191 81 191 86 395 c 1,8,-1
 88 401 l 1,9,-1
 200 401 l 1,10,11
 200 237 200 237 280.5 158.5 c 128,-1,12
 361 80 361 80 515 80 c 0,13,14
 648 80 648 80 734 172.5 c 128,-1,15
 820 265 820 265 820 422 c 2,16,-1
 820 1456 l 1,0,-1
EndSplineSet
Validated: 33
Substitution2: "'smcp' Lowercase to Small Capitals lookup 0 subtable" J.smcp
EndChar

StartChar: K
Encoding: 75 75 46
Width: 1261
GlyphClass: 1
Flags: W
LayerCount: 2
Fore
SplineSet
463 691 m 1,0,-1
 306 691 l 1,1,-1
 306 0 l 1,2,-1
 186 0 l 1,3,-1
 186 1456 l 1,4,-1
 306 1456 l 1,5,-1
 306 792 l 1,6,-1
 462 792 l 1,7,-1
 1034 1456 l 1,8,-1
 1170 1456 l 1,9,-1
 1172 1451 l 1,10,-1
 568 751 l 1,11,-1
 1232 5 l 1,12,-1
 1230 0 l 1,13,-1
 1086 0 l 1,14,-1
 463 691 l 1,0,-1
EndSplineSet
Validated: 1
Substitution2: "'smcp' Lowercase to Small Capitals lookup 0 subtable" K.smcp
EndChar

StartChar: L
Encoding: 76 76 47
Width: 1128
GlyphClass: 1
Flags: W
LayerCount: 2
Fore
SplineSet
306 101 m 1,0,-1
 1058 101 l 1,1,-1
 1058 0 l 1,2,-1
 186 0 l 1,3,-1
 186 1456 l 1,4,-1
 306 1456 l 1,5,-1
 306 101 l 1,0,-1
EndSplineSet
Validated: 1
Substitution2: "'smcp' Lowercase to Small Capitals lookup 0 subtable" L.smcp
EndChar

StartChar: M
Encoding: 77 77 48
Width: 1766
GlyphClass: 1
Flags: W
LayerCount: 2
Fore
SplineSet
886 174 m 1,0,-1
 892 174 l 1,1,-1
 1434 1456 l 1,2,-1
 1580 1456 l 1,3,-1
 1580 0 l 1,4,-1
 1460 0 l 1,5,-1
 1460 1223 l 1,6,-1
 1454 1224 l 1,7,-1
 932 0 l 1,8,-1
 846 0 l 1,9,-1
 312 1254 l 1,10,-1
 306 1253 l 1,11,-1
 306 0 l 1,12,-1
 186 0 l 1,13,-1
 186 1456 l 1,14,-1
 346 1456 l 1,15,-1
 886 174 l 1,0,-1
EndSplineSet
Validated: 1
Substitution2: "'smcp' Lowercase to Small Capitals lookup 0 subtable" M.smcp
EndChar

StartChar: N
Encoding: 78 78 49
Width: 1445
GlyphClass: 1
Flags: W
LayerCount: 2
Fore
SplineSet
1259 0 m 1,0,-1
 1139 0 l 1,1,-1
 312 1246 l 1,2,-1
 306 1245 l 1,3,-1
 306 0 l 1,4,-1
 186 0 l 1,5,-1
 186 1456 l 1,6,-1
 306 1456 l 1,7,-1
 1133 213 l 1,8,-1
 1139 214 l 1,9,-1
 1139 1456 l 1,10,-1
 1259 1456 l 1,11,-1
 1259 0 l 1,0,-1
EndSplineSet
Validated: 1
Substitution2: "'smcp' Lowercase to Small Capitals lookup 0 subtable" N.smcp
EndChar

StartChar: O
Encoding: 79 79 50
Width: 1378
GlyphClass: 1
Flags: W
LayerCount: 2
Fore
SplineSet
1254 609 m 2,0,1
 1254 327 1254 327 1099.5 153 c 128,-1,2
 945 -21 945 -21 685 -21 c 0,3,4
 429 -21 429 -21 276.5 153 c 128,-1,5
 124 327 124 327 124 609 c 2,6,-1
 124 846 l 2,7,8
 124 1127 124 1127 276 1302 c 128,-1,9
 428 1477 428 1477 684 1477 c 0,10,11
 944 1477 944 1477 1099 1302 c 128,-1,12
 1254 1127 1254 1127 1254 846 c 2,13,-1
 1254 609 l 2,0,1
1135 848 m 2,14,15
 1135 1084 1135 1084 1015.5 1228 c 128,-1,16
 896 1372 896 1372 684 1372 c 0,17,18
 476 1372 476 1372 360 1228 c 128,-1,19
 244 1084 244 1084 244 848 c 2,20,-1
 244 609 l 2,21,22
 244 371 244 371 360.5 227 c 128,-1,23
 477 83 477 83 685 83 c 0,24,25
 898 83 898 83 1016.5 226.5 c 128,-1,26
 1135 370 1135 370 1135 609 c 2,27,-1
 1135 848 l 2,14,15
EndSplineSet
Validated: 1
Substitution2: "'smcp' Lowercase to Small Capitals lookup 0 subtable" O.smcp
EndChar

StartChar: P
Encoding: 80 80 51
Width: 1263
GlyphClass: 1
Flags: W
LayerCount: 2
Fore
SplineSet
306 605 m 1,0,-1
 306 0 l 1,1,-1
 186 0 l 1,2,-1
 186 1456 l 1,3,-1
 688 1456 l 2,4,5
 917 1456 917 1456 1042.5 1339 c 128,-1,6
 1168 1222 1168 1222 1168 1031 c 0,7,8
 1168 837 1168 837 1042.5 721 c 128,-1,9
 917 605 917 605 688 605 c 2,10,-1
 306 605 l 1,0,-1
306 707 m 1,11,-1
 688 707 l 2,12,13
 868 707 868 707 958 798.5 c 128,-1,14
 1048 890 1048 890 1048 1029 c 0,15,16
 1048 1169 1048 1169 958 1261.5 c 128,-1,17
 868 1354 868 1354 688 1354 c 2,18,-1
 306 1354 l 1,19,-1
 306 707 l 1,11,-1
EndSplineSet
Validated: 1
Substitution2: "'smcp' Lowercase to Small Capitals lookup 0 subtable" P.smcp
EndChar

StartChar: Q
Encoding: 81 81 52
Width: 1393
GlyphClass: 1
Flags: W
LayerCount: 2
Fore
SplineSet
1254 609 m 2,0,1
 1254 476 1254 476 1217.5 364 c 128,-1,2
 1181 252 1181 252 1113 169 c 1,3,-1
 1345 -58 l 1,4,-1
 1262 -138 l 1,5,-1
 1027 87 l 1,6,7
 957 34 957 34 870.5 6.5 c 128,-1,8
 784 -21 784 -21 685 -21 c 0,9,10
 429 -21 429 -21 276.5 153 c 128,-1,11
 124 327 124 327 124 609 c 2,12,-1
 124 846 l 2,13,14
 124 1127 124 1127 276 1302 c 128,-1,15
 428 1477 428 1477 684 1477 c 0,16,17
 944 1477 944 1477 1099 1302 c 128,-1,18
 1254 1127 1254 1127 1254 846 c 2,19,-1
 1254 609 l 2,0,1
1135 848 m 2,20,21
 1135 1084 1135 1084 1015.5 1228 c 128,-1,22
 896 1372 896 1372 684 1372 c 0,23,24
 476 1372 476 1372 360 1228 c 128,-1,25
 244 1084 244 1084 244 848 c 2,26,-1
 244 609 l 2,27,28
 244 371 244 371 360.5 227 c 128,-1,29
 477 83 477 83 685 83 c 0,30,31
 898 83 898 83 1016.5 226.5 c 128,-1,32
 1135 370 1135 370 1135 609 c 2,33,-1
 1135 848 l 2,20,21
EndSplineSet
Validated: 1
Substitution2: "'smcp' Lowercase to Small Capitals lookup 0 subtable" Q.smcp
EndChar

StartChar: R
Encoding: 82 82 53
Width: 1336
GlyphClass: 1
Flags: W
LayerCount: 2
Fore
SplineSet
303 658 m 1,0,-1
 303 0 l 1,1,-1
 183 0 l 1,2,-1
 183 1455 l 1,3,-1
 668 1455 l 2,4,5
 902 1455 902 1455 1027 1352.5 c 128,-1,6
 1152 1250 1152 1250 1152 1053 c 0,7,8
 1152 937 1152 937 1085.5 845.5 c 128,-1,9
 1019 754 1019 754 897 712 c 1,10,11
 1032 678 1032 678 1091.5 590.5 c 128,-1,12
 1151 503 1151 503 1151 371 c 2,13,-1
 1151 234 l 2,14,15
 1151 166 1151 166 1167 112 c 128,-1,16
 1183 58 1183 58 1220 24 c 1,17,-1
 1220 0 l 1,18,-1
 1098 0 l 1,19,20
 1061 36 1061 36 1046 101 c 128,-1,21
 1031 166 1031 166 1031 236 c 2,22,-1
 1031 369 l 2,23,24
 1031 503 1031 503 944.5 580.5 c 128,-1,25
 858 658 858 658 703 658 c 2,26,-1
 303 658 l 1,0,-1
303 760 m 1,27,-1
 654 760 l 2,28,29
 851 760 851 760 942 839.5 c 128,-1,30
 1033 919 1033 919 1033 1054 c 0,31,32
 1033 1198 1033 1198 942.5 1275.5 c 128,-1,33
 852 1353 852 1353 668 1353 c 2,34,-1
 303 1353 l 1,35,-1
 303 760 l 1,27,-1
EndSplineSet
Validated: 1
Substitution2: "'smcp' Lowercase to Small Capitals lookup 0 subtable" R.smcp
EndChar

StartChar: S
Encoding: 83 83 54
Width: 1236
GlyphClass: 1
Flags: W
LayerCount: 2
Fore
SplineSet
1007 354 m 0,0,1
 1007 466 1007 466 918 539 c 128,-1,2
 829 612 829 612 616 676 c 1,3,4
 383 740 383 740 261.5 835.5 c 128,-1,5
 140 931 140 931 140 1095 c 0,6,7
 140 1262 140 1262 276 1369.5 c 128,-1,8
 412 1477 412 1477 623 1477 c 0,9,10
 845 1477 845 1477 980 1355.5 c 128,-1,11
 1115 1234 1115 1234 1111 1047 c 1,12,-1
 1109 1041 l 1,13,-1
 997 1041 l 1,14,15
 997 1185 997 1185 892.5 1280 c 128,-1,16
 788 1375 788 1375 623 1375 c 0,17,18
 453 1375 453 1375 356.5 1294.5 c 128,-1,19
 260 1214 260 1214 260 1097 c 0,20,21
 260 986 260 986 347.5 914.5 c 128,-1,22
 435 843 435 843 656 781 c 0,23,24
 886 714 886 714 1007 616 c 128,-1,25
 1128 518 1128 518 1128 356 c 0,26,27
 1128 186 1128 186 986.5 82.5 c 128,-1,28
 845 -21 845 -21 630 -21 c 256,29,30
 415 -21 415 -21 255 88.5 c 128,-1,31
 95 198 95 198 100 408 c 1,32,-1
 102 414 l 1,33,-1
 213 414 l 1,34,35
 213 245 213 245 340 162.5 c 128,-1,36
 467 80 467 80 630 80 c 0,37,38
 797 80 797 80 902 156.5 c 128,-1,39
 1007 233 1007 233 1007 354 c 0,0,1
EndSplineSet
Validated: 33
Substitution2: "'smcp' Lowercase to Small Capitals lookup 0 subtable" S.smcp
EndChar

StartChar: T
Encoding: 84 84 55
Width: 1224
GlyphClass: 1
Flags: W
LayerCount: 2
Fore
SplineSet
1176 1354 m 1,0,-1
 680 1354 l 1,1,-1
 680 0 l 1,2,-1
 561 0 l 1,3,-1
 561 1354 l 1,4,-1
 48 1354 l 1,5,-1
 48 1456 l 1,6,-1
 1176 1456 l 1,7,-1
 1176 1354 l 1,0,-1
EndSplineSet
Validated: 1
Substitution2: "'smcp' Lowercase to Small Capitals lookup 0 subtable" T.smcp
EndChar

StartChar: U
Encoding: 85 85 56
Width: 1374
GlyphClass: 1
Flags: W
LayerCount: 2
Fore
SplineSet
1209 1456 m 1,0,-1
 1209 489 l 2,1,2
 1209 249 1209 249 1062 114 c 128,-1,3
 915 -21 915 -21 684 -21 c 0,4,5
 456 -21 456 -21 311.5 114.5 c 128,-1,6
 167 250 167 250 167 489 c 2,7,-1
 167 1456 l 1,8,-1
 287 1456 l 1,9,-1
 287 489 l 2,10,11
 287 301 287 301 398.5 190.5 c 128,-1,12
 510 80 510 80 684 80 c 0,13,14
 862 80 862 80 976 190 c 128,-1,15
 1090 300 1090 300 1090 489 c 2,16,-1
 1090 1456 l 1,17,-1
 1209 1456 l 1,0,-1
EndSplineSet
Validated: 1
Substitution2: "'smcp' Lowercase to Small Capitals lookup 0 subtable" U.smcp
EndChar

StartChar: V
Encoding: 86 86 57
Width: 1256
GlyphClass: 1
Flags: W
LayerCount: 2
Fore
SplineSet
596 255 m 1,0,-1
 625 153 l 1,1,-1
 631 153 l 1,2,-1
 660 255 l 1,3,-1
 1098 1456 l 1,4,-1
 1227 1456 l 1,5,-1
 685 0 l 1,6,-1
 571 0 l 1,7,-1
 29 1456 l 1,8,-1
 159 1456 l 1,9,-1
 596 255 l 1,0,-1
EndSplineSet
Validated: 1
Substitution2: "'smcp' Lowercase to Small Capitals lookup 0 subtable" V.smcp
EndChar

StartChar: W
Encoding: 87 87 58
Width: 1813
GlyphClass: 1
Flags: W
LayerCount: 2
Fore
SplineSet
440 418 m 1,0,-1
 485 183 l 1,1,-1
 491 183 l 1,2,-1
 542 418 l 1,3,-1
 846 1456 l 1,4,-1
 967 1456 l 1,5,-1
 1272 418 l 1,6,-1
 1321 182 l 1,7,-1
 1327 182 l 1,8,-1
 1375 418 l 1,9,-1
 1632 1456 l 1,10,-1
 1762 1456 l 1,11,-1
 1389 0 l 1,12,-1
 1275 0 l 1,13,-1
 946 1117 l 1,14,-1
 910 1274 l 1,15,-1
 904 1274 l 1,16,-1
 870 1117 l 1,17,-1
 537 0 l 1,18,-1
 423 0 l 1,19,-1
 50 1456 l 1,20,-1
 180 1456 l 1,21,-1
 440 418 l 1,0,-1
EndSplineSet
Validated: 1
Substitution2: "'smcp' Lowercase to Small Capitals lookup 0 subtable" W.smcp
EndChar

StartChar: X
Encoding: 88 88 59
Width: 1256
GlyphClass: 1
Flags: W
LayerCount: 2
Fore
SplineSet
628 834 m 1,0,-1
 1039 1456 l 1,1,-1
 1184 1456 l 1,2,-1
 700 738 l 1,3,-1
 1200 0 l 1,4,-1
 1057 0 l 1,5,-1
 630 642 l 1,6,-1
 204 0 l 1,7,-1
 59 0 l 1,8,-1
 559 738 l 1,9,-1
 74 1456 l 1,10,-1
 219 1456 l 1,11,-1
 628 834 l 1,0,-1
EndSplineSet
Validated: 1
Substitution2: "'smcp' Lowercase to Small Capitals lookup 0 subtable" X.smcp
EndChar

StartChar: Y
Encoding: 89 89 60
Width: 1256
GlyphClass: 1
Flags: W
LayerCount: 2
Fore
SplineSet
625 647 m 1,0,-1
 1076 1456 l 1,1,-1
 1215 1456 l 1,2,-1
 684 532 l 1,3,-1
 684 0 l 1,4,-1
 565 0 l 1,5,-1
 565 537 l 1,6,-1
 38 1456 l 1,7,-1
 177 1456 l 1,8,-1
 625 647 l 1,0,-1
EndSplineSet
Validated: 1
Substitution2: "'smcp' Lowercase to Small Capitals lookup 0 subtable" Y.smcp
EndChar

StartChar: Z
Encoding: 90 90 61
Width: 1224
GlyphClass: 1
Flags: W
LayerCount: 2
Fore
SplineSet
238 101 m 1,0,-1
 1131 101 l 1,1,-1
 1131 0 l 1,2,-1
 95 0 l 1,3,-1
 95 92 l 1,4,-1
 953 1354 l 1,5,-1
 122 1354 l 1,6,-1
 122 1456 l 1,7,-1
 1099 1456 l 1,8,-1
 1099 1369 l 1,9,-1
 238 101 l 1,0,-1
EndSplineSet
Validated: 1
Substitution2: "'smcp' Lowercase to Small Capitals lookup 0 subtable" Z.smcp
EndChar

StartChar: bracketleft
Encoding: 91 91 62
Width: 491
GlyphClass: 1
Flags: W
LayerCount: 2
Fore
SplineSet
493 1562 m 1,0,-1
 283 1562 l 1,1,-1
 283 -210 l 1,2,-1
 493 -210 l 1,3,-1
 493 -312 l 1,4,-1
 163 -312 l 1,5,-1
 163 1664 l 1,6,-1
 493 1664 l 1,7,-1
 493 1562 l 1,0,-1
EndSplineSet
Validated: 1
EndChar

StartChar: backslash
Encoding: 92 92 63
Width: 807
GlyphClass: 1
Flags: W
LayerCount: 2
Fore
SplineSet
48 1456 m 1,0,-1
 165 1456 l 1,1,-1
 773 -125 l 1,2,-1
 656 -125 l 1,3,-1
 48 1456 l 1,0,-1
EndSplineSet
Validated: 1
EndChar

StartChar: bracketright
Encoding: 93 93 64
Width: 491
GlyphClass: 1
Flags: W
LayerCount: 2
Fore
SplineSet
0 1664 m 1,0,-1
 331 1664 l 1,1,-1
 331 -312 l 1,2,-1
 0 -312 l 1,3,-1
 0 -210 l 1,4,-1
 211 -210 l 1,5,-1
 211 1562 l 1,6,-1
 0 1562 l 1,7,-1
 0 1664 l 1,0,-1
EndSplineSet
Validated: 1
EndChar

StartChar: asciicircum
Encoding: 94 94 65
Width: 852
GlyphClass: 1
Flags: W
LayerCount: 2
Fore
SplineSet
193 729 m 1,0,-1
 77 729 l 1,1,-1
 376 1456 l 1,2,-1
 466 1456 l 1,3,-1
 764 729 l 1,4,-1
 648 729 l 1,5,-1
 452 1213 l 1,6,-1
 422 1319 l 1,7,-1
 416 1319 l 1,8,-1
 386 1213 l 1,9,-1
 193 729 l 1,0,-1
EndSplineSet
Validated: 1
EndChar

StartChar: underscore
Encoding: 95 95 66
Width: 884
GlyphClass: 1
Flags: W
LayerCount: 2
Fore
SplineSet
882 -101 m 1,0,-1
 1 -101 l 1,1,-1
 1 0 l 1,2,-1
 882 0 l 1,3,-1
 882 -101 l 1,0,-1
EndSplineSet
Validated: 1
EndChar

StartChar: grave
Encoding: 96 96 67
Width: 585
GlyphClass: 1
Flags: W
LayerCount: 2
Fore
SplineSet
451 1252 m 1,0,-1
 334 1252 l 1,1,-1
 93 1513 l 1,2,-1
 95 1518 l 1,3,-1
 249 1518 l 1,4,-1
 451 1252 l 1,0,-1
EndSplineSet
Validated: 1
EndChar

StartChar: a
Encoding: 97 97 68
Width: 1101
GlyphClass: 1
Flags: W
LayerCount: 2
Fore
SplineSet
843 0 m 1,0,1
 832 57 832 57 826.5 98 c 128,-1,2
 821 139 821 139 821 182 c 1,3,4
 765 94 765 94 664 36.5 c 128,-1,5
 563 -21 563 -21 432 -21 c 0,6,7
 273 -21 273 -21 185.5 63.5 c 128,-1,8
 98 148 98 148 98 293 c 256,9,10
 98 438 98 438 225 528 c 128,-1,11
 352 618 352 618 555 618 c 2,12,-1
 821 618 l 1,13,-1
 821 752 l 2,14,15
 821 868 821 868 747.5 934 c 128,-1,16
 674 1000 674 1000 540 1000 c 0,17,18
 417 1000 417 1000 341.5 940 c 128,-1,19
 266 880 266 880 266 789 c 1,20,-1
 155 789 l 1,21,-1
 153 795 l 1,22,23
 147 917 147 917 257.5 1009.5 c 128,-1,24
 368 1102 368 1102 546 1102 c 256,25,26
 724 1102 724 1102 832 1011 c 128,-1,27
 940 920 940 920 940 750 c 2,28,-1
 940 218 l 2,29,30
 940 161 940 161 946.5 107 c 128,-1,31
 953 53 953 53 968 0 c 1,32,-1
 843 0 l 1,0,1
445 85 m 0,33,34
 583 85 583 85 684 150.5 c 128,-1,35
 785 216 785 216 821 319 c 1,36,-1
 821 526 l 1,37,-1
 554 526 l 2,38,39
 408 526 408 526 313 456.5 c 128,-1,40
 218 387 218 387 218 289 c 0,41,42
 218 197 218 197 278.5 141 c 128,-1,43
 339 85 339 85 445 85 c 0,33,34
EndSplineSet
Validated: 33
Substitution2: "'smcp' Lowercase to Small Capitals lookup 0 subtable" A.smcp
EndChar

StartChar: b
Encoding: 98 98 69
Width: 1140
GlyphClass: 1
Flags: W
LayerCount: 2
Fore
SplineSet
1030 511 m 2,0,1
 1030 268 1030 268 920 123.5 c 128,-1,2
 810 -21 810 -21 617 -21 c 0,3,4
 499 -21 499 -21 412.5 26.5 c 128,-1,5
 326 74 326 74 272 162 c 1,6,-1
 252 0 l 1,7,-1
 158 0 l 1,8,-1
 158 1560 l 1,9,-1
 278 1560 l 1,10,-1
 278 916 l 1,11,12
 332 1005 332 1005 416 1053.5 c 128,-1,13
 500 1102 500 1102 615 1102 c 0,14,15
 810 1102 810 1102 920 946.5 c 128,-1,16
 1030 791 1030 791 1030 532 c 2,17,-1
 1030 511 l 2,0,1
909 532 m 2,18,19
 909 739 909 739 829 868.5 c 128,-1,20
 749 998 749 998 592 998 c 0,21,22
 468 998 468 998 392 937.5 c 128,-1,23
 316 877 316 877 278 781 c 1,24,-1
 278 286 l 1,25,26
 318 192 318 192 396.5 137.5 c 128,-1,27
 475 83 475 83 594 83 c 0,28,29
 751 83 751 83 830 199 c 128,-1,30
 909 315 909 315 909 511 c 2,31,-1
 909 532 l 2,18,19
EndSplineSet
Validated: 1
Substitution2: "'smcp' Lowercase to Small Capitals lookup 0 subtable" B.smcp
EndChar

StartChar: c
Encoding: 99 99 70
Width: 1054
GlyphClass: 1
Flags: W
LayerCount: 2
Fore
SplineSet
554 80 m 0,0,1
 669 80 669 80 757.5 148 c 128,-1,2
 846 216 846 216 846 337 c 1,3,-1
 953 337 l 1,4,-1
 955 331 l 1,5,6
 959 181 959 181 837 80 c 128,-1,7
 715 -21 715 -21 554 -21 c 0,8,9
 338 -21 338 -21 217.5 131 c 128,-1,10
 97 283 97 283 97 520 c 2,11,-1
 97 562 l 2,12,13
 97 798 97 798 217 950 c 128,-1,14
 337 1102 337 1102 553 1102 c 0,15,16
 727 1102 727 1102 843 997 c 128,-1,17
 959 892 959 892 955 721 c 1,18,-1
 953 715 l 1,19,-1
 846 715 l 1,20,21
 846 845 846 845 761 922.5 c 128,-1,22
 676 1000 676 1000 553 1000 c 0,23,24
 383 1000 383 1000 300 875 c 128,-1,25
 217 750 217 750 217 562 c 2,26,-1
 217 520 l 2,27,28
 217 329 217 329 300 204.5 c 128,-1,29
 383 80 383 80 554 80 c 0,0,1
EndSplineSet
Validated: 33
Substitution2: "'smcp' Lowercase to Small Capitals lookup 0 subtable" C.smcp
EndChar

StartChar: d
Encoding: 100 100 71
Width: 1140
GlyphClass: 1
Flags: W
LayerCount: 2
Fore
SplineSet
111 532 m 2,0,1
 111 791 111 791 220.5 946.5 c 128,-1,2
 330 1102 330 1102 526 1102 c 0,3,4
 637 1102 637 1102 720.5 1055 c 128,-1,5
 804 1008 804 1008 859 922 c 1,6,-1
 859 1560 l 1,7,-1
 979 1560 l 1,8,-1
 979 0 l 1,9,-1
 881 0 l 1,10,-1
 864 157 l 1,11,12
 809 71 809 71 724 25 c 128,-1,13
 639 -21 639 -21 524 -21 c 0,14,15
 330 -21 330 -21 220.5 123.5 c 128,-1,16
 111 268 111 268 111 511 c 2,17,-1
 111 532 l 2,0,1
231 511 m 2,18,19
 231 315 231 315 309.5 199 c 128,-1,20
 388 83 388 83 546 83 c 0,21,22
 662 83 662 83 739 134.5 c 128,-1,23
 816 186 816 186 859 277 c 1,24,-1
 859 790 l 1,25,26
 818 882 818 882 743 940 c 128,-1,27
 668 998 668 998 548 998 c 0,28,29
 390 998 390 998 310.5 868.5 c 128,-1,30
 231 739 231 739 231 532 c 2,31,-1
 231 511 l 2,18,19
EndSplineSet
Validated: 1
Substitution2: "'smcp' Lowercase to Small Capitals lookup 0 subtable" D.smcp
EndChar

StartChar: e
Encoding: 101 101 72
Width: 1054
GlyphClass: 1
Flags: W
LayerCount: 2
Fore
SplineSet
569 -21 m 0,0,1
 359 -21 359 -21 228 127.5 c 128,-1,2
 97 276 97 276 97 509 c 2,3,-1
 97 564 l 2,4,5
 97 798 97 798 229.5 950 c 128,-1,6
 362 1102 362 1102 558 1102 c 0,7,8
 755 1102 755 1102 862.5 975.5 c 128,-1,9
 970 849 970 849 970 635 c 2,10,-1
 970 542 l 1,11,-1
 217 542 l 1,12,-1
 217 509 l 2,13,14
 217 324 217 324 310.5 202 c 128,-1,15
 404 80 404 80 569 80 c 0,16,17
 668 80 668 80 751 112.5 c 128,-1,18
 834 145 834 145 889 200 c 1,19,-1
 940 118 l 1,20,21
 883 58 883 58 790.5 18.5 c 128,-1,22
 698 -21 698 -21 569 -21 c 0,0,1
558 1000 m 0,23,24
 420 1000 420 1000 331 901 c 128,-1,25
 242 802 242 802 227 650 c 1,26,-1
 230 644 l 1,27,-1
 850 644 l 1,28,-1
 850 669 l 2,29,30
 850 813 850 813 774.5 906.5 c 128,-1,31
 699 1000 699 1000 558 1000 c 0,23,24
EndSplineSet
Validated: 1
Substitution2: "'smcp' Lowercase to Small Capitals lookup 0 subtable" E.smcp
EndChar

StartChar: f
Encoding: 102 102 73
Width: 658
GlyphClass: 1
Flags: W
LayerCount: 2
Fore
SplineSet
240 0 m 1,0,-1
 240 984 l 1,1,-1
 61 984 l 1,2,-1
 61 1082 l 1,3,-1
 240 1082 l 1,4,-1
 240 1240 l 2,5,6
 240 1403 240 1403 322 1492 c 128,-1,7
 404 1581 404 1581 551 1581 c 0,8,9
 583 1581 583 1581 617 1576 c 128,-1,10
 651 1571 651 1571 687 1562 c 1,11,-1
 671 1463 l 1,12,13
 647 1469 647 1469 622 1472.5 c 128,-1,14
 597 1476 597 1476 563 1476 c 0,15,16
 465 1476 465 1476 412.5 1414 c 128,-1,17
 360 1352 360 1352 360 1240 c 2,18,-1
 360 1082 l 1,19,-1
 605 1082 l 1,20,-1
 605 984 l 1,21,-1
 360 984 l 1,22,-1
 360 0 l 1,23,-1
 240 0 l 1,0,-1
EndSplineSet
Validated: 1
Substitution2: "'smcp' Lowercase to Small Capitals lookup 0 subtable" F.smcp
EndChar

StartChar: g
Encoding: 103 103 74
Width: 1140
GlyphClass: 1
Flags: W
LayerCount: 2
Fore
SplineSet
115 532 m 2,0,1
 115 791 115 791 224.5 946.5 c 128,-1,2
 334 1102 334 1102 530 1102 c 0,3,4
 645 1102 645 1102 730 1052.5 c 128,-1,5
 815 1003 815 1003 870 912 c 1,6,-1
 887 1082 l 1,7,-1
 984 1082 l 1,8,-1
 984 -6 l 2,9,10
 984 -213 984 -213 870 -325 c 128,-1,11
 756 -437 756 -437 547 -437 c 0,12,13
 469 -437 469 -437 380.5 -418 c 128,-1,14
 292 -399 292 -399 226 -366 c 1,15,-1
 249 -265 l 1,16,17
 314 -297 314 -297 387.5 -313.5 c 128,-1,18
 461 -330 461 -330 545 -330 c 0,19,20
 705 -330 705 -330 784 -248 c 128,-1,21
 863 -166 863 -166 863 -6 c 2,22,-1
 863 147 l 1,23,24
 808 66 808 66 723.5 22.5 c 128,-1,25
 639 -21 639 -21 528 -21 c 0,26,27
 334 -21 334 -21 224.5 124 c 128,-1,28
 115 269 115 269 115 511 c 2,29,-1
 115 532 l 2,0,1
235 511 m 2,30,31
 235 315 235 315 314 199 c 128,-1,32
 393 83 393 83 551 83 c 0,33,34
 665 83 665 83 742.5 134.5 c 128,-1,35
 820 186 820 186 863 276 c 1,36,-1
 863 792 l 1,37,38
 822 883 822 883 746.5 940.5 c 128,-1,39
 671 998 671 998 553 998 c 0,40,41
 395 998 395 998 315 868 c 128,-1,42
 235 738 235 738 235 532 c 2,43,-1
 235 511 l 2,30,31
EndSplineSet
Validated: 1
Substitution2: "'smcp' Lowercase to Small Capitals lookup 0 subtable" G.smcp
EndChar

StartChar: h
Encoding: 104 104 75
Width: 1140
GlyphClass: 1
Flags: W
LayerCount: 2
Fore
SplineSet
278 898 m 1,0,1
 333 995 333 995 422.5 1048.5 c 128,-1,2
 512 1102 512 1102 632 1102 c 0,3,4
 803 1102 803 1102 894.5 996 c 128,-1,5
 986 890 986 890 986 667 c 2,6,-1
 986 0 l 1,7,-1
 866 0 l 1,8,-1
 866 669 l 2,9,10
 866 845 866 845 796.5 921.5 c 128,-1,11
 727 998 727 998 605 998 c 0,12,13
 479 998 479 998 397.5 936.5 c 128,-1,14
 316 875 316 875 278 772 c 1,15,-1
 278 0 l 1,16,-1
 158 0 l 1,17,-1
 158 1560 l 1,18,-1
 278 1560 l 1,19,-1
 278 898 l 1,0,1
EndSplineSet
Validated: 1
Substitution2: "'smcp' Lowercase to Small Capitals lookup 0 subtable" H.smcp
EndChar

StartChar: i
Encoding: 105 105 76
Width: 465
GlyphClass: 1
Flags: W
LayerCount: 2
Fore
SplineSet
292 0 m 1,0,-1
 173 0 l 1,1,-1
 173 1082 l 1,2,-1
 292 1082 l 1,3,-1
 292 0 l 1,0,-1
292 1392 m 1,4,-1
 173 1392 l 1,5,-1
 173 1560 l 1,6,-1
 292 1560 l 1,7,-1
 292 1392 l 1,4,-1
EndSplineSet
Validated: 1
Substitution2: "'smcp' Lowercase to Small Capitals lookup 0 subtable" I.smcp
EndChar

StartChar: j
Encoding: 106 106 77
Width: 484
GlyphClass: 1
Flags: W
LayerCount: 2
Fore
SplineSet
299 1082 m 1,0,-1
 299 -89 l 2,1,2
 299 -256 299 -256 219 -346.5 c 128,-1,3
 139 -437 139 -437 -3 -437 c 0,4,5
 -33 -437 -33 -437 -59.5 -432 c 128,-1,6
 -86 -427 -86 -427 -115 -418 c 1,7,-1
 -102 -317 l 1,8,9
 -86 -322 -86 -322 -58 -327 c 128,-1,10
 -30 -332 -30 -332 -9 -332 c 0,11,12
 80 -332 80 -332 130 -270.5 c 128,-1,13
 180 -209 180 -209 180 -89 c 2,14,-1
 180 1082 l 1,15,-1
 299 1082 l 1,0,-1
293 1396 m 1,16,-1
 174 1396 l 1,17,-1
 174 1560 l 1,18,-1
 293 1560 l 1,19,-1
 293 1396 l 1,16,-1
EndSplineSet
Validated: 1
Substitution2: "'smcp' Lowercase to Small Capitals lookup 0 subtable" J.smcp
EndChar

StartChar: k
Encoding: 107 107 78
Width: 1006
GlyphClass: 1
Flags: W
LayerCount: 2
Fore
SplineSet
405 527 m 1,0,-1
 279 527 l 1,1,-1
 279 0 l 1,2,-1
 159 0 l 1,3,-1
 159 1560 l 1,4,-1
 279 1560 l 1,5,-1
 279 630 l 1,6,-1
 393 630 l 1,7,-1
 808 1082 l 1,8,-1
 948 1082 l 1,9,-1
 950 1077 l 1,10,-1
 506 586 l 1,11,-1
 986 5 l 1,12,-1
 983 0 l 1,13,-1
 846 0 l 1,14,-1
 405 527 l 1,0,-1
EndSplineSet
Validated: 1
Substitution2: "'smcp' Lowercase to Small Capitals lookup 0 subtable" K.smcp
EndChar

StartChar: l
Encoding: 108 108 79
Width: 465
GlyphClass: 1
Flags: W
LayerCount: 2
Fore
SplineSet
292 0 m 1,0,-1
 173 0 l 1,1,-1
 173 1560 l 1,2,-1
 292 1560 l 1,3,-1
 292 0 l 1,0,-1
EndSplineSet
Validated: 1
Substitution2: "'smcp' Lowercase to Small Capitals lookup 0 subtable" L.smcp
EndChar

StartChar: m
Encoding: 109 109 80
Width: 1815
GlyphClass: 1
Flags: W
LayerCount: 2
Fore
SplineSet
260 1082 m 1,0,-1
 271 904 l 1,1,2
 323 998 323 998 409.5 1050 c 128,-1,3
 496 1102 496 1102 615 1102 c 0,4,5
 739 1102 739 1102 822 1042.5 c 128,-1,6
 905 983 905 983 941 861 c 1,7,8
 990 974 990 974 1080.5 1038 c 128,-1,9
 1171 1102 1171 1102 1299 1102 c 0,10,11
 1472 1102 1472 1102 1566.5 987 c 128,-1,12
 1661 872 1661 872 1661 631 c 2,13,-1
 1661 0 l 1,14,-1
 1541 0 l 1,15,-1
 1541 633 l 2,16,17
 1541 833 1541 833 1470 915.5 c 128,-1,18
 1399 998 1399 998 1274 998 c 0,19,20
 1137 998 1137 998 1062 914.5 c 128,-1,21
 987 831 987 831 967 699 c 0,22,23
 967 688 967 688 967.5 677 c 128,-1,24
 968 666 968 666 968 649 c 2,25,-1
 968 0 l 1,26,-1
 847 0 l 1,27,-1
 847 633 l 2,28,29
 847 829 847 829 775.5 913.5 c 128,-1,30
 704 998 704 998 579 998 c 0,31,32
 453 998 453 998 378.5 934.5 c 128,-1,33
 304 871 304 871 274 763 c 1,34,-1
 274 0 l 1,35,-1
 154 0 l 1,36,-1
 154 1082 l 1,37,-1
 260 1082 l 1,0,-1
EndSplineSet
Validated: 1
Substitution2: "'smcp' Lowercase to Small Capitals lookup 0 subtable" M.smcp
EndChar

StartChar: n
Encoding: 110 110 81
Width: 1140
GlyphClass: 1
Flags: W
LayerCount: 2
Fore
SplineSet
264 1082 m 1,0,-1
 275 894 l 1,1,2
 328 993 328 993 416 1047.5 c 128,-1,3
 504 1102 504 1102 625 1102 c 0,4,5
 801 1102 801 1102 893 994.5 c 128,-1,6
 985 887 985 887 985 659 c 2,7,-1
 985 0 l 1,8,-1
 865 0 l 1,9,-1
 865 658 l 2,10,11
 865 844 865 844 795.5 921 c 128,-1,12
 726 998 726 998 598 998 c 256,13,14
 470 998 470 998 391.5 935 c 128,-1,15
 313 872 313 872 278 766 c 1,16,-1
 278 0 l 1,17,-1
 158 0 l 1,18,-1
 158 1082 l 1,19,-1
 264 1082 l 1,0,-1
EndSplineSet
Validated: 1
Substitution2: "'smcp' Lowercase to Small Capitals lookup 0 subtable" N.smcp
EndChar

StartChar: o
Encoding: 111 111 82
Width: 1140
GlyphClass: 1
Flags: W
LayerCount: 2
Fore
SplineSet
91 557 m 2,0,1
 91 796 91 796 222 949 c 128,-1,2
 353 1102 353 1102 569 1102 c 0,3,4
 786 1102 786 1102 917 949 c 128,-1,5
 1048 796 1048 796 1048 557 c 2,6,-1
 1048 524 l 2,7,8
 1048 284 1048 284 917.5 131.5 c 128,-1,9
 787 -21 787 -21 571 -21 c 0,10,11
 353 -21 353 -21 222 131.5 c 128,-1,12
 91 284 91 284 91 524 c 2,13,-1
 91 557 l 2,0,1
211 524 m 2,14,15
 211 336 211 336 306 208 c 128,-1,16
 401 80 401 80 571 80 c 0,17,18
 738 80 738 80 833.5 208 c 128,-1,19
 929 336 929 336 929 524 c 2,20,-1
 929 557 l 2,21,22
 929 742 929 742 833 871 c 128,-1,23
 737 1000 737 1000 569 1000 c 256,24,25
 401 1000 401 1000 306 871 c 128,-1,26
 211 742 211 742 211 557 c 2,27,-1
 211 524 l 2,14,15
EndSplineSet
Validated: 1
Substitution2: "'smcp' Lowercase to Small Capitals lookup 0 subtable" O.smcp
EndChar

StartChar: p
Encoding: 112 112 83
Width: 1140
GlyphClass: 1
Flags: W
LayerCount: 2
Fore
SplineSet
1029 511 m 2,0,1
 1029 268 1029 268 919 123.5 c 128,-1,2
 809 -21 809 -21 616 -21 c 0,3,4
 503 -21 503 -21 417.5 22 c 128,-1,5
 332 65 332 65 278 144 c 1,6,-1
 278 -416 l 1,7,-1
 158 -416 l 1,8,-1
 158 1082 l 1,9,-1
 250 1082 l 1,10,-1
 272 913 l 1,11,12
 326 1003 326 1003 412 1052.5 c 128,-1,13
 498 1102 498 1102 614 1102 c 0,14,15
 809 1102 809 1102 919 946.5 c 128,-1,16
 1029 791 1029 791 1029 532 c 2,17,-1
 1029 511 l 2,0,1
909 532 m 2,18,19
 909 738 909 738 827 868 c 128,-1,20
 745 998 745 998 587 998 c 0,21,22
 468 998 468 998 392.5 941 c 128,-1,23
 317 884 317 884 278 793 c 1,24,-1
 278 269 l 1,25,26
 320 181 320 181 397 130.5 c 128,-1,27
 474 80 474 80 589 80 c 0,28,29
 746 80 746 80 827.5 198 c 128,-1,30
 909 316 909 316 909 511 c 2,31,-1
 909 532 l 2,18,19
EndSplineSet
Validated: 1
Substitution2: "'smcp' Lowercase to Small Capitals lookup 0 subtable" P.smcp
EndChar

StartChar: q
Encoding: 113 113 84
Width: 1140
GlyphClass: 1
Flags: W
LayerCount: 2
Fore
SplineSet
111 532 m 2,0,1
 111 791 111 791 220.5 946.5 c 128,-1,2
 330 1102 330 1102 526 1102 c 0,3,4
 638 1102 638 1102 721.5 1055 c 128,-1,5
 805 1008 805 1008 859 921 c 1,6,-1
 878 1082 l 1,7,-1
 974 1082 l 1,8,-1
 974 -416 l 1,9,-1
 854 -416 l 1,10,-1
 854 141 l 1,11,12
 799 63 799 63 716 21 c 128,-1,13
 633 -21 633 -21 524 -21 c 0,14,15
 330 -21 330 -21 220.5 123.5 c 128,-1,16
 111 268 111 268 111 511 c 2,17,-1
 111 532 l 2,0,1
231 511 m 2,18,19
 231 315 231 315 309.5 197.5 c 128,-1,20
 388 80 388 80 546 80 c 0,21,22
 657 80 657 80 733.5 129.5 c 128,-1,23
 810 179 810 179 854 266 c 1,24,-1
 854 801 l 1,25,26
 813 890 813 890 738.5 945 c 128,-1,27
 664 1000 664 1000 548 1000 c 0,28,29
 390 1000 390 1000 310.5 869.5 c 128,-1,30
 231 739 231 739 231 532 c 2,31,-1
 231 511 l 2,18,19
EndSplineSet
Validated: 1
Substitution2: "'smcp' Lowercase to Small Capitals lookup 0 subtable" Q.smcp
EndChar

StartChar: r
Encoding: 114 114 85
Width: 699
GlyphClass: 1
Flags: W
LayerCount: 2
Fore
SplineSet
652 979 m 1,0,-1
 567 985 l 1,1,2
 454 985 454 985 381.5 921.5 c 128,-1,3
 309 858 309 858 278 747 c 1,4,-1
 278 0 l 1,5,-1
 158 0 l 1,6,-1
 158 1082 l 1,7,-1
 263 1082 l 1,8,-1
 278 902 l 1,9,-1
 278 890 l 1,10,11
 325 990 325 990 404 1046 c 128,-1,12
 483 1102 483 1102 592 1102 c 0,13,14
 614 1102 614 1102 634 1098.5 c 128,-1,15
 654 1095 654 1095 667 1091 c 1,16,-1
 652 979 l 1,0,-1
EndSplineSet
Validated: 1
Substitution2: "'smcp' Lowercase to Small Capitals lookup 0 subtable" R.smcp
EndChar

StartChar: s
Encoding: 115 115 86
Width: 1043
GlyphClass: 1
Flags: W
LayerCount: 2
Fore
SplineSet
806 277 m 0,0,1
 806 353 806 353 743.5 409.5 c 128,-1,2
 681 466 681 466 518 502 c 0,3,4
 326 542 326 542 232.5 611.5 c 128,-1,5
 139 681 139 681 139 806 c 0,6,7
 139 930 139 930 243.5 1016 c 128,-1,8
 348 1102 348 1102 520 1102 c 0,9,10
 701 1102 701 1102 809 1010.5 c 128,-1,11
 917 919 917 919 912 785 c 1,12,-1
 910 779 l 1,13,-1
 799 779 l 1,14,15
 799 868 799 868 722.5 934 c 128,-1,16
 646 1000 646 1000 520 1000 c 0,17,18
 390 1000 390 1000 324 943 c 128,-1,19
 258 886 258 886 258 810 c 0,20,21
 258 736 258 736 314.5 687.5 c 128,-1,22
 371 639 371 639 540 602 c 0,23,24
 730 560 730 560 827.5 485 c 128,-1,25
 925 410 925 410 925 283 c 0,26,27
 925 148 925 148 815.5 63.5 c 128,-1,28
 706 -21 706 -21 526 -21 c 0,29,30
 329 -21 329 -21 216.5 73 c 128,-1,31
 104 167 104 167 110 297 c 1,32,-1
 112 303 l 1,33,-1
 222 303 l 1,34,35
 229 186 229 186 317.5 133 c 128,-1,36
 406 80 406 80 526 80 c 0,37,38
 656 80 656 80 731 138 c 128,-1,39
 806 196 806 196 806 277 c 0,0,1
EndSplineSet
Validated: 33
Substitution2: "'smcp' Lowercase to Small Capitals lookup 0 subtable" S.smcp
EndChar

StartChar: t
Encoding: 116 116 87
Width: 659
GlyphClass: 1
Flags: W
LayerCount: 2
Fore
SplineSet
345 1359 m 1,0,-1
 345 1082 l 1,1,-1
 583 1082 l 1,2,-1
 583 984 l 1,3,-1
 345 984 l 1,4,-1
 345 279 l 2,5,6
 345 173 345 173 383.5 128.5 c 128,-1,7
 422 84 422 84 486 84 c 0,8,9
 508 84 508 84 528.5 86.5 c 128,-1,10
 549 89 549 89 577 95 c 1,11,-1
 595 6 l 1,12,13
 571 -6 571 -6 535.5 -13.5 c 128,-1,14
 500 -21 500 -21 465 -21 c 0,15,16
 351 -21 351 -21 287.5 51 c 128,-1,17
 224 123 224 123 224 279 c 2,18,-1
 224 984 l 1,19,-1
 37 984 l 1,20,-1
 37 1082 l 1,21,-1
 224 1082 l 1,22,-1
 224 1359 l 1,23,-1
 345 1359 l 1,0,-1
EndSplineSet
Validated: 1
Substitution2: "'smcp' Lowercase to Small Capitals lookup 0 subtable" T.smcp
EndChar

StartChar: u
Encoding: 117 117 88
Width: 1140
GlyphClass: 1
Flags: W
LayerCount: 2
Fore
SplineSet
866 176 m 1,0,1
 814 81 814 81 726.5 30 c 128,-1,2
 639 -21 639 -21 519 -21 c 0,3,4
 348 -21 348 -21 251 95 c 128,-1,5
 154 211 154 211 154 455 c 2,6,-1
 154 1082 l 1,7,-1
 274 1082 l 1,8,-1
 274 453 l 2,9,10
 274 255 274 255 341.5 169 c 128,-1,11
 409 83 409 83 533 83 c 0,12,13
 668 83 668 83 748.5 143.5 c 128,-1,14
 829 204 829 204 862 309 c 1,15,-1
 862 1082 l 1,16,-1
 982 1082 l 1,17,-1
 982 0 l 1,18,-1
 876 0 l 1,19,-1
 866 176 l 1,0,1
EndSplineSet
Validated: 1
Substitution2: "'smcp' Lowercase to Small Capitals lookup 0 subtable" U.smcp
EndChar

StartChar: v
Encoding: 118 118 89
Width: 1002
GlyphClass: 1
Flags: W
LayerCount: 2
Fore
SplineSet
466 271 m 1,0,-1
 501 144 l 1,1,-1
 507 144 l 1,2,-1
 545 271 l 1,3,-1
 839 1082 l 1,4,-1
 963 1082 l 1,5,-1
 552 0 l 1,6,-1
 456 0 l 1,7,-1
 44 1082 l 1,8,-1
 168 1082 l 1,9,-1
 466 271 l 1,0,-1
EndSplineSet
Validated: 1
Substitution2: "'smcp' Lowercase to Small Capitals lookup 0 subtable" V.smcp
EndChar

StartChar: w
Encoding: 119 119 90
Width: 1550
GlyphClass: 1
Flags: W
LayerCount: 2
Fore
SplineSet
391 351 m 1,0,-1
 433 153 l 1,1,-1
 439 153 l 1,2,-1
 489 351 l 1,3,-1
 719 1082 l 1,4,-1
 822 1082 l 1,5,-1
 1052 351 l 1,6,-1
 1102 147 l 1,7,-1
 1108 147 l 1,8,-1
 1155 351 l 1,9,-1
 1348 1082 l 1,10,-1
 1476 1082 l 1,11,-1
 1161 0 l 1,12,-1
 1059 0 l 1,13,-1
 814 740 l 1,14,-1
 771 915 l 1,15,-1
 765 915 l 1,16,-1
 722 740 l 1,17,-1
 482 0 l 1,18,-1
 379 0 l 1,19,-1
 65 1082 l 1,20,-1
 193 1082 l 1,21,-1
 391 351 l 1,0,-1
EndSplineSet
Validated: 1
Substitution2: "'smcp' Lowercase to Small Capitals lookup 0 subtable" W.smcp
EndChar

StartChar: x
Encoding: 120 120 91
Width: 1002
GlyphClass: 1
Flags: W
LayerCount: 2
Fore
SplineSet
498 640 m 1,0,-1
 791 1082 l 1,1,-1
 933 1082 l 1,2,-1
 566 551 l 1,3,-1
 948 0 l 1,4,-1
 808 0 l 1,5,-1
 500 461 l 1,6,-1
 192 0 l 1,7,-1
 50 0 l 1,8,-1
 433 551 l 1,9,-1
 66 1082 l 1,10,-1
 207 1082 l 1,11,-1
 498 640 l 1,0,-1
EndSplineSet
Validated: 1
Substitution2: "'smcp' Lowercase to Small Capitals lookup 0 subtable" X.smcp
EndChar

StartChar: y
Encoding: 121 121 92
Width: 1002
GlyphClass: 1
Flags: W
LayerCount: 2
Fore
SplineSet
465 293 m 1,0,-1
 503 164 l 1,1,-1
 509 164 l 1,2,-1
 836 1082 l 1,3,-1
 970 1082 l 1,4,-1
 500 -173 l 2,5,6
 458 -283 458 -283 391 -360 c 128,-1,7
 324 -437 324 -437 195 -437 c 0,8,9
 174 -437 174 -437 144 -432.5 c 128,-1,10
 114 -428 114 -428 100 -423 c 1,11,-1
 114 -323 l 1,12,13
 126 -325 126 -325 152.5 -327.5 c 128,-1,14
 179 -330 179 -330 191 -330 c 0,15,16
 269 -330 269 -330 316 -274.5 c 128,-1,17
 363 -219 363 -219 396 -132 c 2,18,-1
 453 14 l 1,19,-1
 35 1082 l 1,20,-1
 168 1082 l 1,21,-1
 465 293 l 1,0,-1
EndSplineSet
Validated: 1
Substitution2: "'smcp' Lowercase to Small Capitals lookup 0 subtable" Y.smcp
EndChar

StartChar: z
Encoding: 122 122 93
Width: 1002
GlyphClass: 1
Flags: W
LayerCount: 2
Fore
SplineSet
238 101 m 1,0,-1
 941 101 l 1,1,-1
 941 0 l 1,2,-1
 90 0 l 1,3,-1
 90 88 l 1,4,-1
 742 979 l 1,5,-1
 110 979 l 1,6,-1
 110 1082 l 1,7,-1
 893 1082 l 1,8,-1
 893 993 l 1,9,-1
 238 101 l 1,0,-1
EndSplineSet
Validated: 1
Substitution2: "'smcp' Lowercase to Small Capitals lookup 0 subtable" Z.smcp
EndChar

StartChar: braceleft
Encoding: 123 123 94
Width: 676
GlyphClass: 1
Flags: W
LayerCount: 2
Fore
SplineSet
637 -404 m 1,0,1
 454 -349 454 -349 376.5 -230.5 c 128,-1,2
 299 -112 299 -112 299 58 c 2,3,-1
 299 284 l 2,4,5
 299 406 299 406 242.5 474.5 c 128,-1,6
 186 543 186 543 68 543 c 1,7,-1
 68 647 l 1,8,9
 186 647 186 647 242.5 714 c 128,-1,10
 299 781 299 781 299 904 c 2,11,-1
 299 1132 l 2,12,13
 299 1303 299 1303 376.5 1422.5 c 128,-1,14
 454 1542 454 1542 637 1597 c 1,15,-1
 663 1518 l 1,16,17
 536 1477 536 1477 477.5 1376 c 128,-1,18
 419 1275 419 1275 419 1132 c 2,19,-1
 419 904 l 2,20,21
 419 794 419 794 373.5 713 c 128,-1,22
 328 632 328 632 235 595 c 1,23,24
 328 556 328 556 373.5 474.5 c 128,-1,25
 419 393 419 393 419 284 c 2,26,-1
 419 58 l 2,27,28
 419 -85 419 -85 478.5 -183.5 c 128,-1,29
 538 -282 538 -282 666 -324 c 1,30,-1
 637 -404 l 1,0,1
EndSplineSet
Validated: 1
EndChar

StartChar: bar
Encoding: 124 124 95
Width: 452
GlyphClass: 1
Flags: W
LayerCount: 2
Fore
SplineSet
284 -270 m 1,0,-1
 164 -270 l 1,1,-1
 164 1456 l 1,2,-1
 284 1456 l 1,3,-1
 284 -270 l 1,0,-1
EndSplineSet
Validated: 1
EndChar

StartChar: braceright
Encoding: 125 125 96
Width: 676
GlyphClass: 1
Flags: W
LayerCount: 2
Fore
SplineSet
9 -324 m 1,0,1
 136 -282 136 -282 196 -183.5 c 128,-1,2
 256 -85 256 -85 256 58 c 2,3,-1
 256 284 l 2,4,5
 256 396 256 396 303 477 c 128,-1,6
 350 558 350 558 449 594 c 1,7,8
 350 629 350 629 303 710 c 128,-1,9
 256 791 256 791 256 904 c 2,10,-1
 256 1132 l 2,11,12
 256 1276 256 1276 197.5 1376.5 c 128,-1,13
 139 1477 139 1477 12 1518 c 1,14,-1
 38 1597 l 1,15,16
 220 1542 220 1542 298 1422.5 c 128,-1,17
 376 1303 376 1303 376 1132 c 2,18,-1
 376 904 l 2,19,20
 376 782 376 782 432 714.5 c 128,-1,21
 488 647 488 647 607 647 c 1,22,-1
 607 543 l 1,23,24
 488 543 488 543 432 474.5 c 128,-1,25
 376 406 376 406 376 284 c 2,26,-1
 376 58 l 2,27,28
 376 -112 376 -112 298.5 -230.5 c 128,-1,29
 221 -349 221 -349 38 -404 c 1,30,-1
 9 -324 l 1,0,1
EndSplineSet
Validated: 1
EndChar

StartChar: asciitilde
Encoding: 126 126 97
Width: 1402
GlyphClass: 1
Flags: W
LayerCount: 2
Fore
SplineSet
1257 740 m 1,0,1
 1257 611 1257 611 1176 517 c 128,-1,2
 1095 423 1095 423 974 423 c 0,3,4
 886 423 886 423 813.5 458.5 c 128,-1,5
 741 494 741 494 653 573 c 0,6,7
 589 627 589 627 534.5 653.5 c 128,-1,8
 480 680 480 680 424 680 c 0,9,10
 345 680 345 680 292.5 619.5 c 128,-1,11
 240 559 240 559 240 459 c 1,12,-1
 143 474 l 1,13,14
 143 605 143 605 222 696 c 128,-1,15
 301 787 301 787 424 787 c 0,16,17
 511 787 511 787 584.5 750 c 128,-1,18
 658 713 658 713 747 637 c 0,19,20
 810 580 810 580 863.5 554.5 c 128,-1,21
 917 529 917 529 974 529 c 0,22,23
 1051 529 1051 529 1105 593 c 128,-1,24
 1159 657 1159 657 1159 755 c 1,25,-1
 1257 740 l 1,0,1
EndSplineSet
Validated: 1
EndChar

StartChar: exclamdown
Encoding: 161 161 99
Width: 452
GlyphClass: 1
Flags: W
LayerCount: 2
Fore
SplineSet
276 -374 m 1,0,-1
 156 -374 l 1,1,-1
 156 604 l 1,2,-1
 276 604 l 1,3,-1
 276 -374 l 1,0,-1
287 898 m 1,4,-1
 145 898 l 1,5,-1
 145 1082 l 1,6,-1
 287 1082 l 1,7,-1
 287 898 l 1,4,-1
EndSplineSet
Validated: 1
EndChar

StartChar: cent
Encoding: 162 162 100
Width: 1115
GlyphClass: 1
Flags: W
LayerCount: 2
Fore
SplineSet
554 80 m 0,0,1
 669 80 669 80 757.5 148 c 128,-1,2
 846 216 846 216 846 337 c 1,3,-1
 954 337 l 1,4,-1
 956 332 l 1,5,6
 959 202 959 202 866 107 c 128,-1,7
 773 12 773 12 637 -13 c 1,8,-1
 637 -245 l 1,9,-1
 517 -245 l 1,10,-1
 517 -19 l 1,11,12
 318 -5 318 -5 207.5 144.5 c 128,-1,13
 97 294 97 294 97 520 c 2,14,-1
 97 562 l 2,15,16
 97 787 97 787 207.5 936.5 c 128,-1,17
 318 1086 318 1086 517 1100 c 1,18,-1
 517 1318 l 1,19,-1
 637 1318 l 1,20,-1
 637 1095 l 1,21,22
 780 1070 780 1070 869.5 969 c 128,-1,23
 959 868 959 868 956 720 c 1,24,-1
 954 715 l 1,25,-1
 846 715 l 1,26,27
 846 845 846 845 761 922.5 c 128,-1,28
 676 1000 676 1000 553 1000 c 0,29,30
 383 1000 383 1000 300 875 c 128,-1,31
 217 750 217 750 217 562 c 2,32,-1
 217 520 l 2,33,34
 217 329 217 329 300 204.5 c 128,-1,35
 383 80 383 80 554 80 c 0,0,1
EndSplineSet
Validated: 33
EndChar

StartChar: sterling
Encoding: 163 163 101
Width: 1170
GlyphClass: 1
Flags: W
LayerCount: 2
Fore
SplineSet
393 642 m 1,0,-1
 400 466 l 1,1,2
 400 359 400 359 374.5 262 c 128,-1,3
 349 165 349 165 303 101 c 1,4,-1
 1072 101 l 1,5,-1
 1072 0 l 1,6,-1
 131 0 l 1,7,-1
 131 101 l 1,8,-1
 141 101 l 1,9,10
 211 116 211 116 246 231 c 128,-1,11
 281 346 281 346 281 466 c 1,12,-1
 274 642 l 1,13,-1
 67 642 l 1,14,-1
 67 744 l 1,15,-1
 270 744 l 1,16,-1
 259 1040 l 1,17,18
 259 1244 259 1244 365 1360.5 c 128,-1,19
 471 1477 471 1477 649 1477 c 0,20,21
 836 1477 836 1477 930 1373.5 c 128,-1,22
 1024 1270 1024 1270 1021 1096 c 1,23,-1
 1018 1090 l 1,24,-1
 906 1090 l 1,25,26
 906 1238 906 1238 837.5 1306.5 c 128,-1,27
 769 1375 769 1375 649 1375 c 0,28,29
 524 1375 524 1375 451.5 1287 c 128,-1,30
 379 1199 379 1199 379 1040 c 1,31,-1
 390 744 l 1,32,-1
 840 744 l 1,33,-1
 840 642 l 1,34,-1
 393 642 l 1,0,-1
EndSplineSet
Validated: 33
EndChar

StartChar: currency
Encoding: 164 164 102
Width: 1481
GlyphClass: 1
Flags: W
LayerCount: 2
Fore
SplineSet
1131 133 m 1,0,1
 1051 59 1051 59 950.5 19.5 c 128,-1,2
 850 -20 850 -20 740 -20 c 0,3,4
 629 -20 629 -20 528.5 19.5 c 128,-1,5
 428 59 428 59 349 132 c 1,6,-1
 194 -26 l 1,7,-1
 109 60 l 1,8,-1
 268 221 l 1,9,10
 208 302 208 302 176 400 c 128,-1,11
 144 498 144 498 144 608 c 0,12,13
 144 720 144 720 178.5 822 c 128,-1,14
 213 924 213 924 277 1006 c 1,15,-1
 109 1177 l 1,16,-1
 194 1264 l 1,17,-1
 361 1094 l 1,18,19
 439 1161 439 1161 536 1197.5 c 128,-1,20
 633 1234 633 1234 740 1234 c 0,21,22
 846 1234 846 1234 943 1196.5 c 128,-1,23
 1040 1159 1040 1159 1119 1092 c 1,24,-1
 1289 1265 l 1,25,-1
 1375 1177 l 1,26,-1
 1204 1002 l 1,27,28
 1266 920 1266 920 1300 819.5 c 128,-1,29
 1334 719 1334 719 1334 608 c 0,30,31
 1334 500 1334 500 1302 402 c 128,-1,32
 1270 304 1270 304 1212 224 c 1,33,-1
 1375 60 l 1,34,-1
 1289 -27 l 1,35,-1
 1131 133 l 1,0,1
257 608 m 0,36,37
 257 393 257 393 398.5 242 c 128,-1,38
 540 91 540 91 740 91 c 0,39,40
 938 91 938 91 1079.5 242 c 128,-1,41
 1221 393 1221 393 1221 608 c 0,42,43
 1221 821 1221 821 1079.5 971.5 c 128,-1,44
 938 1122 938 1122 740 1122 c 0,45,46
 540 1122 540 1122 398.5 971.5 c 128,-1,47
 257 821 257 821 257 608 c 0,36,37
EndSplineSet
Validated: 1
EndChar

StartChar: yen
Encoding: 165 165 103
Width: 1223
GlyphClass: 1
Flags: W
LayerCount: 2
Fore
SplineSet
607 733 m 1,0,-1
 1031 1456 l 1,1,-1
 1170 1456 l 1,2,-1
 715 705 l 1,3,-1
 1086 705 l 1,4,-1
 1086 618 l 1,5,-1
 665 618 l 1,6,-1
 665 412 l 1,7,-1
 1086 412 l 1,8,-1
 1086 326 l 1,9,-1
 665 326 l 1,10,-1
 665 0 l 1,11,-1
 546 0 l 1,12,-1
 546 326 l 1,13,-1
 130 326 l 1,14,-1
 130 412 l 1,15,-1
 546 412 l 1,16,-1
 546 618 l 1,17,-1
 130 618 l 1,18,-1
 130 705 l 1,19,-1
 500 705 l 1,20,-1
 45 1456 l 1,21,-1
 184 1456 l 1,22,-1
 607 733 l 1,0,-1
EndSplineSet
Validated: 1
EndChar

StartChar: brokenbar
Encoding: 166 166 104
Width: 444
GlyphClass: 1
Flags: W
LayerCount: 2
Fore
SplineSet
159 -270 m 1,0,-1
 159 501 l 1,1,-1
 279 501 l 1,2,-1
 279 -270 l 1,3,-1
 159 -270 l 1,0,-1
279 698 m 1,4,-1
 159 698 l 1,5,-1
 159 1456 l 1,6,-1
 279 1456 l 1,7,-1
 279 698 l 1,4,-1
EndSplineSet
Validated: 1
EndChar

StartChar: section
Encoding: 167 167 105
Width: 1239
GlyphClass: 1
Flags: W
LayerCount: 2
Fore
SplineSet
1119 431 m 0,0,1
 1119 333 1119 333 1058 262.5 c 128,-1,2
 997 192 997 192 887 159 c 1,3,4
 981 109 981 109 1028 38.5 c 128,-1,5
 1075 -32 1075 -32 1075 -139 c 0,6,7
 1075 -305 1075 -305 947.5 -400 c 128,-1,8
 820 -495 820 -495 606 -495 c 0,9,10
 393 -495 393 -495 248 -392.5 c 128,-1,11
 103 -290 103 -290 108 -70 c 1,12,-1
 110 -64 l 1,13,-1
 222 -62 l 1,14,15
 222 -235 222 -235 335 -314 c 128,-1,16
 448 -393 448 -393 606 -393 c 0,17,18
 769 -393 769 -393 861.5 -322.5 c 128,-1,19
 954 -252 954 -252 954 -141 c 0,20,21
 954 -35 954 -35 877 25 c 128,-1,22
 800 85 800 85 585 146 c 1,23,24
 342 207 342 207 225 295.5 c 128,-1,25
 108 384 108 384 108 551 c 0,26,27
 108 649 108 649 166.5 720 c 128,-1,28
 225 791 225 791 331 825 c 1,29,30
 241 874 241 874 197 944.5 c 128,-1,31
 153 1015 153 1015 153 1120 c 0,32,33
 153 1281 153 1281 281 1379 c 128,-1,34
 409 1477 409 1477 624 1477 c 0,35,36
 846 1477 846 1477 970.5 1365.5 c 128,-1,37
 1095 1254 1095 1254 1091 1052 c 1,38,-1
 1089 1046 l 1,39,-1
 977 1046 l 1,40,41
 977 1187 977 1187 883 1281 c 128,-1,42
 789 1375 789 1375 624 1375 c 0,43,44
 451 1375 451 1375 362 1304 c 128,-1,45
 273 1233 273 1233 273 1123 c 0,46,47
 273 1009 273 1009 347 950 c 128,-1,48
 421 891 421 891 646 828 c 0,49,50
 893 763 893 763 1006 679.5 c 128,-1,51
 1119 596 1119 596 1119 431 c 0,0,1
596 729 m 0,52,53
 556 738 556 738 520.5 748.5 c 128,-1,54
 485 759 485 759 454 771 c 1,55,56
 342 757 342 757 285 698 c 128,-1,57
 228 639 228 639 228 553 c 0,58,59
 228 437 228 437 307 378 c 128,-1,60
 386 319 386 319 630 251 c 0,61,62
 664 241 664 241 695 232 c 128,-1,63
 726 223 726 223 755 214 c 1,64,65
 870 227 870 227 934.5 285.5 c 128,-1,66
 999 344 999 344 999 428 c 0,67,68
 999 536 999 536 914 598.5 c 128,-1,69
 829 661 829 661 596 729 c 0,52,53
EndSplineSet
Validated: 33
EndChar

StartChar: dieresis
Encoding: 168 168 106
Width: 959
GlyphClass: 1
Flags: W
LayerCount: 2
Fore
SplineSet
805 1299 m 1,0,-1
 632 1299 l 1,1,-1
 632 1456 l 1,2,-1
 805 1456 l 1,3,-1
 805 1299 l 1,0,-1
336 1299 m 1,4,-1
 162 1299 l 1,5,-1
 162 1456 l 1,6,-1
 336 1456 l 1,7,-1
 336 1299 l 1,4,-1
EndSplineSet
Validated: 1
EndChar

StartChar: copyright
Encoding: 169 169 107
Width: 1637
GlyphClass: 1
Flags: W
LayerCount: 2
Fore
SplineSet
1113 596 m 1,0,-1
 1115 590 l 1,1,2
 1119 440 1119 440 1036.5 361 c 128,-1,3
 954 282 954 282 807 282 c 0,4,5
 656 282 656 282 565 388.5 c 128,-1,6
 474 495 474 495 474 669 c 2,7,-1
 474 788 l 2,8,9
 474 960 474 960 565 1067.5 c 128,-1,10
 656 1175 656 1175 807 1175 c 0,11,12
 954 1175 954 1175 1037 1096 c 128,-1,13
 1120 1017 1120 1017 1116 868 c 1,14,-1
 1114 862 l 1,15,-1
 1023 862 l 1,16,17
 1023 975 1023 975 968 1030 c 128,-1,18
 913 1085 913 1085 807 1085 c 0,19,20
 697 1085 697 1085 635 1001.5 c 128,-1,21
 573 918 573 918 573 789 c 2,22,-1
 573 669 l 2,23,24
 573 537 573 537 634.5 454.5 c 128,-1,25
 696 372 696 372 807 372 c 0,26,27
 914 372 914 372 968 426 c 128,-1,28
 1022 480 1022 480 1022 596 c 1,29,-1
 1113 596 l 1,0,-1
192 729 m 0,30,31
 192 450 192 450 374.5 257.5 c 128,-1,32
 557 65 557 65 817 65 c 0,33,34
 1074 65 1074 65 1257.5 257.5 c 128,-1,35
 1441 450 1441 450 1441 729 c 0,36,37
 1441 1006 1441 1006 1258 1197.5 c 128,-1,38
 1075 1389 1075 1389 817 1389 c 0,39,40
 557 1389 557 1389 374.5 1197.5 c 128,-1,41
 192 1006 192 1006 192 729 c 0,30,31
107 729 m 0,42,43
 107 1044 107 1044 314 1260 c 128,-1,44
 521 1476 521 1476 817 1476 c 0,45,46
 1112 1476 1112 1476 1319 1260 c 128,-1,47
 1526 1044 1526 1044 1526 729 c 0,48,49
 1526 413 1526 413 1318.5 196 c 128,-1,50
 1111 -21 1111 -21 817 -21 c 0,51,52
 521 -21 521 -21 314 196 c 128,-1,53
 107 413 107 413 107 729 c 0,42,43
EndSplineSet
Validated: 33
EndChar

StartChar: ordfeminine
Encoding: 170 170 108
Width: 906
GlyphClass: 1
Flags: W
LayerCount: 2
Fore
SplineSet
649 706 m 1,0,1
 640 731 640 731 634.5 758.5 c 128,-1,2
 629 786 629 786 627 814 c 1,3,4
 590 761 590 761 528.5 726.5 c 128,-1,5
 467 692 467 692 384 692 c 0,6,7
 265 692 265 692 200 753 c 128,-1,8
 135 814 135 814 135 920 c 0,9,10
 135 1025 135 1025 214 1083 c 128,-1,11
 293 1141 293 1141 443 1141 c 2,12,-1
 625 1141 l 1,13,-1
 625 1202 l 2,14,15
 625 1287 625 1287 584 1333.5 c 128,-1,16
 543 1380 543 1380 464 1380 c 0,17,18
 372 1380 372 1380 321.5 1342.5 c 128,-1,19
 271 1305 271 1305 271 1234 c 1,20,-1
 172 1243 l 1,21,-1
 170 1249 l 1,22,23
 165 1347 165 1347 247 1412 c 128,-1,24
 329 1477 329 1477 464 1477 c 0,25,26
 587 1477 587 1477 660.5 1405.5 c 128,-1,27
 734 1334 734 1334 734 1201 c 2,28,-1
 734 887 l 2,29,30
 734 839 734 839 740 794.5 c 128,-1,31
 746 750 746 750 760 706 c 1,32,-1
 649 706 l 1,0,1
404 787 m 0,33,34
 474 787 474 787 539.5 825 c 128,-1,35
 605 863 605 863 625 910 c 1,36,-1
 625 1057 l 1,37,-1
 444 1057 l 2,38,39
 348 1057 348 1057 295.5 1018.5 c 128,-1,40
 243 980 243 980 243 924 c 0,41,42
 243 858 243 858 282.5 822.5 c 128,-1,43
 322 787 322 787 404 787 c 0,33,34
EndSplineSet
Validated: 33
EndChar

StartChar: logicalnot
Encoding: 172 172 110
Width: 1117
GlyphClass: 1
Flags: W
LayerCount: 2
Fore
SplineSet
936 386 m 1,0,-1
 816 386 l 1,1,-1
 816 670 l 1,2,-1
 124 670 l 1,3,-1
 124 776 l 1,4,-1
 936 776 l 1,5,-1
 936 386 l 1,0,-1
EndSplineSet
Validated: 1
EndChar

StartChar: registered
Encoding: 174 174 112
Width: 1642
GlyphClass: 1
Flags: W
LayerCount: 2
Fore
SplineSet
102 729 m 0,0,1
 102 1044 102 1044 309 1260 c 128,-1,2
 516 1476 516 1476 812 1476 c 0,3,4
 1107 1476 1107 1476 1314.5 1260 c 128,-1,5
 1522 1044 1522 1044 1522 729 c 0,6,7
 1522 413 1522 413 1314.5 196 c 128,-1,8
 1107 -21 1107 -21 812 -21 c 0,9,10
 516 -21 516 -21 309 196 c 128,-1,11
 102 413 102 413 102 729 c 0,0,1
187 729 m 0,12,13
 187 450 187 450 370 257.5 c 128,-1,14
 553 65 553 65 812 65 c 0,15,16
 1070 65 1070 65 1253 257.5 c 128,-1,17
 1436 450 1436 450 1436 729 c 0,18,19
 1436 1006 1436 1006 1253 1197.5 c 128,-1,20
 1070 1389 1070 1389 812 1389 c 0,21,22
 553 1389 553 1389 370 1197.5 c 128,-1,23
 187 1006 187 1006 187 729 c 0,12,13
650 672 m 1,24,-1
 650 316 l 1,25,-1
 552 316 l 1,26,-1
 552 1166 l 1,27,-1
 810 1166 l 2,28,29
 957 1166 957 1166 1036 1103 c 128,-1,30
 1115 1040 1115 1040 1115 918 c 0,31,32
 1115 850 1115 850 1078.5 800.5 c 128,-1,33
 1042 751 1042 751 974 721 c 1,34,35
 1042 696 1042 696 1072 643 c 128,-1,36
 1102 590 1102 590 1102 515 c 2,37,-1
 1102 459 l 2,38,39
 1102 419 1102 419 1106 386 c 128,-1,40
 1110 353 1110 353 1119 332 c 1,41,-1
 1119 316 l 1,42,-1
 1017 316 l 1,43,44
 1007 337 1007 337 1005 377.5 c 128,-1,45
 1003 418 1003 418 1003 460 c 2,46,-1
 1003 514 l 2,47,48
 1003 598 1003 598 965 635 c 128,-1,49
 927 672 927 672 838 672 c 2,50,-1
 650 672 l 1,24,-1
650 763 m 1,51,-1
 831 763 l 2,52,53
 910 763 910 763 963.5 803.5 c 128,-1,54
 1017 844 1017 844 1017 916 c 0,55,56
 1017 1001 1017 1001 971 1038 c 128,-1,57
 925 1075 925 1075 810 1075 c 2,58,-1
 650 1075 l 1,59,-1
 650 763 l 1,51,-1
EndSplineSet
Validated: 1
EndChar

StartChar: macron
Encoding: 175 175 113
AltUni2: 0002c9.ffffffff.0 0002c9.ffffffff.0
Width: 874
GlyphClass: 1
Flags: W
LayerCount: 2
Fore
SplineSet
776 1359 m 1,0,-1
 106 1359 l 1,1,-1
 106 1456 l 1,2,-1
 776 1456 l 1,3,-1
 776 1359 l 1,0,-1
EndSplineSet
Validated: 1
EndChar

StartChar: degree
Encoding: 176 176 114
Width: 774
GlyphClass: 1
Flags: W
LayerCount: 2
Fore
SplineSet
143 1227 m 0,0,1
 143 1329 143 1329 215 1403 c 128,-1,2
 287 1477 287 1477 388 1477 c 0,3,4
 487 1477 487 1477 558.5 1403 c 128,-1,5
 630 1329 630 1329 630 1227 c 0,6,7
 630 1123 630 1123 559 1051.5 c 128,-1,8
 488 980 488 980 388 980 c 0,9,10
 287 980 287 980 215 1052 c 128,-1,11
 143 1124 143 1124 143 1227 c 0,0,1
233 1227 m 0,12,13
 233 1159 233 1159 277.5 1115 c 128,-1,14
 322 1071 322 1071 388 1071 c 0,15,16
 453 1071 453 1071 496.5 1115 c 128,-1,17
 540 1159 540 1159 540 1227 c 256,18,19
 540 1295 540 1295 496.5 1340.5 c 128,-1,20
 453 1386 453 1386 388 1386 c 0,21,22
 322 1386 322 1386 277.5 1340 c 128,-1,23
 233 1294 233 1294 233 1227 c 0,12,13
EndSplineSet
Validated: 1
EndChar

StartChar: plusminus
Encoding: 177 177 115
Width: 1086
GlyphClass: 1
Flags: W
LayerCount: 2
Fore
SplineSet
609 829 m 1,0,-1
 1001 829 l 1,1,-1
 1001 728 l 1,2,-1
 609 728 l 1,3,-1
 609 289 l 1,4,-1
 499 289 l 1,5,-1
 499 728 l 1,6,-1
 85 728 l 1,7,-1
 85 829 l 1,8,-1
 499 829 l 1,9,-1
 499 1267 l 1,10,-1
 609 1267 l 1,11,-1
 609 829 l 1,0,-1
968 42 m 1,12,-1
 133 42 l 1,13,-1
 133 144 l 1,14,-1
 968 144 l 1,15,-1
 968 42 l 1,12,-1
EndSplineSet
Validated: 1
EndChar

StartChar: twosuperior
Encoding: 178 178 116
Width: 835
GlyphClass: 1
Flags: W
LayerCount: 2
Fore
SplineSet
687 667 m 1,0,-1
 118 667 l 1,1,-1
 118 757 l 1,2,-1
 433 1039 l 2,3,4
 510 1110 510 1110 537 1154.5 c 128,-1,5
 564 1199 564 1199 564 1246 c 0,6,7
 564 1310 564 1310 525 1349 c 128,-1,8
 486 1388 486 1388 407 1388 c 0,9,10
 320 1388 320 1388 273 1346 c 128,-1,11
 226 1304 226 1304 226 1238 c 1,12,-1
 126 1238 l 1,13,-1
 124 1244 l 1,14,15
 118 1341 118 1341 196.5 1410 c 128,-1,16
 275 1479 275 1479 407 1479 c 0,17,18
 531 1479 531 1479 602 1418.5 c 128,-1,19
 673 1358 673 1358 673 1245 c 0,20,21
 673 1170 673 1170 626 1109 c 128,-1,22
 579 1048 579 1048 476 951 c 1,23,-1
 262 763 l 1,24,-1
 264 757 l 1,25,-1
 687 757 l 1,26,-1
 687 667 l 1,0,-1
EndSplineSet
Validated: 33
EndChar

StartChar: threesuperior
Encoding: 179 179 117
Width: 852
GlyphClass: 1
Flags: W
LayerCount: 2
Fore
SplineSet
695 1253 m 0,0,1
 695 1195 695 1195 659.5 1148 c 128,-1,2
 624 1101 624 1101 561 1076 c 1,3,4
 633 1054 633 1054 671 1005.5 c 128,-1,5
 709 957 709 957 709 886 c 0,6,7
 709 777 709 777 625.5 716 c 128,-1,8
 542 655 542 655 409 655 c 0,9,10
 288 655 288 655 201.5 713.5 c 128,-1,11
 115 772 115 772 120 882 c 1,12,-1
 122 888 l 1,13,-1
 223 888 l 1,14,15
 223 825 223 825 274 785 c 128,-1,16
 325 745 325 745 409 745 c 0,17,18
 499 745 499 745 549.5 783 c 128,-1,19
 600 821 600 821 600 886 c 0,20,21
 600 961 600 961 553.5 995.5 c 128,-1,22
 507 1030 507 1030 414 1030 c 2,23,-1
 292 1030 l 1,24,-1
 292 1119 l 1,25,-1
 414 1119 l 2,26,27
 502 1119 502 1119 544.5 1154 c 128,-1,28
 587 1189 587 1189 587 1253 c 0,29,30
 587 1312 587 1312 542 1349.5 c 128,-1,31
 497 1387 497 1387 409 1387 c 0,32,33
 334 1387 334 1387 284.5 1351.5 c 128,-1,34
 235 1316 235 1316 235 1258 c 1,35,-1
 136 1258 l 1,36,-1
 134 1264 l 1,37,38
 128 1358 128 1358 208.5 1418 c 128,-1,39
 289 1478 289 1478 409 1478 c 0,40,41
 541 1478 541 1478 618 1419.5 c 128,-1,42
 695 1361 695 1361 695 1253 c 0,0,1
EndSplineSet
Validated: 33
EndChar

StartChar: acute
Encoding: 180 180 118
Width: 576
GlyphClass: 1
Flags: W
LayerCount: 2
Fore
SplineSet
328 1518 m 1,0,-1
 475 1518 l 1,1,-1
 478 1512 l 1,2,-1
 229 1252 l 1,3,-1
 122 1252 l 1,4,-1
 328 1518 l 1,0,-1
EndSplineSet
Validated: 1
EndChar

StartChar: mu
Encoding: 181 181 119
Width: 1140
GlyphClass: 1
Flags: W
LayerCount: 2
Fore
SplineSet
281 1082 m 1,0,-1
 281 449 l 2,1,2
 281 242 281 242 352 161 c 128,-1,3
 423 80 423 80 544 80 c 0,4,5
 681 80 681 80 756 139.5 c 128,-1,6
 831 199 831 199 859 310 c 1,7,-1
 859 1082 l 1,8,-1
 979 1082 l 1,9,-1
 979 0 l 1,10,-1
 876 0 l 1,11,-1
 865 155 l 1,12,13
 817 70 817 70 739 24.5 c 128,-1,14
 661 -21 661 -21 552 -21 c 0,15,16
 464 -21 464 -21 395 9 c 128,-1,17
 326 39 326 39 281 105 c 1,18,-1
 281 -416 l 1,19,-1
 162 -416 l 1,20,-1
 162 1082 l 1,21,-1
 281 1082 l 1,0,-1
EndSplineSet
Validated: 1
EndChar

StartChar: paragraph
Encoding: 182 182 120
Width: 973
GlyphClass: 1
Flags: W
LayerCount: 2
Fore
SplineSet
680 0 m 1,0,-1
 680 520 l 1,1,-1
 574 520 l 2,2,3
 341 520 341 520 211.5 649.5 c 128,-1,4
 82 779 82 779 82 988 c 0,5,6
 82 1195 82 1195 211.5 1325.5 c 128,-1,7
 341 1456 341 1456 574 1456 c 2,8,-1
 800 1456 l 1,9,-1
 800 0 l 1,10,-1
 680 0 l 1,0,-1
EndSplineSet
Validated: 1
EndChar

StartChar: periodcentered
Encoding: 183 183 121
Width: 503
GlyphClass: 1
Flags: W
LayerCount: 2
Fore
SplineSet
321 624 m 1,0,-1
 166 624 l 1,1,-1
 166 804 l 1,2,-1
 321 804 l 1,3,-1
 321 624 l 1,0,-1
EndSplineSet
Validated: 1
EndChar

StartChar: cedilla
Encoding: 184 184 122
Width: 498
GlyphClass: 1
Flags: W
LayerCount: 2
Fore
SplineSet
246 0 m 1,0,-1
 234 -64 l 1,1,2
 313 -73 313 -73 361.5 -112.5 c 128,-1,3
 410 -152 410 -152 410 -235 c 0,4,5
 410 -326 410 -326 331 -380.5 c 128,-1,6
 252 -435 252 -435 105 -435 c 1,7,-1
 98 -357 l 1,8,9
 188 -357 188 -357 249.5 -326.5 c 128,-1,10
 311 -296 311 -296 311 -237 c 0,11,12
 311 -180 311 -180 269.5 -157.5 c 128,-1,13
 228 -135 228 -135 124 -127 c 1,14,-1
 153 0 l 1,15,-1
 246 0 l 1,0,-1
EndSplineSet
Validated: 1
EndChar

StartChar: onesuperior
Encoding: 185 185 123
Width: 511
GlyphClass: 1
Flags: W
LayerCount: 2
Fore
SplineSet
345 665 m 1,0,-1
 236 665 l 1,1,-1
 236 1368 l 1,2,-1
 88 1361 l 1,3,-1
 88 1454 l 1,4,-1
 345 1477 l 1,5,-1
 345 665 l 1,0,-1
EndSplineSet
Validated: 1
EndChar

StartChar: ordmasculine
Encoding: 186 186 124
Width: 922
GlyphClass: 1
Flags: W
LayerCount: 2
Fore
SplineSet
135 1142 m 2,0,1
 135 1290 135 1290 222.5 1383.5 c 128,-1,2
 310 1477 310 1477 458 1477 c 256,3,4
 606 1477 606 1477 694 1383.5 c 128,-1,5
 782 1290 782 1290 782 1142 c 2,6,-1
 782 1025 l 2,7,8
 782 876 782 876 694.5 783.5 c 128,-1,9
 607 691 607 691 460 691 c 0,10,11
 311 691 311 691 223 783.5 c 128,-1,12
 135 876 135 876 135 1025 c 2,13,-1
 135 1142 l 2,0,1
243 1025 m 2,14,15
 243 918 243 918 297.5 852 c 128,-1,16
 352 786 352 786 460 786 c 0,17,18
 563 786 563 786 618.5 852.5 c 128,-1,19
 674 919 674 919 674 1025 c 2,20,-1
 674 1142 l 2,21,22
 674 1246 674 1246 618 1313 c 128,-1,23
 562 1380 562 1380 458 1380 c 256,24,25
 354 1380 354 1380 298.5 1313 c 128,-1,26
 243 1246 243 1246 243 1142 c 2,27,-1
 243 1025 l 2,14,15
EndSplineSet
Validated: 1
EndChar

StartChar: questiondown
Encoding: 191 191 129
Width: 958
GlyphClass: 1
Flags: W
LayerCount: 2
Fore
SplineSet
572 678 m 1,0,1
 570 547 570 547 548.5 495 c 128,-1,2
 527 443 527 443 435 359 c 1,3,4
 326 246 326 246 277 170.5 c 128,-1,5
 228 95 228 95 228 -19 c 0,6,7
 228 -147 228 -147 295.5 -217 c 128,-1,8
 363 -287 363 -287 490 -287 c 0,9,10
 607 -287 607 -287 679 -218.5 c 128,-1,11
 751 -150 751 -150 753 -33 c 1,12,-1
 865 -33 l 1,13,-1
 867 -39 l 1,14,15
 869 -204 869 -204 762 -299 c 128,-1,16
 655 -394 655 -394 490 -394 c 0,17,18
 310 -394 310 -394 209 -293 c 128,-1,19
 108 -192 108 -192 108 -20 c 0,20,21
 108 113 108 113 174 217.5 c 128,-1,22
 240 322 240 322 363 437 c 0,23,24
 424 489 424 489 438 535.5 c 128,-1,25
 452 582 452 582 452 678 c 1,26,-1
 572 678 l 1,0,1
436 1083 m 1,27,-1
 575 1083 l 1,28,-1
 575 928 l 1,29,-1
 436 928 l 1,30,-1
 436 1083 l 1,27,-1
EndSplineSet
Validated: 33
EndChar

StartChar: AE
Encoding: 198 198 136
Width: 1900
GlyphClass: 1
Flags: W
LayerCount: 2
Fore
SplineSet
1839 0 m 1,0,-1
 1022 0 l 1,1,-1
 1005 389 l 1,2,-1
 408 389 l 1,3,-1
 179 0 l 1,4,-1
 33 0 l 1,5,-1
 914 1456 l 1,6,-1
 1778 1456 l 1,7,-1
 1778 1354 l 1,8,-1
 1084 1354 l 1,9,-1
 1107 809 l 1,10,-1
 1696 809 l 1,11,-1
 1696 707 l 1,12,-1
 1111 707 l 1,13,-1
 1137 101 l 1,14,-1
 1839 101 l 1,15,-1
 1839 0 l 1,0,-1
475 502 m 1,16,-1
 1001 502 l 1,17,-1
 966 1341 l 1,18,-1
 960 1342 l 1,19,-1
 945 1298 l 1,20,-1
 475 502 l 1,16,-1
EndSplineSet
Validated: 1
EndChar

StartChar: Eth
Encoding: 208 208 146
Width: 1378
GlyphClass: 1
Flags: W
LayerCount: 2
Fore
SplineSet
186 0 m 1,0,-1
 186 689 l 1,1,-1
 33 689 l 1,2,-1
 33 791 l 1,3,-1
 186 791 l 1,4,-1
 186 1456 l 1,5,-1
 630 1456 l 2,6,7
 897 1456 897 1456 1071.5 1278 c 128,-1,8
 1246 1100 1246 1100 1246 821 c 2,9,-1
 1246 634 l 2,10,11
 1246 355 1246 355 1071.5 177.5 c 128,-1,12
 897 0 897 0 630 0 c 2,13,-1
 186 0 l 1,0,-1
645 689 m 1,14,-1
 306 689 l 1,15,-1
 306 101 l 1,16,-1
 630 101 l 2,17,18
 846 101 846 101 986 252 c 128,-1,19
 1126 403 1126 403 1126 634 c 2,20,-1
 1126 824 l 2,21,22
 1126 1052 1126 1052 985.5 1203 c 128,-1,23
 845 1354 845 1354 630 1354 c 2,24,-1
 306 1354 l 1,25,-1
 306 791 l 1,26,-1
 645 791 l 1,27,-1
 645 689 l 1,14,-1
EndSplineSet
Validated: 1
Substitution2: "'smcp' Lowercase to Small Capitals lookup 0 subtable" Eth.smcp
EndChar

StartChar: multiply
Encoding: 215 215 153
Width: 1072
GlyphClass: 1
Flags: W
LayerCount: 2
Fore
SplineSet
93 318 m 1,0,-1
 451 683 l 1,1,-1
 108 1033 l 1,2,-1
 187 1113 l 1,3,-1
 529 763 l 1,4,-1
 872 1113 l 1,5,-1
 951 1033 l 1,6,-1
 608 683 l 1,7,-1
 966 318 l 1,8,-1
 887 239 l 1,9,-1
 529 603 l 1,10,-1
 172 239 l 1,11,-1
 93 318 l 1,0,-1
EndSplineSet
Validated: 1
EndChar

StartChar: Oslash
Encoding: 216 216 154
Width: 1379
GlyphClass: 1
Flags: W
LayerCount: 2
Fore
SplineSet
1254 609 m 2,0,1
 1254 327 1254 327 1099.5 153 c 128,-1,2
 945 -21 945 -21 685 -21 c 0,3,4
 593 -21 593 -21 513.5 2.5 c 128,-1,5
 434 26 434 26 369 71 c 1,6,-1
 273 -84 l 1,7,-1
 169 -84 l 1,8,-1
 300 128 l 1,9,10
 214 212 214 212 169 335.5 c 128,-1,11
 124 459 124 459 124 609 c 2,12,-1
 124 846 l 2,13,14
 124 1127 124 1127 276 1302 c 128,-1,15
 428 1477 428 1477 684 1477 c 0,16,17
 793 1477 793 1477 885.5 1444 c 128,-1,18
 978 1411 978 1411 1051 1349 c 1,19,-1
 1147 1505 l 1,20,-1
 1251 1505 l 1,21,-1
 1115 1283 l 1,22,23
 1182 1199 1182 1199 1218 1087.5 c 128,-1,24
 1254 976 1254 976 1254 846 c 2,25,-1
 1254 609 l 2,0,1
244 609 m 2,26,27
 244 491 244 491 273.5 394.5 c 128,-1,28
 303 298 303 298 359 234 c 1,29,-1
 365 233 l 1,30,-1
 992 1254 l 1,31,32
 934 1311 934 1311 856.5 1341.5 c 128,-1,33
 779 1372 779 1372 684 1372 c 0,34,35
 476 1372 476 1372 360 1228 c 128,-1,36
 244 1084 244 1084 244 848 c 2,37,-1
 244 609 l 2,26,27
1135 848 m 2,38,39
 1135 945 1135 945 1113.5 1028.5 c 128,-1,40
 1092 1112 1092 1112 1053 1173 c 1,41,-1
 1047 1173 l 1,42,-1
 426 164 l 1,43,44
 477 124 477 124 542.5 103.5 c 128,-1,45
 608 83 608 83 685 83 c 0,46,47
 898 83 898 83 1016.5 226.5 c 128,-1,48
 1135 370 1135 370 1135 609 c 2,49,-1
 1135 848 l 2,38,39
EndSplineSet
Validated: 1
EndChar

StartChar: Thorn
Encoding: 222 222 160
Width: 1214
GlyphClass: 1
Flags: W
LayerCount: 2
Fore
SplineSet
303 1456 m 1,0,-1
 303 1152 l 1,1,-1
 627 1152 l 2,2,3
 848 1152 848 1152 972 1036.5 c 128,-1,4
 1096 921 1096 921 1096 738 c 0,5,6
 1096 553 1096 553 972 438.5 c 128,-1,7
 848 324 848 324 627 324 c 2,8,-1
 303 324 l 1,9,-1
 303 0 l 1,10,-1
 183 0 l 1,11,-1
 183 1456 l 1,12,-1
 303 1456 l 1,0,-1
303 1051 m 1,13,-1
 303 425 l 1,14,-1
 627 425 l 2,15,16
 800 425 800 425 888 517 c 128,-1,17
 976 609 976 609 976 736 c 0,18,19
 976 866 976 866 888 958.5 c 128,-1,20
 800 1051 800 1051 627 1051 c 2,21,-1
 303 1051 l 1,13,-1
EndSplineSet
Validated: 1
EndChar

StartChar: germandbls
Encoding: 223 223 161
Width: 1200
GlyphClass: 1
Flags: W
LayerCount: 2
Fore
SplineSet
271 0 m 1,0,-1
 151 0 l 1,1,-1
 151 1082 l 2,2,3
 151 1286 151 1286 253.5 1399 c 128,-1,4
 356 1512 356 1512 527 1512 c 0,5,6
 667 1512 667 1512 759 1432.5 c 128,-1,7
 851 1353 851 1353 851 1210 c 0,8,9
 851 1101 851 1101 789.5 994.5 c 128,-1,10
 728 888 728 888 728 810 c 0,11,12
 728 724 728 724 912 582 c 128,-1,13
 1096 440 1096 440 1096 295 c 0,14,15
 1096 142 1096 142 986 60.5 c 128,-1,16
 876 -21 876 -21 720 -21 c 0,17,18
 634 -21 634 -21 543.5 2.5 c 128,-1,19
 453 26 453 26 414 59 c 1,20,-1
 448 160 l 1,21,22
 489 129 489 129 562.5 104.5 c 128,-1,23
 636 80 636 80 706 80 c 0,24,25
 831 80 831 80 903.5 140 c 128,-1,26
 976 200 976 200 976 295 c 0,27,28
 976 394 976 394 792 535.5 c 128,-1,29
 608 677 608 677 608 812 c 0,30,31
 608 905 608 905 671 1013.5 c 128,-1,32
 734 1122 734 1122 734 1204 c 0,33,34
 734 1296 734 1296 674 1353.5 c 128,-1,35
 614 1411 614 1411 537 1411 c 0,36,37
 416 1411 416 1411 343.5 1325.5 c 128,-1,38
 271 1240 271 1240 271 1082 c 2,39,-1
 271 0 l 1,0,-1
EndSplineSet
Validated: 1
Substitution2: "'smcp' Lowercase to Small Capitals lookup 0 subtable" germandbls.smcp
EndChar

StartChar: ae
Encoding: 230 230 168
Width: 1796
GlyphClass: 1
Flags: W
LayerCount: 2
Fore
SplineSet
1295 -21 m 0,0,1
 1157 -21 1157 -21 1054 34.5 c 128,-1,2
 951 90 951 90 891 192 c 1,3,4
 842 105 842 105 731.5 42 c 128,-1,5
 621 -21 621 -21 462 -21 c 0,6,7
 292 -21 292 -21 199.5 63.5 c 128,-1,8
 107 148 107 148 107 293 c 0,9,10
 107 440 107 440 220 524.5 c 128,-1,11
 333 609 333 609 546 609 c 2,12,-1
 808 609 l 1,13,-1
 808 720 l 2,14,15
 808 853 808 853 745 926.5 c 128,-1,16
 682 1000 682 1000 563 1000 c 0,17,18
 433 1000 433 1000 358 933 c 128,-1,19
 283 866 283 866 283 765 c 1,20,-1
 172 777 l 1,21,-1
 170 783 l 1,22,23
 165 921 165 921 273.5 1011.5 c 128,-1,24
 382 1102 382 1102 563 1102 c 0,25,26
 684 1102 684 1102 771.5 1048 c 128,-1,27
 859 994 859 994 899 891 c 1,28,29
 960 990 960 990 1055.5 1046 c 128,-1,30
 1151 1102 1151 1102 1265 1102 c 0,31,32
 1465 1102 1465 1102 1576.5 978 c 128,-1,33
 1688 854 1688 854 1688 638 c 2,34,-1
 1688 538 l 1,35,-1
 934 538 l 1,36,-1
 934 509 l 2,37,38
 934 318 934 318 1023.5 199 c 128,-1,39
 1113 80 1113 80 1295 80 c 0,40,41
 1398 80 1398 80 1476.5 112.5 c 128,-1,42
 1555 145 1555 145 1619 199 c 1,43,-1
 1666 112 l 1,44,45
 1606 57 1606 57 1517.5 18 c 128,-1,46
 1429 -21 1429 -21 1295 -21 c 0,0,1
479 79 m 0,47,48
 581 79 581 79 676.5 132.5 c 128,-1,49
 772 186 772 186 808 248 c 1,50,-1
 808 512 l 1,51,-1
 548 512 l 2,52,53
 392 512 392 512 309.5 448 c 128,-1,54
 227 384 227 384 227 289 c 0,55,56
 227 192 227 192 292 135.5 c 128,-1,57
 357 79 357 79 479 79 c 0,47,48
1265 1000 m 0,58,59
 1127 1000 1127 1000 1041 898.5 c 128,-1,60
 955 797 955 797 942 641 c 1,61,-1
 944 636 l 1,62,-1
 1569 636 l 1,63,-1
 1569 667 l 2,64,65
 1569 813 1569 813 1491.5 906.5 c 128,-1,66
 1414 1000 1414 1000 1265 1000 c 0,58,59
EndSplineSet
Validated: 33
EndChar

StartChar: eth
Encoding: 240 240 178
Width: 1191
GlyphClass: 1
Flags: W
LayerCount: 2
Fore
SplineSet
849 1311 m 1,0,1
 950 1209 950 1209 1002.5 1070 c 128,-1,2
 1055 931 1055 931 1055 755 c 2,3,-1
 1055 535 l 2,4,5
 1055 290 1055 290 918 134.5 c 128,-1,6
 781 -21 781 -21 574 -21 c 0,7,8
 366 -21 366 -21 232.5 116 c 128,-1,9
 99 253 99 253 99 455 c 0,10,11
 99 690 99 690 226.5 827.5 c 128,-1,12
 354 965 354 965 566 965 c 0,13,14
 680 965 680 965 775.5 920 c 128,-1,15
 871 875 871 875 926 800 c 1,16,-1
 931 805 l 1,17,18
 926 950 926 950 877 1060.5 c 128,-1,19
 828 1171 828 1171 742 1250 c 1,20,-1
 415 1063 l 1,21,-1
 365 1137 l 1,22,-1
 667 1310 l 1,23,24
 620 1341 620 1341 566.5 1366 c 128,-1,25
 513 1391 513 1391 454 1413 c 1,26,-1
 493 1517 l 1,27,28
 575 1490 575 1490 646.5 1454 c 128,-1,29
 718 1418 718 1418 778 1373 c 1,30,-1
 1018 1511 l 1,31,-1
 1069 1437 l 1,32,-1
 849 1311 l 1,0,1
578 82 m 0,33,34
 736 82 736 82 835.5 209.5 c 128,-1,35
 935 337 935 337 935 535 c 2,36,-1
 935 674 l 1,37,38
 896 751 896 751 800.5 806 c 128,-1,39
 705 861 705 861 566 861 c 0,40,41
 399 861 399 861 309 746 c 128,-1,42
 219 631 219 631 219 455 c 0,43,44
 219 306 219 306 316 194 c 128,-1,45
 413 82 413 82 578 82 c 0,33,34
EndSplineSet
Validated: 1
Substitution2: "'smcp' Lowercase to Small Capitals lookup 0 subtable" Eth.smcp
EndChar

StartChar: divide
Encoding: 247 247 185
Width: 1164
GlyphClass: 1
Flags: W
LayerCount: 2
Fore
SplineSet
1070 644 m 1,0,-1
 72 644 l 1,1,-1
 72 760 l 1,2,-1
 1070 760 l 1,3,-1
 1070 644 l 1,0,-1
648 1010 m 1,4,-1
 506 1010 l 1,5,-1
 506 1170 l 1,6,-1
 648 1170 l 1,7,-1
 648 1010 l 1,4,-1
648 212 m 1,8,-1
 506 212 l 1,9,-1
 506 372 l 1,10,-1
 648 372 l 1,11,-1
 648 212 l 1,8,-1
EndSplineSet
Validated: 1
EndChar

StartChar: oslash
Encoding: 248 248 186
Width: 1141
GlyphClass: 1
Flags: W
LayerCount: 2
Fore
SplineSet
91 557 m 2,0,1
 91 796 91 796 222 949 c 128,-1,2
 353 1102 353 1102 569 1102 c 0,3,4
 629 1102 629 1102 683 1089.5 c 128,-1,5
 737 1077 737 1077 785 1053 c 1,6,-1
 864 1214 l 1,7,-1
 957 1214 l 1,8,-1
 856 1007 l 1,9,10
 947 935 947 935 997.5 818 c 128,-1,11
 1048 701 1048 701 1048 557 c 2,12,-1
 1048 524 l 2,13,14
 1048 284 1048 284 917.5 131.5 c 128,-1,15
 787 -21 787 -21 571 -21 c 0,16,17
 516 -21 516 -21 466.5 -10.5 c 128,-1,18
 417 0 417 0 372 20 c 1,19,-1
 294 -140 l 1,20,-1
 201 -140 l 1,21,-1
 300 62 l 1,22,23
 200 132 200 132 145.5 252.5 c 128,-1,24
 91 373 91 373 91 524 c 2,25,-1
 91 557 l 2,0,1
211 524 m 2,26,27
 211 412 211 412 246 318 c 128,-1,28
 281 224 281 224 346 169 c 1,29,-1
 352 169 l 1,30,-1
 737 956 l 1,31,32
 701 977 701 977 658.5 988.5 c 128,-1,33
 616 1000 616 1000 569 1000 c 0,34,35
 401 1000 401 1000 306 871 c 128,-1,36
 211 742 211 742 211 557 c 2,37,-1
 211 524 l 2,26,27
929 557 m 2,38,39
 929 659 929 659 897 749 c 128,-1,40
 865 839 865 839 808 896 c 1,41,-1
 802 896 l 1,42,-1
 418 114 l 1,43,44
 451 97 451 97 489.5 88.5 c 128,-1,45
 528 80 528 80 571 80 c 0,46,47
 738 80 738 80 833.5 208 c 128,-1,48
 929 336 929 336 929 524 c 2,49,-1
 929 557 l 2,38,39
EndSplineSet
Validated: 1
EndChar

StartChar: thorn
Encoding: 254 254 192
Width: 1151
GlyphClass: 1
Flags: W
LayerCount: 2
Fore
SplineSet
1039 511 m 2,0,1
 1039 268 1039 268 929 123.5 c 128,-1,2
 819 -21 819 -21 626 -21 c 0,3,4
 513 -21 513 -21 427.5 22 c 128,-1,5
 342 65 342 65 288 144 c 1,6,-1
 288 -416 l 1,7,-1
 168 -416 l 1,8,-1
 168 0 l 1,9,-1
 167 0 l 1,10,-1
 167 1560 l 1,11,-1
 286 1560 l 1,12,-1
 286 919 l 1,13,14
 340 1007 340 1007 424.5 1054.5 c 128,-1,15
 509 1102 509 1102 624 1102 c 0,16,17
 819 1102 819 1102 929 946.5 c 128,-1,18
 1039 791 1039 791 1039 532 c 2,19,-1
 1039 511 l 2,0,1
919 532 m 2,20,21
 919 738 919 738 837 868 c 128,-1,22
 755 998 755 998 597 998 c 0,23,24
 478 998 478 998 402.5 941 c 128,-1,25
 327 884 327 884 288 793 c 1,26,-1
 288 269 l 1,27,28
 330 181 330 181 407 130.5 c 128,-1,29
 484 80 484 80 599 80 c 0,30,31
 756 80 756 80 837.5 198 c 128,-1,32
 919 316 919 316 919 511 c 2,33,-1
 919 532 l 2,20,21
EndSplineSet
Validated: 1
EndChar

StartChar: Dcroat
Encoding: 272 272 210
Width: 1378
GlyphClass: 1
Flags: W
LayerCount: 2
Fore
SplineSet
186 0 m 1,0,-1
 186 689 l 1,1,-1
 33 689 l 1,2,-1
 33 791 l 1,3,-1
 186 791 l 1,4,-1
 186 1456 l 1,5,-1
 630 1456 l 2,6,7
 897 1456 897 1456 1071.5 1278 c 128,-1,8
 1246 1100 1246 1100 1246 821 c 2,9,-1
 1246 634 l 2,10,11
 1246 355 1246 355 1071.5 177.5 c 128,-1,12
 897 0 897 0 630 0 c 2,13,-1
 186 0 l 1,0,-1
645 689 m 1,14,-1
 306 689 l 1,15,-1
 306 101 l 1,16,-1
 630 101 l 2,17,18
 846 101 846 101 986 252 c 128,-1,19
 1126 403 1126 403 1126 634 c 2,20,-1
 1126 824 l 2,21,22
 1126 1052 1126 1052 985.5 1203 c 128,-1,23
 845 1354 845 1354 630 1354 c 2,24,-1
 306 1354 l 1,25,-1
 306 791 l 1,26,-1
 645 791 l 1,27,-1
 645 689 l 1,14,-1
EndSplineSet
Validated: 1
Substitution2: "'smcp' Lowercase to Small Capitals lookup 0 subtable" Dcroat.smcp
EndChar

StartChar: dcroat
Encoding: 273 273 211
Width: 1140
GlyphClass: 1
Flags: W
LayerCount: 2
Fore
SplineSet
1156 1257 m 1,0,-1
 979 1257 l 1,1,-1
 979 0 l 1,2,-1
 881 0 l 1,3,-1
 864 157 l 1,4,5
 809 71 809 71 724 25 c 128,-1,6
 639 -21 639 -21 524 -21 c 0,7,8
 330 -21 330 -21 220.5 123.5 c 128,-1,9
 111 268 111 268 111 511 c 2,10,-1
 111 532 l 2,11,12
 111 791 111 791 220.5 946.5 c 128,-1,13
 330 1102 330 1102 526 1102 c 0,14,15
 637 1102 637 1102 720.5 1055 c 128,-1,16
 804 1008 804 1008 859 922 c 1,17,-1
 859 1257 l 1,18,-1
 544 1257 l 1,19,-1
 544 1359 l 1,20,-1
 859 1359 l 1,21,-1
 859 1560 l 1,22,-1
 979 1560 l 1,23,-1
 979 1359 l 1,24,-1
 1156 1359 l 1,25,-1
 1156 1257 l 1,0,-1
231 511 m 2,26,27
 231 315 231 315 309.5 199 c 128,-1,28
 388 83 388 83 546 83 c 0,29,30
 662 83 662 83 739 134.5 c 128,-1,31
 816 186 816 186 859 277 c 1,32,-1
 859 790 l 1,33,34
 818 882 818 882 743 940 c 128,-1,35
 668 998 668 998 548 998 c 0,36,37
 390 998 390 998 310.5 868.5 c 128,-1,38
 231 739 231 739 231 532 c 2,39,-1
 231 511 l 2,26,27
EndSplineSet
Validated: 1
Substitution2: "'smcp' Lowercase to Small Capitals lookup 0 subtable" Dcroat.smcp
EndChar

StartChar: Hbar
Encoding: 294 294 232
Width: 1412
GlyphClass: 1
Flags: W
LayerCount: 2
Fore
SplineSet
1261 1123 m 1,0,-1
 1384 1123 l 1,1,-1
 1384 1026 l 1,2,-1
 1261 1026 l 1,3,-1
 1261 0 l 1,4,-1
 1141 0 l 1,5,-1
 1141 670 l 1,6,-1
 314 670 l 1,7,-1
 314 0 l 1,8,-1
 194 0 l 1,9,-1
 194 1026 l 1,10,-1
 25 1026 l 1,11,-1
 25 1123 l 1,12,-1
 194 1123 l 1,13,-1
 194 1456 l 1,14,-1
 314 1456 l 1,15,-1
 314 1123 l 1,16,-1
 1141 1123 l 1,17,-1
 1141 1456 l 1,18,-1
 1261 1456 l 1,19,-1
 1261 1123 l 1,0,-1
314 772 m 1,20,-1
 1141 772 l 1,21,-1
 1141 1026 l 1,22,-1
 314 1026 l 1,23,-1
 314 772 l 1,20,-1
EndSplineSet
Validated: 1
EndChar

StartChar: hbar
Encoding: 295 295 233
Width: 1140
GlyphClass: 1
Flags: W
LayerCount: 2
Fore
SplineSet
634 1257 m 1,0,-1
 278 1257 l 1,1,-1
 278 898 l 1,2,3
 333 995 333 995 422.5 1048.5 c 128,-1,4
 512 1102 512 1102 632 1102 c 0,5,6
 803 1102 803 1102 894.5 996 c 128,-1,7
 986 890 986 890 986 667 c 2,8,-1
 986 0 l 1,9,-1
 866 0 l 1,10,-1
 866 669 l 2,11,12
 866 845 866 845 796.5 921.5 c 128,-1,13
 727 998 727 998 605 998 c 0,14,15
 479 998 479 998 397.5 936.5 c 128,-1,16
 316 875 316 875 278 772 c 1,17,-1
 278 0 l 1,18,-1
 158 0 l 1,19,-1
 158 1257 l 1,20,-1
 22 1257 l 1,21,-1
 22 1359 l 1,22,-1
 158 1359 l 1,23,-1
 158 1560 l 1,24,-1
 278 1560 l 1,25,-1
 278 1359 l 1,26,-1
 634 1359 l 1,27,-1
 634 1257 l 1,0,-1
EndSplineSet
Validated: 1
EndChar

StartChar: dotlessi
Encoding: 305 305 243
Width: 456
GlyphClass: 1
Flags: W
LayerCount: 2
Fore
SplineSet
288 0 m 1,0,-1
 168 0 l 1,1,-1
 168 1082 l 1,2,-1
 288 1082 l 1,3,-1
 288 0 l 1,0,-1
EndSplineSet
Validated: 1
EndChar

StartChar: kgreenlandic
Encoding: 312 312 250
Width: 1111
GlyphClass: 1
Flags: W
LayerCount: 2
Fore
SplineSet
420 496 m 1,0,-1
 283 496 l 1,1,-1
 283 0 l 1,2,-1
 162 0 l 1,3,-1
 162 1082 l 1,4,-1
 283 1082 l 1,5,-1
 283 602 l 1,6,-1
 417 602 l 1,7,-1
 860 1082 l 1,8,-1
 999 1082 l 1,9,-1
 1001 1077 l 1,10,-1
 525 557 l 1,11,-1
 1051 6 l 1,12,-1
 1048 0 l 1,13,-1
 904 0 l 1,14,-1
 420 496 l 1,0,-1
EndSplineSet
Validated: 1
EndChar

StartChar: Lslash
Encoding: 321 321 259
Width: 1068
GlyphClass: 1
Flags: W
LayerCount: 2
Fore
SplineSet
299 815 m 1,0,-1
 612 915 l 1,1,-1
 612 806 l 1,2,-1
 299 706 l 1,3,-1
 299 101 l 1,4,-1
 1051 101 l 1,5,-1
 1051 0 l 1,6,-1
 179 0 l 1,7,-1
 179 668 l 1,8,-1
 23 619 l 1,9,-1
 23 728 l 1,10,-1
 179 777 l 1,11,-1
 179 1456 l 1,12,-1
 299 1456 l 1,13,-1
 299 815 l 1,0,-1
EndSplineSet
Validated: 1
EndChar

StartChar: lslash
Encoding: 322 322 260
Width: 529
GlyphClass: 1
Flags: W
LayerCount: 2
Fore
SplineSet
312 854 m 1,0,-1
 505 930 l 1,1,-1
 505 821 l 1,2,-1
 312 745 l 1,3,-1
 312 0 l 1,4,-1
 193 0 l 1,5,-1
 193 699 l 1,6,-1
 26 634 l 1,7,-1
 26 743 l 1,8,-1
 193 808 l 1,9,-1
 193 1560 l 1,10,-1
 312 1560 l 1,11,-1
 312 854 l 1,0,-1
EndSplineSet
Validated: 1
EndChar

StartChar: Eng
Encoding: 330 330 268
Width: 1434
GlyphClass: 1
Flags: W
LayerCount: 2
Fore
SplineSet
1255 1456 m 1,0,-1
 1255 -89 l 2,1,2
 1255 -256 1255 -256 1174.5 -346.5 c 128,-1,3
 1094 -437 1094 -437 951 -437 c 0,4,5
 920 -437 920 -437 894 -432 c 128,-1,6
 868 -427 868 -427 839 -418 c 1,7,-1
 853 -319 l 1,8,9
 868 -325 868 -325 899 -330 c 128,-1,10
 930 -335 930 -335 951 -335 c 0,11,12
 1038 -335 1038 -335 1087 -270 c 128,-1,13
 1136 -205 1136 -205 1136 -89 c 2,14,-1
 1136 0 l 1,15,-1
 308 1245 l 1,16,-1
 302 1244 l 1,17,-1
 302 0 l 1,18,-1
 182 0 l 1,19,-1
 182 1456 l 1,20,-1
 302 1456 l 1,21,-1
 1130 210 l 1,22,-1
 1136 211 l 1,23,-1
 1136 1456 l 1,24,-1
 1255 1456 l 1,0,-1
EndSplineSet
Validated: 1
EndChar

StartChar: eng
Encoding: 331 331 269
Width: 1140
GlyphClass: 1
Flags: W
LayerCount: 2
Fore
SplineSet
264 1082 m 1,0,-1
 275 899 l 1,1,2
 327 995 327 995 414.5 1048.5 c 128,-1,3
 502 1102 502 1102 621 1102 c 0,4,5
 797 1102 797 1102 889 994.5 c 128,-1,6
 981 887 981 887 981 659 c 2,7,-1
 981 -89 l 2,8,9
 981 -256 981 -256 900.5 -346.5 c 128,-1,10
 820 -437 820 -437 677 -437 c 0,11,12
 643 -437 643 -437 614 -432 c 128,-1,13
 585 -427 585 -427 553 -418 c 1,14,-1
 567 -315 l 1,15,16
 583 -320 583 -320 617.5 -325 c 128,-1,17
 652 -330 652 -330 677 -330 c 0,18,19
 765 -330 765 -330 813 -267.5 c 128,-1,20
 861 -205 861 -205 861 -89 c 2,21,-1
 861 658 l 2,22,23
 861 844 861 844 791.5 921 c 128,-1,24
 722 998 722 998 594 998 c 0,25,26
 470 998 470 998 392.5 938 c 128,-1,27
 315 878 315 878 278 777 c 1,28,-1
 278 0 l 1,29,-1
 158 0 l 1,30,-1
 158 1082 l 1,31,-1
 264 1082 l 1,0,-1
EndSplineSet
Validated: 1
EndChar

StartChar: OE
Encoding: 338 338 276
Width: 1913
GlyphClass: 1
Flags: W
LayerCount: 2
Fore
SplineSet
1796 0 m 1,0,-1
 957 0 l 1,1,2
 860 -10 860 -10 789.5 -15.5 c 128,-1,3
 719 -21 719 -21 646 -21 c 0,4,5
 407 -21 407 -21 257.5 145 c 128,-1,6
 108 311 108 311 108 576 c 2,7,-1
 108 880 l 2,8,9
 108 1144 108 1144 256.5 1310.5 c 128,-1,10
 405 1477 405 1477 644 1477 c 0,11,12
 719 1477 719 1477 796 1471 c 128,-1,13
 873 1465 873 1465 957 1456 c 1,14,-1
 1791 1456 l 1,15,-1
 1791 1354 l 1,16,-1
 1041 1354 l 1,17,-1
 1041 807 l 1,18,-1
 1694 807 l 1,19,-1
 1694 705 l 1,20,-1
 1041 705 l 1,21,-1
 1041 101 l 1,22,-1
 1796 101 l 1,23,-1
 1796 0 l 1,0,-1
646 81 m 0,24,25
 716 81 716 81 787 85 c 128,-1,26
 858 89 858 89 921 98 c 1,27,-1
 921 1357 l 1,28,29
 858 1365 858 1365 788 1370 c 128,-1,30
 718 1375 718 1375 644 1375 c 0,31,32
 452 1375 452 1375 340 1243 c 128,-1,33
 228 1111 228 1111 228 882 c 2,34,-1
 228 576 l 2,35,36
 228 348 228 348 341.5 214.5 c 128,-1,37
 455 81 455 81 646 81 c 0,24,25
EndSplineSet
Validated: 1
EndChar

StartChar: oe
Encoding: 339 339 277
Width: 1890
GlyphClass: 1
Flags: W
LayerCount: 2
Fore
SplineSet
1349 -21 m 0,0,1
 1223 -21 1223 -21 1123 34.5 c 128,-1,2
 1023 90 1023 90 961 191 c 1,3,4
 898 90 898 90 798 34.5 c 128,-1,5
 698 -21 698 -21 571 -21 c 0,6,7
 353 -21 353 -21 222 131.5 c 128,-1,8
 91 284 91 284 91 524 c 2,9,-1
 91 557 l 2,10,11
 91 796 91 796 222 949 c 128,-1,12
 353 1102 353 1102 569 1102 c 0,13,14
 697 1102 697 1102 798.5 1045 c 128,-1,15
 900 988 900 988 963 886 c 1,16,17
 1025 987 1025 987 1123.5 1044.5 c 128,-1,18
 1222 1102 1222 1102 1338 1102 c 0,19,20
 1535 1102 1535 1102 1642.5 975.5 c 128,-1,21
 1750 849 1750 849 1750 635 c 2,22,-1
 1750 542 l 1,23,-1
 1048 542 l 1,24,-1
 1048 524 l 2,25,26
 1048 473 1048 473 1041.5 425 c 128,-1,27
 1035 377 1035 377 1023 333 c 1,28,29
 1059 217 1059 217 1143.5 148.5 c 128,-1,30
 1228 80 1228 80 1349 80 c 0,31,32
 1448 80 1448 80 1531 112.5 c 128,-1,33
 1614 145 1614 145 1669 200 c 1,34,-1
 1720 118 l 1,35,36
 1663 58 1663 58 1570.5 18.5 c 128,-1,37
 1478 -21 1478 -21 1349 -21 c 0,0,1
211 524 m 2,38,39
 211 336 211 336 306 208 c 128,-1,40
 401 80 401 80 571 80 c 0,41,42
 691 80 691 80 775.5 149 c 128,-1,43
 860 218 860 218 899 334 c 1,44,45
 888 375 888 375 882.5 419 c 128,-1,46
 877 463 877 463 877 509 c 2,47,-1
 877 564 l 2,48,49
 877 610 877 610 882.5 655 c 128,-1,50
 888 700 888 700 900 742 c 1,51,52
 860 858 860 858 775 929 c 128,-1,53
 690 1000 690 1000 569 1000 c 0,54,55
 401 1000 401 1000 306 871 c 128,-1,56
 211 742 211 742 211 557 c 2,57,-1
 211 524 l 2,38,39
1023 745 m 1,58,59
 1029 720 1029 720 1034.5 694.5 c 128,-1,60
 1040 669 1040 669 1043 644 c 1,61,-1
 1630 644 l 1,62,-1
 1630 669 l 2,63,64
 1630 813 1630 813 1554.5 906.5 c 128,-1,65
 1479 1000 1479 1000 1338 1000 c 0,66,67
 1224 1000 1224 1000 1142 930.5 c 128,-1,68
 1060 861 1060 861 1023 745 c 1,58,59
EndSplineSet
Validated: 1
EndChar

StartChar: Tbar
Encoding: 358 358 296
Width: 1224
GlyphClass: 1
Flags: W
LayerCount: 2
Fore
SplineSet
916 834 m 1,0,-1
 680 834 l 1,1,-1
 680 0 l 1,2,-1
 561 0 l 1,3,-1
 561 834 l 1,4,-1
 304 834 l 1,5,-1
 304 936 l 1,6,-1
 561 936 l 1,7,-1
 561 1354 l 1,8,-1
 48 1354 l 1,9,-1
 48 1456 l 1,10,-1
 1176 1456 l 1,11,-1
 1176 1354 l 1,12,-1
 680 1354 l 1,13,-1
 680 936 l 1,14,-1
 916 936 l 1,15,-1
 916 834 l 1,0,-1
EndSplineSet
Validated: 1
Substitution2: "'smcp' Lowercase to Small Capitals lookup 0 subtable" Tbar.smcp
EndChar

StartChar: tbar
Encoding: 359 359 297
Width: 659
GlyphClass: 1
Flags: W
LayerCount: 2
Fore
SplineSet
345 1359 m 1,0,-1
 345 1082 l 1,1,-1
 583 1082 l 1,2,-1
 583 984 l 1,3,-1
 345 984 l 1,4,-1
 345 719 l 1,5,-1
 631 719 l 1,6,-1
 631 617 l 1,7,-1
 345 617 l 1,8,-1
 345 279 l 2,9,10
 345 173 345 173 383.5 128.5 c 128,-1,11
 422 84 422 84 486 84 c 0,12,13
 508 84 508 84 528.5 86.5 c 128,-1,14
 549 89 549 89 577 95 c 1,15,-1
 595 6 l 1,16,17
 571 -6 571 -6 535.5 -13.5 c 128,-1,18
 500 -21 500 -21 465 -21 c 0,19,20
 351 -21 351 -21 287.5 51 c 128,-1,21
 224 123 224 123 224 279 c 2,22,-1
 224 617 l 1,23,-1
 19 617 l 1,24,-1
 19 719 l 1,25,-1
 224 719 l 1,26,-1
 224 984 l 1,27,-1
 37 984 l 1,28,-1
 37 1082 l 1,29,-1
 224 1082 l 1,30,-1
 224 1359 l 1,31,-1
 345 1359 l 1,0,-1
EndSplineSet
Validated: 1
Substitution2: "'smcp' Lowercase to Small Capitals lookup 0 subtable" Tbar.smcp
EndChar

StartChar: longs
Encoding: 383 383 321
Width: 465
GlyphClass: 1
Flags: W
LayerCount: 2
Fore
SplineSet
167 0 m 1,0,-1
 167 1240 l 2,1,2
 167 1403 167 1403 248.5 1492 c 128,-1,3
 330 1581 330 1581 477 1581 c 0,4,5
 510 1581 510 1581 544 1576 c 128,-1,6
 578 1571 578 1571 613 1562 c 1,7,-1
 597 1466 l 1,8,9
 572 1472 572 1472 548 1475.5 c 128,-1,10
 524 1479 524 1479 492 1479 c 0,11,12
 394 1479 394 1479 340 1415.5 c 128,-1,13
 286 1352 286 1352 286 1240 c 2,14,-1
 286 0 l 1,15,-1
 167 0 l 1,0,-1
EndSplineSet
Validated: 1
EndChar

StartChar: florin
Encoding: 402 402 322
Width: 670
GlyphClass: 1
Flags: W
LayerCount: 2
Fore
SplineSet
600 984 m 1,0,-1
 356 984 l 1,1,-1
 356 -89 l 2,2,3
 356 -256 356 -256 275.5 -346.5 c 128,-1,4
 195 -437 195 -437 52 -437 c 0,5,6
 22 -437 22 -437 -3 -432.5 c 128,-1,7
 -28 -428 -28 -428 -59 -418 c 1,8,-1
 -45 -319 l 1,9,10
 -30 -324 -30 -324 0 -329.5 c 128,-1,11
 30 -335 30 -335 52 -335 c 0,12,13
 139 -335 139 -335 187.5 -270.5 c 128,-1,14
 236 -206 236 -206 236 -89 c 2,15,-1
 236 984 l 1,16,-1
 56 984 l 1,17,-1
 56 1082 l 1,18,-1
 236 1082 l 1,19,-1
 236 1240 l 2,20,21
 236 1403 236 1403 317.5 1492 c 128,-1,22
 399 1581 399 1581 546 1581 c 0,23,24
 579 1581 579 1581 613 1576 c 128,-1,25
 647 1571 647 1571 682 1562 c 1,26,-1
 667 1463 l 1,27,28
 642 1469 642 1469 617 1472.5 c 128,-1,29
 592 1476 592 1476 558 1476 c 0,30,31
 460 1476 460 1476 408 1414 c 128,-1,32
 356 1352 356 1352 356 1240 c 2,33,-1
 356 1082 l 1,34,-1
 600 1082 l 1,35,-1
 600 984 l 1,0,-1
EndSplineSet
Validated: 1
EndChar

StartChar: Ohorn
Encoding: 416 416 323
Width: 1429
GlyphClass: 1
Flags: W
LayerCount: 2
Fore
SplineSet
1249 609 m 2,0,1
 1249 327 1249 327 1094.5 153 c 128,-1,2
 940 -21 940 -21 680 -21 c 0,3,4
 424 -21 424 -21 271.5 153 c 128,-1,5
 119 327 119 327 119 609 c 2,6,-1
 119 846 l 2,7,8
 119 1127 119 1127 271 1302 c 128,-1,9
 423 1477 423 1477 679 1477 c 0,10,11
 816 1477 816 1477 927 1425 c 128,-1,12
 1038 1373 1038 1373 1114 1278 c 1,13,14
 1259 1281 1259 1281 1335.5 1371 c 128,-1,15
 1412 1461 1412 1461 1412 1626 c 1,16,-1
 1525 1626 l 1,17,-1
 1528 1621 l 1,18,19
 1530 1429 1530 1429 1438 1315 c 128,-1,20
 1346 1201 1346 1201 1176 1180 c 1,21,22
 1211 1108 1211 1108 1230 1023.5 c 128,-1,23
 1249 939 1249 939 1249 846 c 2,24,-1
 1249 609 l 2,0,1
1130 848 m 2,25,26
 1130 1084 1130 1084 1010.5 1228 c 128,-1,27
 891 1372 891 1372 679 1372 c 0,28,29
 471 1372 471 1372 355 1228 c 128,-1,30
 239 1084 239 1084 239 848 c 2,31,-1
 239 609 l 2,32,33
 239 371 239 371 355.5 227 c 128,-1,34
 472 83 472 83 680 83 c 0,35,36
 893 83 893 83 1011.5 226.5 c 128,-1,37
 1130 370 1130 370 1130 609 c 2,38,-1
 1130 848 l 2,25,26
EndSplineSet
Validated: 33
EndChar

StartChar: ohorn
Encoding: 417 417 324
Width: 1146
GlyphClass: 1
Flags: W
LayerCount: 2
Fore
SplineSet
91 557 m 2,0,1
 91 796 91 796 222 949 c 128,-1,2
 353 1102 353 1102 569 1102 c 0,3,4
 673 1102 673 1102 759 1064.5 c 128,-1,5
 845 1027 845 1027 909 958 c 1,6,7
 1021 967 1021 967 1078 1040.5 c 128,-1,8
 1135 1114 1135 1114 1135 1240 c 1,9,-1
 1246 1240 l 1,10,11
 1246 1089 1246 1089 1173.5 996 c 128,-1,12
 1101 903 1101 903 966 880 c 1,13,14
 1006 812 1006 812 1027 730.5 c 128,-1,15
 1048 649 1048 649 1048 557 c 2,16,-1
 1048 524 l 2,17,18
 1048 284 1048 284 917.5 131.5 c 128,-1,19
 787 -21 787 -21 571 -21 c 0,20,21
 353 -21 353 -21 222 131.5 c 128,-1,22
 91 284 91 284 91 524 c 2,23,-1
 91 557 l 2,0,1
211 524 m 2,24,25
 211 336 211 336 306 208 c 128,-1,26
 401 80 401 80 571 80 c 0,27,28
 738 80 738 80 833.5 208 c 128,-1,29
 929 336 929 336 929 524 c 2,30,-1
 929 557 l 2,31,32
 929 742 929 742 833 871 c 128,-1,33
 737 1000 737 1000 569 1000 c 256,34,35
 401 1000 401 1000 306 871 c 128,-1,36
 211 742 211 742 211 557 c 2,37,-1
 211 524 l 2,24,25
EndSplineSet
Validated: 1
EndChar

StartChar: Uhorn
Encoding: 431 431 325
Width: 1395
GlyphClass: 1
Flags: W
LayerCount: 2
Fore
SplineSet
1209 1456 m 1,0,-1
 1209 1263 l 1,1,-1
 1215 1261 l 1,2,3
 1346 1272 1346 1272 1415.5 1362 c 128,-1,4
 1485 1452 1485 1452 1485 1607 c 1,5,-1
 1598 1607 l 1,6,-1
 1600 1602 l 1,7,8
 1603 1405 1603 1405 1500.5 1290 c 128,-1,9
 1398 1175 1398 1175 1209 1159 c 1,10,-1
 1209 489 l 2,11,12
 1209 249 1209 249 1062 114 c 128,-1,13
 915 -21 915 -21 684 -21 c 0,14,15
 456 -21 456 -21 311.5 114.5 c 128,-1,16
 167 250 167 250 167 489 c 2,17,-1
 167 1456 l 1,18,-1
 287 1456 l 1,19,-1
 287 489 l 2,20,21
 287 301 287 301 398.5 190.5 c 128,-1,22
 510 80 510 80 684 80 c 0,23,24
 862 80 862 80 976 190 c 128,-1,25
 1090 300 1090 300 1090 489 c 2,26,-1
 1090 1456 l 1,27,-1
 1209 1456 l 1,0,-1
EndSplineSet
Validated: 33
EndChar

StartChar: uhorn
Encoding: 432 432 326
Width: 1159
GlyphClass: 1
Flags: W
LayerCount: 2
Fore
SplineSet
1321 1250 m 1,0,-1
 1323 1245 l 1,1,2
 1326 1071 1326 1071 1239.5 974.5 c 128,-1,3
 1153 878 1153 878 982 866 c 1,4,-1
 982 0 l 1,5,-1
 876 0 l 1,6,-1
 866 176 l 1,7,8
 814 81 814 81 726.5 30 c 128,-1,9
 639 -21 639 -21 519 -21 c 0,10,11
 348 -21 348 -21 251 95 c 128,-1,12
 154 211 154 211 154 455 c 2,13,-1
 154 1082 l 1,14,-1
 274 1082 l 1,15,-1
 274 453 l 2,16,17
 274 255 274 255 341.5 169 c 128,-1,18
 409 83 409 83 533 83 c 0,19,20
 668 83 668 83 748.5 143.5 c 128,-1,21
 829 204 829 204 862 309 c 1,22,-1
 862 1082 l 1,23,-1
 982 1082 l 1,24,-1
 982 961 l 1,25,-1
 988 959 l 1,26,27
 1105 966 1105 966 1161 1039.5 c 128,-1,28
 1217 1113 1217 1113 1217 1250 c 1,29,-1
 1321 1250 l 1,0,-1
EndSplineSet
Validated: 33
EndChar

StartChar: uni0237
Encoding: 567 567 336
Width: 468
GlyphClass: 1
Flags: W
LayerCount: 2
Fore
SplineSet
298 1082 m 1,0,-1
 298 -89 l 2,1,2
 298 -256 298 -256 218 -346.5 c 128,-1,3
 138 -437 138 -437 -4 -437 c 0,4,5
 -34 -437 -34 -437 -60 -432 c 128,-1,6
 -86 -427 -86 -427 -116 -418 c 1,7,-1
 -103 -319 l 1,8,9
 -87 -324 -87 -324 -56 -329.5 c 128,-1,10
 -25 -335 -25 -335 -4 -335 c 0,11,12
 83 -335 83 -335 131 -270 c 128,-1,13
 179 -205 179 -205 179 -89 c 2,14,-1
 179 1082 l 1,15,-1
 298 1082 l 1,0,-1
EndSplineSet
Validated: 1
EndChar

StartChar: circumflex
Encoding: 710 710 338
Width: 880
GlyphClass: 1
Flags: W
LayerCount: 2
Fore
SplineSet
715 1270 m 1,0,-1
 715 1252 l 1,1,-1
 603 1252 l 1,2,-1
 436 1420 l 1,3,-1
 270 1252 l 1,4,-1
 160 1252 l 1,5,-1
 160 1273 l 1,6,-1
 387 1494 l 1,7,-1
 485 1494 l 1,8,-1
 715 1270 l 1,0,-1
EndSplineSet
Validated: 1
EndChar

StartChar: caron
Encoding: 711 711 339
Width: 836
GlyphClass: 1
Flags: W
LayerCount: 2
Fore
SplineSet
417 1325 m 1,0,-1
 583 1494 l 1,1,-1
 698 1494 l 1,2,-1
 698 1477 l 1,3,-1
 465 1252 l 1,4,-1
 368 1252 l 1,5,-1
 136 1477 l 1,6,-1
 136 1494 l 1,7,-1
 250 1494 l 1,8,-1
 417 1325 l 1,0,-1
EndSplineSet
Validated: 1
EndChar

StartChar: breve
Encoding: 728 728 340
Width: 865
GlyphClass: 1
Flags: W
LayerCount: 2
Fore
SplineSet
708 1456 m 1,0,-1
 710 1450 l 1,1,2
 714 1338 714 1338 637 1268 c 128,-1,3
 560 1198 560 1198 427 1198 c 256,4,5
 294 1198 294 1198 216.5 1268.5 c 128,-1,6
 139 1339 139 1339 144 1450 c 1,7,-1
 146 1456 l 1,8,-1
 240 1456 l 1,9,10
 240 1379 240 1379 285 1332 c 128,-1,11
 330 1285 330 1285 427 1285 c 0,12,13
 521 1285 521 1285 567.5 1333 c 128,-1,14
 614 1381 614 1381 614 1456 c 1,15,-1
 708 1456 l 1,0,-1
EndSplineSet
Validated: 33
EndChar

StartChar: dotaccent
Encoding: 729 729 341
Width: 487
GlyphClass: 1
Flags: W
LayerCount: 2
Fore
SplineSet
308 1288 m 1,0,-1
 157 1288 l 1,1,-1
 157 1456 l 1,2,-1
 308 1456 l 1,3,-1
 308 1288 l 1,0,-1
EndSplineSet
Validated: 1
EndChar

StartChar: ring
Encoding: 730 730 342
Width: 676
GlyphClass: 1
Flags: W
LayerCount: 2
Fore
SplineSet
186 1324 m 0,0,1
 186 1387 186 1387 231.5 1432 c 128,-1,2
 277 1477 277 1477 340 1477 c 0,3,4
 402 1477 402 1477 446.5 1432.5 c 128,-1,5
 491 1388 491 1388 491 1324 c 0,6,7
 491 1259 491 1259 447 1217 c 128,-1,8
 403 1175 403 1175 340 1175 c 0,9,10
 276 1175 276 1175 231 1217 c 128,-1,11
 186 1259 186 1259 186 1324 c 0,0,1
263 1324 m 0,12,13
 263 1291 263 1291 285.5 1269 c 128,-1,14
 308 1247 308 1247 340 1247 c 0,15,16
 371 1247 371 1247 393 1268.5 c 128,-1,17
 415 1290 415 1290 415 1324 c 256,18,19
 415 1358 415 1358 393 1380.5 c 128,-1,20
 371 1403 371 1403 340 1403 c 0,21,22
 308 1403 308 1403 285.5 1380.5 c 128,-1,23
 263 1358 263 1358 263 1324 c 0,12,13
EndSplineSet
Validated: 1
EndChar

StartChar: ogonek
Encoding: 731 731 343
Width: 512
GlyphClass: 1
Flags: W
LayerCount: 2
Fore
SplineSet
347 0 m 1,0,1
 275 -60 275 -60 237 -108 c 128,-1,2
 199 -156 199 -156 199 -212 c 0,3,4
 199 -243 199 -243 218 -270 c 128,-1,5
 237 -297 237 -297 288 -297 c 0,6,7
 320 -297 320 -297 344.5 -288 c 128,-1,8
 369 -279 369 -279 393 -265 c 1,9,-1
 417 -348 l 1,10,11
 387 -367 387 -367 350.5 -379.5 c 128,-1,12
 314 -392 314 -392 265 -392 c 0,13,14
 189 -392 189 -392 140 -347.5 c 128,-1,15
 91 -303 91 -303 91 -223 c 0,16,17
 91 -152 91 -152 142 -84 c 128,-1,18
 193 -16 193 -16 286 37 c 1,19,-1
 347 0 l 1,0,1
EndSplineSet
Validated: 1
EndChar

StartChar: tilde
Encoding: 732 732 344
Width: 892
GlyphClass: 1
Flags: W
LayerCount: 2
Fore
SplineSet
767 1481 m 1,0,1
 767 1393 767 1393 712 1335 c 128,-1,2
 657 1277 657 1277 575 1277 c 0,3,4
 501 1277 501 1277 424 1332 c 128,-1,5
 347 1387 347 1387 293 1387 c 0,6,7
 246 1387 246 1387 214 1352 c 128,-1,8
 182 1317 182 1317 182 1263 c 1,9,-1
 102 1281 l 1,10,11
 102 1367 102 1367 156 1425.5 c 128,-1,12
 210 1484 210 1484 293 1484 c 0,13,14
 358 1484 358 1484 440 1429 c 128,-1,15
 522 1374 522 1374 575 1374 c 0,16,17
 621 1374 621 1374 654 1410 c 128,-1,18
 687 1446 687 1446 687 1501 c 1,19,-1
 767 1481 l 1,0,1
EndSplineSet
Validated: 1
EndChar

StartChar: hungarumlaut
Encoding: 733 733 345
Width: 773
GlyphClass: 1
Flags: W
LayerCount: 2
Fore
SplineSet
643 1518 m 1,0,-1
 788 1518 l 1,1,-1
 790 1512 l 1,2,-1
 494 1252 l 1,3,-1
 381 1252 l 1,4,-1
 379 1258 l 1,5,-1
 643 1518 l 1,0,-1
348 1518 m 1,6,-1
 481 1518 l 1,7,-1
 484 1512 l 1,8,-1
 239 1252 l 1,9,-1
 137 1252 l 1,10,-1
 134 1257 l 1,11,-1
 348 1518 l 1,6,-1
EndSplineSet
Validated: 1
EndChar

StartChar: uni02F3
Encoding: 755 755 346
Width: 655
GlyphClass: 1
Flags: W
LayerCount: 2
Fore
SplineSet
184 -226 m 0,0,1
 184 -169 184 -169 227 -130.5 c 128,-1,2
 270 -92 270 -92 330 -92 c 0,3,4
 388 -92 388 -92 430 -130.5 c 128,-1,5
 472 -169 472 -169 472 -226 c 0,6,7
 472 -281 472 -281 430.5 -318.5 c 128,-1,8
 389 -356 389 -356 330 -356 c 0,9,10
 269 -356 269 -356 226.5 -318.5 c 128,-1,11
 184 -281 184 -281 184 -226 c 0,0,1
256 -226 m 0,12,13
 256 -251 256 -251 277.5 -269.5 c 128,-1,14
 299 -288 299 -288 330 -288 c 0,15,16
 360 -288 360 -288 380.5 -270 c 128,-1,17
 401 -252 401 -252 401 -226 c 0,18,19
 401 -197 401 -197 380.5 -179 c 128,-1,20
 360 -161 360 -161 330 -161 c 0,21,22
 299 -161 299 -161 277.5 -179 c 128,-1,23
 256 -197 256 -197 256 -226 c 0,12,13
EndSplineSet
Validated: 1
EndChar

StartChar: hook
Encoding: 777 777 350
Width: 0
GlyphClass: 1
Flags: W
LayerCount: 2
Fore
SplineSet
-625 1234 m 1,0,-1
 -625 1359 l 1,1,2
 -535 1365 -535 1365 -496.5 1386 c 128,-1,3
 -458 1407 -458 1407 -458 1453 c 0,4,5
 -458 1502 -458 1502 -516 1525 c 128,-1,6
 -574 1548 -574 1548 -659 1548 c 1,7,-1
 -652 1625 l 1,8,9
 -516 1625 -516 1625 -437 1578 c 128,-1,10
 -358 1531 -358 1531 -358 1452 c 0,11,12
 -358 1378 -358 1378 -407 1340.5 c 128,-1,13
 -456 1303 -456 1303 -534 1296 c 1,14,-1
 -535 1234 l 1,15,-1
 -625 1234 l 1,0,-1
EndSplineSet
Validated: 1
EndChar

StartChar: uni030F
Encoding: 783 783 351
Width: 0
GlyphClass: 1
Flags: W
LayerCount: 2
Fore
SplineSet
-560 1258 m 1,0,-1
 -562 1252 l 1,1,-1
 -675 1252 l 1,2,-1
 -971 1512 l 1,3,-1
 -969 1518 l 1,4,-1
 -824 1518 l 1,5,-1
 -560 1258 l 1,0,-1
-315 1257 m 1,6,-1
 -318 1252 l 1,7,-1
 -420 1252 l 1,8,-1
 -665 1512 l 1,9,-1
 -662 1518 l 1,10,-1
 -529 1518 l 1,11,-1
 -315 1257 l 1,6,-1
EndSplineSet
Validated: 1
EndChar

StartChar: dotbelow
Encoding: 803 803 352
Width: 0
GlyphClass: 1
Flags: W
LayerCount: 2
Fore
SplineSet
-512 -315 m 1,0,-1
 -663 -315 l 1,1,-1
 -663 -147 l 1,2,-1
 -512 -147 l 1,3,-1
 -512 -315 l 1,0,-1
EndSplineSet
Validated: 1
EndChar

StartChar: tonos
Encoding: 900 900 353
Width: 519
GlyphClass: 1
Flags: W
LayerCount: 2
Fore
SplineSet
250 1529 m 1,0,-1
 403 1529 l 1,1,-1
 274 1305 l 1,2,-1
 218 1305 l 1,3,-1
 250 1529 l 1,0,-1
EndSplineSet
Validated: 1
EndChar

StartChar: dieresistonos
Encoding: 901 901 354
Width: 981
GlyphClass: 1
Flags: W
LayerCount: 2
Fore
SplineSet
815 1304 m 1,0,-1
 656 1304 l 1,1,-1
 656 1456 l 1,2,-1
 815 1456 l 1,3,-1
 815 1304 l 1,0,-1
323 1304 m 1,4,-1
 163 1304 l 1,5,-1
 163 1456 l 1,6,-1
 323 1456 l 1,7,-1
 323 1304 l 1,4,-1
480 1691 m 1,8,-1
 654 1691 l 1,9,-1
 532 1472 l 1,10,-1
 444 1472 l 1,11,-1
 480 1691 l 1,8,-1
EndSplineSet
Validated: 1
EndChar

StartChar: Gamma
Encoding: 915 915 366
Width: 1122
GlyphClass: 1
Flags: W
LayerCount: 2
Fore
SplineSet
1055 1354 m 1,0,-1
 299 1354 l 1,1,-1
 299 0 l 1,2,-1
 179 0 l 1,3,-1
 179 1456 l 1,4,-1
 1055 1456 l 1,5,-1
 1055 1354 l 1,0,-1
EndSplineSet
Validated: 1
EndChar

StartChar: Delta
Encoding: 916 916 367
AltUni2: 002206.ffffffff.0 002206.ffffffff.0
Width: 1427
GlyphClass: 1
Flags: W
LayerCount: 2
Fore
SplineSet
774 1456 m 1,0,-1
 1372 0 l 1,1,-1
 45 0 l 1,2,-1
 661 1456 l 1,3,-1
 774 1456 l 1,0,-1
211 101 m 1,4,-1
 1206 101 l 1,5,-1
 720 1308 l 1,6,-1
 714 1308 l 1,7,-1
 211 101 l 1,4,-1
EndSplineSet
Validated: 1
EndChar

StartChar: Theta
Encoding: 920 920 371
Width: 1379
GlyphClass: 1
Flags: W
LayerCount: 2
Fore
SplineSet
966 676 m 1,0,-1
 412 676 l 1,1,-1
 412 777 l 1,2,-1
 966 777 l 1,3,-1
 966 676 l 1,0,-1
1254 609 m 2,4,5
 1254 327 1254 327 1099.5 153 c 128,-1,6
 945 -21 945 -21 685 -21 c 0,7,8
 429 -21 429 -21 276.5 153 c 128,-1,9
 124 327 124 327 124 609 c 2,10,-1
 124 846 l 2,11,12
 124 1127 124 1127 276 1302 c 128,-1,13
 428 1477 428 1477 684 1477 c 0,14,15
 944 1477 944 1477 1099 1302 c 128,-1,16
 1254 1127 1254 1127 1254 846 c 2,17,-1
 1254 609 l 2,4,5
1135 848 m 2,18,19
 1135 1084 1135 1084 1015.5 1228 c 128,-1,20
 896 1372 896 1372 684 1372 c 0,21,22
 476 1372 476 1372 360 1228 c 128,-1,23
 244 1084 244 1084 244 848 c 2,24,-1
 244 609 l 2,25,26
 244 371 244 371 360.5 227 c 128,-1,27
 477 83 477 83 685 83 c 0,28,29
 898 83 898 83 1016.5 226.5 c 128,-1,30
 1135 370 1135 370 1135 609 c 2,31,-1
 1135 848 l 2,18,19
EndSplineSet
Validated: 1
EndChar

StartChar: Lambda
Encoding: 923 923 374
Width: 1327
GlyphClass: 1
Flags: W
LayerCount: 2
Fore
SplineSet
662 1283 m 1,0,-1
 656 1283 l 1,1,-1
 194 0 l 1,2,-1
 69 0 l 1,3,-1
 603 1456 l 1,4,-1
 717 1456 l 1,5,-1
 1251 0 l 1,6,-1
 1127 0 l 1,7,-1
 662 1283 l 1,0,-1
EndSplineSet
Validated: 1
EndChar

StartChar: Xi
Encoding: 926 926 377
Width: 1145
GlyphClass: 1
Flags: W
LayerCount: 2
Fore
SplineSet
117 101 m 1,0,-1
 1036 101 l 1,1,-1
 1036 0 l 1,2,-1
 117 0 l 1,3,-1
 117 101 l 1,0,-1
213 784 m 1,4,-1
 931 784 l 1,5,-1
 931 682 l 1,6,-1
 213 682 l 1,7,-1
 213 784 l 1,4,-1
128 1456 m 1,8,-1
 1010 1456 l 1,9,-1
 1010 1354 l 1,10,-1
 128 1354 l 1,11,-1
 128 1456 l 1,8,-1
EndSplineSet
Validated: 1
EndChar

StartChar: Pi
Encoding: 928 928 379
Width: 1438
GlyphClass: 1
Flags: W
LayerCount: 2
Fore
SplineSet
1253 0 m 1,0,-1
 1133 0 l 1,1,-1
 1133 1354 l 1,2,-1
 305 1354 l 1,3,-1
 305 0 l 1,4,-1
 185 0 l 1,5,-1
 185 1456 l 1,6,-1
 1253 1456 l 1,7,-1
 1253 0 l 1,0,-1
EndSplineSet
Validated: 1
EndChar

StartChar: Sigma
Encoding: 931 931 381
Width: 1145
GlyphClass: 1
Flags: W
LayerCount: 2
Fore
SplineSet
703 743 m 1,0,-1
 213 102 l 1,1,-1
 1070 102 l 1,2,-1
 1070 0 l 1,3,-1
 63 0 l 1,4,-1
 63 93 l 1,5,-1
 579 759 l 1,6,-1
 63 1363 l 1,7,-1
 63 1456 l 1,8,-1
 1015 1456 l 1,9,-1
 1015 1354 l 1,10,-1
 227 1354 l 1,11,-1
 225 1349 l 1,12,-1
 703 779 l 1,13,-1
 703 743 l 1,0,-1
EndSplineSet
Validated: 1
EndChar

StartChar: Phi
Encoding: 934 934 384
Width: 1433
GlyphClass: 1
Flags: W
LayerCount: 2
Fore
SplineSet
777 1227 m 1,0,1
 1021 1221 1021 1221 1175 1078 c 128,-1,2
 1329 935 1329 935 1329 721 c 0,3,4
 1329 504 1329 504 1175 360 c 128,-1,5
 1021 216 1021 216 777 211 c 1,6,-1
 777 0 l 1,7,-1
 657 0 l 1,8,-1
 657 211 l 1,9,10
 411 216 411 216 258.5 359 c 128,-1,11
 106 502 106 502 106 719 c 0,12,13
 106 934 106 934 259 1077.5 c 128,-1,14
 412 1221 412 1221 657 1227 c 1,15,-1
 657 1456 l 1,16,-1
 777 1456 l 1,17,-1
 777 1227 l 1,0,1
1210 721 m 0,18,19
 1210 897 1210 897 1094.5 1008 c 128,-1,20
 979 1119 979 1119 783 1120 c 1,21,-1
 777 1117 l 1,22,-1
 777 320 l 1,23,-1
 783 317 l 1,24,25
 979 318 979 318 1094.5 430 c 128,-1,26
 1210 542 1210 542 1210 721 c 0,18,19
225 719 m 0,27,28
 225 540 225 540 339 429 c 128,-1,29
 453 318 453 318 651 317 c 1,30,-1
 657 320 l 1,31,-1
 657 1117 l 1,32,-1
 651 1120 l 1,33,34
 454 1118 454 1118 339.5 1006.5 c 128,-1,35
 225 895 225 895 225 719 c 0,27,28
EndSplineSet
Validated: 1
EndChar

StartChar: Psi
Encoding: 936 936 386
Width: 1422
GlyphClass: 1
Flags: W
LayerCount: 2
Fore
SplineSet
762 459 m 1,0,-1
 768 457 l 1,1,2
 947 466 947 466 1058 584 c 128,-1,3
 1169 702 1169 702 1169 896 c 2,4,-1
 1169 1456 l 1,5,-1
 1289 1456 l 1,6,-1
 1289 896 l 2,7,8
 1289 650 1289 650 1143.5 506 c 128,-1,9
 998 362 998 362 762 348 c 1,10,-1
 762 0 l 1,11,-1
 641 0 l 1,12,-1
 641 349 l 1,13,14
 408 364 408 364 266 508 c 128,-1,15
 124 652 124 652 124 896 c 2,16,-1
 124 1456 l 1,17,-1
 244 1456 l 1,18,-1
 244 896 l 2,19,20
 244 703 244 703 352 585.5 c 128,-1,21
 460 468 460 468 635 457 c 1,22,-1
 641 459 l 1,23,-1
 641 1456 l 1,24,-1
 762 1456 l 1,25,-1
 762 459 l 1,0,-1
EndSplineSet
Validated: 1
EndChar

StartChar: Omega
Encoding: 937 937 387
AltUni2: 002126.ffffffff.0 002126.ffffffff.0
Width: 1341
GlyphClass: 1
Flags: W
LayerCount: 2
Fore
SplineSet
749 116 m 1,0,1
 893 165 893 165 986.5 316 c 128,-1,2
 1080 467 1080 467 1080 727 c 2,3,-1
 1080 846 l 2,4,5
 1080 1085 1080 1085 966.5 1230 c 128,-1,6
 853 1375 853 1375 662 1375 c 0,7,8
 470 1375 470 1375 357.5 1230 c 128,-1,9
 245 1085 245 1085 245 846 c 2,10,-1
 245 727 l 2,11,12
 245 466 245 466 340.5 315 c 128,-1,13
 436 164 436 164 583 116 c 1,14,-1
 583 0 l 1,15,-1
 120 0 l 1,16,-1
 120 101 l 1,17,-1
 432 101 l 1,18,19
 294 188 294 188 210 351.5 c 128,-1,20
 126 515 126 515 126 727 c 2,21,-1
 126 844 l 2,22,23
 126 1127 126 1127 274 1302 c 128,-1,24
 422 1477 422 1477 662 1477 c 0,25,26
 901 1477 901 1477 1050.5 1301.5 c 128,-1,27
 1200 1126 1200 1126 1200 844 c 2,28,-1
 1200 727 l 2,29,30
 1200 515 1200 515 1115.5 351.5 c 128,-1,31
 1031 188 1031 188 896 101 c 1,32,-1
 1212 101 l 1,33,-1
 1212 0 l 1,34,-1
 749 0 l 1,35,-1
 749 116 l 1,0,1
EndSplineSet
Validated: 1
EndChar

StartChar: alpha
Encoding: 945 945 395
Width: 1153
GlyphClass: 1
Flags: W
LayerCount: 2
Fore
SplineSet
973 1081 m 1,0,-1
 973 254 l 2,1,2
 973 161 973 161 999.5 124 c 128,-1,3
 1026 87 1026 87 1075 87 c 0,4,5
 1090 87 1090 87 1103 89 c 128,-1,6
 1116 91 1116 91 1133 95 c 1,7,-1
 1150 2 l 1,8,9
 1127 -11 1127 -11 1103.5 -16 c 128,-1,10
 1080 -21 1080 -21 1053 -21 c 0,11,12
 973 -21 973 -21 926 18 c 128,-1,13
 879 57 879 57 863 143 c 1,14,15
 807 64 807 64 722 21.5 c 128,-1,16
 637 -21 637 -21 524 -21 c 0,17,18
 330 -21 330 -21 220.5 123.5 c 128,-1,19
 111 268 111 268 111 511 c 2,20,-1
 111 532 l 2,21,22
 111 791 111 791 220.5 946.5 c 128,-1,23
 330 1102 330 1102 526 1102 c 0,24,25
 640 1102 640 1102 724.5 1055.5 c 128,-1,26
 809 1009 809 1009 865 923 c 1,27,-1
 901 1081 l 1,28,-1
 973 1081 l 1,0,-1
231 511 m 2,29,30
 231 315 231 315 309.5 197.5 c 128,-1,31
 388 80 388 80 546 80 c 0,32,33
 657 80 657 80 733.5 129.5 c 128,-1,34
 810 179 810 179 854 266 c 1,35,-1
 854 801 l 1,36,37
 813 890 813 890 738.5 945 c 128,-1,38
 664 1000 664 1000 548 1000 c 0,39,40
 390 1000 390 1000 310.5 869.5 c 128,-1,41
 231 739 231 739 231 532 c 2,42,-1
 231 511 l 2,29,30
EndSplineSet
Validated: 1
EndChar

StartChar: beta
Encoding: 946 946 396
Width: 1213
GlyphClass: 1
Flags: W
LayerCount: 2
Fore
SplineSet
594 1477 m 0,0,1
 778 1477 778 1477 890.5 1369.5 c 128,-1,2
 1003 1262 1003 1262 1003 1093 c 0,3,4
 1003 992 1003 992 950.5 909.5 c 128,-1,5
 898 827 898 827 804 782 c 1,6,7
 942 743 942 743 1016 642.5 c 128,-1,8
 1090 542 1090 542 1090 404 c 0,9,10
 1090 204 1090 204 966 91.5 c 128,-1,11
 842 -21 842 -21 640 -21 c 0,12,13
 544 -21 544 -21 451.5 11.5 c 128,-1,14
 359 44 359 44 297 108 c 1,15,-1
 297 -399 l 1,16,-1
 177 -399 l 1,17,-1
 177 1063 l 2,18,19
 177 1237 177 1237 299.5 1357 c 128,-1,20
 422 1477 422 1477 594 1477 c 0,0,1
590 823 m 2,21,22
 741 823 741 823 812.5 895 c 128,-1,23
 884 967 884 967 884 1098 c 0,24,25
 884 1210 884 1210 808.5 1292.5 c 128,-1,26
 733 1375 733 1375 594 1375 c 0,27,28
 468 1375 468 1375 382.5 1286 c 128,-1,29
 297 1197 297 1197 297 1063 c 2,30,-1
 297 238 l 1,31,32
 342 165 342 165 431.5 122.5 c 128,-1,33
 521 80 521 80 631 80 c 0,34,35
 792 80 792 80 881 166 c 128,-1,36
 970 252 970 252 970 400 c 0,37,38
 970 540 970 540 882.5 630.5 c 128,-1,39
 795 721 795 721 639 721 c 2,40,-1
 496 721 l 1,41,-1
 496 823 l 1,42,-1
 590 823 l 2,21,22
EndSplineSet
Validated: 1
EndChar

StartChar: gamma
Encoding: 947 947 397
Width: 1002
GlyphClass: 1
Flags: W
LayerCount: 2
Fore
SplineSet
839 1082 m 1,0,-1
 963 1082 l 1,1,-1
 564 31 l 1,2,-1
 564 -416 l 1,3,-1
 444 -416 l 1,4,-1
 444 31 l 1,5,-1
 44 1082 l 1,6,-1
 168 1082 l 1,7,-1
 466 271 l 1,8,-1
 502 144 l 1,9,-1
 508 144 l 1,10,-1
 545 271 l 1,11,-1
 839 1082 l 1,0,-1
EndSplineSet
Validated: 1
EndChar

StartChar: delta
Encoding: 948 948 398
Width: 1140
GlyphClass: 1
Flags: W
LayerCount: 2
Fore
SplineSet
943 1456 m 1,0,-1
 943 1356 l 1,1,-1
 375 1356 l 1,2,-1
 373 1350 l 1,3,-1
 840 1022 l 2,4,5
 935 954 935 954 991.5 828.5 c 128,-1,6
 1048 703 1048 703 1048 557 c 2,7,-1
 1048 524 l 2,8,9
 1048 284 1048 284 917.5 131.5 c 128,-1,10
 787 -21 787 -21 571 -21 c 0,11,12
 353 -21 353 -21 222 131.5 c 128,-1,13
 91 284 91 284 91 524 c 2,14,-1
 91 557 l 2,15,16
 91 783 91 783 210.5 933 c 128,-1,17
 330 1083 330 1083 529 1098 c 0,18,19
 538 1098 538 1098 547 1097.5 c 128,-1,20
 556 1097 556 1097 559 1097 c 2,21,-1
 561 1103 l 1,22,-1
 194 1371 l 1,23,-1
 194 1456 l 1,24,-1
 943 1456 l 1,0,-1
569 1000 m 256,25,26
 401 1000 401 1000 306 871 c 128,-1,27
 211 742 211 742 211 557 c 2,28,-1
 211 524 l 2,29,30
 211 336 211 336 306 208 c 128,-1,31
 401 80 401 80 571 80 c 0,32,33
 738 80 738 80 833.5 208 c 128,-1,34
 929 336 929 336 929 524 c 2,35,-1
 929 557 l 2,36,37
 929 742 929 742 833 871 c 128,-1,38
 737 1000 737 1000 569 1000 c 256,25,26
EndSplineSet
Validated: 1
EndChar

StartChar: epsilon
Encoding: 949 949 399
Width: 1113
GlyphClass: 1
Flags: W
LayerCount: 2
Fore
SplineSet
107 297 m 0,0,1
 107 394 107 394 164 459.5 c 128,-1,2
 221 525 221 525 332 555 c 1,3,4
 234 589 234 589 180 652.5 c 128,-1,5
 126 716 126 716 126 794 c 0,6,7
 126 940 126 940 239.5 1019.5 c 128,-1,8
 353 1099 353 1099 550 1099 c 0,9,10
 731 1099 731 1099 855 1014.5 c 128,-1,11
 979 930 979 930 974 796 c 1,12,-1
 972 790 l 1,13,-1
 863 790 l 1,14,15
 863 881 863 881 772.5 939.5 c 128,-1,16
 682 998 682 998 550 998 c 0,17,18
 399 998 399 998 323 941 c 128,-1,19
 247 884 247 884 247 796 c 0,20,21
 247 704 247 704 319.5 653 c 128,-1,22
 392 602 392 602 546 602 c 2,23,-1
 731 602 l 1,24,-1
 731 502 l 1,25,-1
 546 502 l 2,26,27
 387 502 387 502 307.5 451.5 c 128,-1,28
 228 401 228 401 228 295 c 0,29,30
 228 199 228 199 313 140.5 c 128,-1,31
 398 82 398 82 550 82 c 0,32,33
 696 82 696 82 788 147.5 c 128,-1,34
 880 213 880 213 880 310 c 1,35,-1
 990 310 l 1,36,-1
 992 304 l 1,37,38
 997 148 997 148 864.5 65 c 128,-1,39
 732 -18 732 -18 550 -18 c 0,40,41
 353 -18 353 -18 230 66 c 128,-1,42
 107 150 107 150 107 297 c 0,0,1
EndSplineSet
Validated: 33
EndChar

StartChar: zeta
Encoding: 950 950 400
Width: 1020
GlyphClass: 1
Flags: W
LayerCount: 2
Fore
SplineSet
925 1456 m 1,0,-1
 925 1383 l 1,1,-1
 529 874 l 2,2,3
 404 719 404 719 351.5 602 c 128,-1,4
 299 485 299 485 299 363 c 0,5,6
 299 246 299 246 371 173.5 c 128,-1,7
 443 101 443 101 584 101 c 2,8,-1
 654 101 l 2,9,10
 784 101 784 101 852.5 46 c 128,-1,11
 921 -9 921 -9 921 -112 c 0,12,13
 920 -210 920 -210 846 -287.5 c 128,-1,14
 772 -365 772 -365 681 -400 c 1,15,-1
 636 -313 l 1,16,17
 698 -288 698 -288 752 -236 c 128,-1,18
 806 -184 806 -184 806 -116 c 0,19,20
 806 -60 806 -60 768 -30 c 128,-1,21
 730 0 730 0 646 0 c 2,22,-1
 566 0 l 2,23,24
 377 0 377 0 278.5 103.5 c 128,-1,25
 180 207 180 207 180 360 c 0,26,27
 180 476 180 476 239.5 619.5 c 128,-1,28
 299 763 299 763 437 932 c 2,29,-1
 776 1349 l 1,30,-1
 773 1354 l 1,31,-1
 73 1354 l 1,32,-1
 73 1456 l 1,33,-1
 925 1456 l 1,0,-1
EndSplineSet
Validated: 1
EndChar

StartChar: eta
Encoding: 951 951 401
Width: 1140
GlyphClass: 1
Flags: W
LayerCount: 2
Fore
SplineSet
264 1082 m 1,0,-1
 275 899 l 1,1,2
 327 995 327 995 414.5 1048.5 c 128,-1,3
 502 1102 502 1102 621 1102 c 0,4,5
 798 1102 798 1102 889.5 997 c 128,-1,6
 981 892 981 892 981 659 c 2,7,-1
 981 -415 l 1,8,-1
 861 -415 l 1,9,-1
 861 658 l 2,10,11
 861 844 861 844 791.5 922 c 128,-1,12
 722 1000 722 1000 594 1000 c 0,13,14
 470 1000 470 1000 392.5 939.5 c 128,-1,15
 315 879 315 879 278 777 c 1,16,-1
 278 0 l 1,17,-1
 158 0 l 1,18,-1
 158 1082 l 1,19,-1
 264 1082 l 1,0,-1
EndSplineSet
Validated: 1
EndChar

StartChar: theta
Encoding: 952 952 402
Width: 1174
GlyphClass: 1
Flags: W
LayerCount: 2
Fore
SplineSet
1026 514 m 2,0,1
 1026 265 1026 265 905.5 122 c 128,-1,2
 785 -21 785 -21 575 -21 c 256,3,4
 365 -21 365 -21 243 122.5 c 128,-1,5
 121 266 121 266 121 514 c 2,6,-1
 121 942 l 2,7,8
 121 1189 121 1189 242 1333 c 128,-1,9
 363 1477 363 1477 573 1477 c 256,10,11
 783 1477 783 1477 904.5 1333 c 128,-1,12
 1026 1189 1026 1189 1026 942 c 2,13,-1
 1026 514 l 2,0,1
240 775 m 1,14,-1
 906 775 l 1,15,-1
 906 961 l 2,16,17
 906 1152 906 1152 819.5 1263.5 c 128,-1,18
 733 1375 733 1375 573 1375 c 256,19,20
 413 1375 413 1375 326.5 1263 c 128,-1,21
 240 1151 240 1151 240 961 c 2,22,-1
 240 775 l 1,14,-1
906 673 m 1,23,-1
 240 673 l 1,24,-1
 240 496 l 2,25,26
 240 307 240 307 327.5 193.5 c 128,-1,27
 415 80 415 80 575 80 c 0,28,29
 734 80 734 80 820 193 c 128,-1,30
 906 306 906 306 906 496 c 2,31,-1
 906 673 l 1,23,-1
EndSplineSet
Validated: 1
EndChar

StartChar: iota
Encoding: 953 953 403
Width: 614
GlyphClass: 1
Flags: W
LayerCount: 2
Fore
SplineSet
302 1081 m 1,0,-1
 302 274 l 2,1,2
 302 168 302 168 340 125.5 c 128,-1,3
 378 83 378 83 447 83 c 0,4,5
 473 83 473 83 496 87 c 128,-1,6
 519 91 519 91 547 100 c 1,7,-1
 572 11 l 1,8,9
 538 -7 538 -7 502.5 -14 c 128,-1,10
 467 -21 467 -21 425 -21 c 0,11,12
 302 -21 302 -21 242 49.5 c 128,-1,13
 182 120 182 120 182 279 c 2,14,-1
 182 1081 l 1,15,-1
 302 1081 l 1,0,-1
EndSplineSet
Validated: 1
EndChar

StartChar: lambda
Encoding: 955 955 405
Width: 1140
GlyphClass: 1
Flags: W
LayerCount: 2
Fore
SplineSet
187 0 m 1,0,-1
 54 0 l 1,1,-1
 467 1053 l 1,2,-1
 406 1214 l 2,3,4
 374 1309 374 1309 331.5 1362.5 c 128,-1,5
 289 1416 289 1416 220 1416 c 0,6,7
 210 1416 210 1416 189 1414 c 128,-1,8
 168 1412 168 1412 152 1410 c 1,9,-1
 147 1505 l 1,10,11
 161 1509 161 1509 189 1513.5 c 128,-1,12
 217 1518 217 1518 237 1518 c 0,13,14
 356 1518 356 1518 418.5 1441 c 128,-1,15
 481 1364 481 1364 519 1254 c 2,16,-1
 880 289 l 2,17,18
 910 200 910 200 948.5 147.5 c 128,-1,19
 987 95 987 95 1038 95 c 0,20,21
 1051 95 1051 95 1066.5 96.5 c 128,-1,22
 1082 98 1082 98 1096 101 c 1,23,-1
 1100 0 l 1,24,25
 1089 -4 1089 -4 1067 -7.5 c 128,-1,26
 1045 -11 1045 -11 1031 -11 c 0,27,28
 929 -11 929 -11 869.5 59.5 c 128,-1,29
 810 130 810 130 765 252 c 2,30,-1
 524 899 l 1,31,-1
 518 899 l 1,32,-1
 484 784 l 1,33,-1
 187 0 l 1,0,-1
EndSplineSet
Validated: 1
EndChar

StartChar: xi
Encoding: 958 958 408
Width: 1046
GlyphClass: 1
Flags: W
LayerCount: 2
Fore
SplineSet
909 1456 m 1,0,-1
 909 1354 l 1,1,-1
 656 1354 l 1,2,3
 489 1349 489 1349 405.5 1279 c 128,-1,4
 322 1209 322 1209 322 1099 c 256,5,6
 322 989 322 989 407.5 929 c 128,-1,7
 493 869 493 869 677 869 c 2,8,-1
 808 869 l 1,9,-1
 808 766 l 1,10,-1
 677 766 l 2,11,12
 476 766 476 766 357.5 677.5 c 128,-1,13
 239 589 239 589 239 413 c 0,14,15
 239 267 239 267 351.5 179.5 c 128,-1,16
 464 92 464 92 654 92 c 2,17,-1
 705 92 l 2,18,19
 847 92 847 92 920.5 34 c 128,-1,20
 994 -24 994 -24 994 -132 c 0,21,22
 993 -227 993 -227 919 -301.5 c 128,-1,23
 845 -376 845 -376 754 -409 c 1,24,-1
 709 -321 l 1,25,26
 771 -298 771 -298 825.5 -249.5 c 128,-1,27
 880 -201 880 -201 880 -136 c 0,28,29
 880 -74 880 -74 839 -41 c 128,-1,30
 798 -8 798 -8 709 -8 c 2,31,-1
 654 -8 l 2,32,33
 421 -8 421 -8 270 105.5 c 128,-1,34
 119 219 119 219 119 417 c 0,35,36
 119 570 119 570 205 673 c 128,-1,37
 291 776 291 776 447 818 c 1,38,39
 330 855 330 855 265.5 928.5 c 128,-1,40
 201 1002 201 1002 201 1095 c 0,41,42
 201 1181 201 1181 239 1246.5 c 128,-1,43
 277 1312 277 1312 350 1354 c 1,44,-1
 99 1354 l 1,45,-1
 99 1456 l 1,46,-1
 909 1456 l 1,0,-1
EndSplineSet
Validated: 1
EndChar

StartChar: pi
Encoding: 960 960 410
Width: 1186
GlyphClass: 1
Flags: W
LayerCount: 2
Fore
SplineSet
1114 979 m 1,0,-1
 903 979 l 1,1,-1
 903 274 l 2,2,3
 903 168 903 168 941 125.5 c 128,-1,4
 979 83 979 83 1048 83 c 0,5,6
 1074 83 1074 83 1097 87 c 128,-1,7
 1120 91 1120 91 1148 100 c 1,8,-1
 1173 11 l 1,9,10
 1139 -7 1139 -7 1103.5 -14 c 128,-1,11
 1068 -21 1068 -21 1026 -21 c 0,12,13
 903 -21 903 -21 843 49.5 c 128,-1,14
 783 120 783 120 783 279 c 2,15,-1
 783 979 l 1,16,-1
 361 979 l 1,17,-1
 361 0 l 1,18,-1
 241 0 l 1,19,-1
 241 979 l 1,20,-1
 81 979 l 1,21,-1
 81 1082 l 1,22,-1
 1114 1082 l 1,23,-1
 1114 979 l 1,0,-1
EndSplineSet
Validated: 1
EndChar

StartChar: rho
Encoding: 961 961 411
Width: 1140
GlyphClass: 1
Flags: W
LayerCount: 2
Fore
SplineSet
1027 511 m 2,0,1
 1027 268 1027 268 918 123.5 c 128,-1,2
 809 -21 809 -21 616 -21 c 0,3,4
 504 -21 504 -21 419 19 c 128,-1,5
 334 59 334 59 278 134 c 1,6,-1
 278 -416 l 1,7,-1
 158 -416 l 1,8,-1
 158 599 l 1,9,-1
 159 599 l 1,10,-1
 158 608 l 1,11,12
 158 842 158 842 280.5 972 c 128,-1,13
 403 1102 403 1102 592 1102 c 0,14,15
 799 1102 799 1102 913 947.5 c 128,-1,16
 1027 793 1027 793 1027 532 c 2,17,-1
 1027 511 l 2,0,1
907 532 m 2,18,19
 907 739 907 739 828 869.5 c 128,-1,20
 749 1000 749 1000 592 1000 c 0,21,22
 434 1000 434 1000 356 878 c 128,-1,23
 278 756 278 756 278 596 c 2,24,-1
 278 269 l 1,25,26
 320 181 320 181 397 130.5 c 128,-1,27
 474 80 474 80 589 80 c 0,28,29
 746 80 746 80 826.5 197.5 c 128,-1,30
 907 315 907 315 907 511 c 2,31,-1
 907 532 l 2,18,19
EndSplineSet
Validated: 1
EndChar

StartChar: sigma1
Encoding: 962 962 412
Width: 1095
GlyphClass: 1
Flags: W
LayerCount: 2
Fore
SplineSet
573 1102 m 0,0,1
 749 1102 749 1102 863 1000.5 c 128,-1,2
 977 899 977 899 973 721 c 1,3,-1
 971 715 l 1,4,-1
 864 715 l 1,5,6
 864 847 864 847 783 923.5 c 128,-1,7
 702 1000 702 1000 573 1000 c 0,8,9
 407 1000 407 1000 319 873 c 128,-1,10
 231 746 231 746 231 562 c 2,11,-1
 231 520 l 2,12,13
 231 342 231 342 329 225 c 128,-1,14
 427 108 427 108 616 89 c 0,15,16
 767 72 767 72 837.5 21 c 128,-1,17
 908 -30 908 -30 908 -134 c 0,18,19
 907 -229 907 -229 832.5 -303 c 128,-1,20
 758 -377 758 -377 667 -411 c 1,21,-1
 622 -324 l 1,22,23
 685 -300 685 -300 739 -251.5 c 128,-1,24
 793 -203 793 -203 793 -139 c 0,25,26
 793 -80 793 -80 748.5 -50.5 c 128,-1,27
 704 -21 704 -21 603 -11 c 0,28,29
 366 13 366 13 238.5 153 c 128,-1,30
 111 293 111 293 111 520 c 2,31,-1
 111 562 l 2,32,33
 111 795 111 795 235.5 948.5 c 128,-1,34
 360 1102 360 1102 573 1102 c 0,0,1
EndSplineSet
Validated: 33
EndChar

StartChar: sigma
Encoding: 963 963 413
Width: 1140
GlyphClass: 1
Flags: W
LayerCount: 2
Fore
SplineSet
1131 979 m 1,0,-1
 818 979 l 1,1,2
 927 910 927 910 987.5 796.5 c 128,-1,3
 1048 683 1048 683 1048 539 c 2,4,-1
 1048 506 l 2,5,6
 1048 280 1048 280 916.5 129.5 c 128,-1,7
 785 -21 785 -21 571 -21 c 0,8,9
 353 -21 353 -21 222 131.5 c 128,-1,10
 91 284 91 284 91 524 c 2,11,-1
 91 557 l 2,12,13
 91 786 91 786 221.5 933.5 c 128,-1,14
 352 1081 352 1081 568 1082 c 2,15,-1
 1131 1082 l 1,16,-1
 1131 979 l 1,0,-1
211 524 m 2,17,18
 211 336 211 336 306 208 c 128,-1,19
 401 80 401 80 571 80 c 0,20,21
 738 80 738 80 833.5 208 c 128,-1,22
 929 336 929 336 929 524 c 2,23,-1
 929 557 l 2,24,25
 929 733 929 733 833 856 c 128,-1,26
 737 979 737 979 569 979 c 2,27,-1
 568 979 l 2,28,29
 400 978 400 978 305.5 855 c 128,-1,30
 211 732 211 732 211 557 c 2,31,-1
 211 524 l 2,17,18
EndSplineSet
Validated: 1
EndChar

StartChar: tau
Encoding: 964 964 414
Width: 1047
GlyphClass: 1
Flags: W
LayerCount: 2
Fore
SplineSet
969 980 m 1,0,-1
 576 980 l 1,1,-1
 576 0 l 1,2,-1
 456 0 l 1,3,-1
 456 980 l 1,4,-1
 77 980 l 1,5,-1
 77 1082 l 1,6,-1
 969 1082 l 1,7,-1
 969 980 l 1,0,-1
EndSplineSet
Validated: 1
EndChar

StartChar: upsilon
Encoding: 965 965 415
Width: 1140
GlyphClass: 1
Flags: W
LayerCount: 2
Fore
SplineSet
275 1082 m 1,0,-1
 275 478 l 2,1,2
 275 273 275 273 356 176.5 c 128,-1,3
 437 80 437 80 576 80 c 0,4,5
 742 80 742 80 817 209 c 128,-1,6
 892 338 892 338 892 529 c 0,7,8
 890 673 890 673 859 809.5 c 128,-1,9
 828 946 828 946 775 1082 c 1,10,-1
 905 1082 l 1,11,12
 954 957 954 957 982.5 829.5 c 128,-1,13
 1011 702 1011 702 1011 531 c 0,14,15
 1011 283 1011 283 906.5 131 c 128,-1,16
 802 -21 802 -21 581 -21 c 0,17,18
 379 -21 379 -21 267 101.5 c 128,-1,19
 155 224 155 224 155 480 c 2,20,-1
 155 1082 l 1,21,-1
 275 1082 l 1,0,-1
EndSplineSet
Validated: 1
EndChar

StartChar: phi
Encoding: 966 966 416
Width: 1404
GlyphClass: 1
Flags: W
LayerCount: 2
Fore
SplineSet
756 1082 m 2,0,1
 986 1082 986 1082 1140 924 c 128,-1,2
 1294 766 1294 766 1294 525 c 0,3,4
 1294 304 1294 304 1157.5 151 c 128,-1,5
 1021 -2 1021 -2 756 -19 c 1,6,-1
 756 -478 l 1,7,-1
 636 -478 l 1,8,-1
 636 -19 l 1,9,10
 368 -1 368 -1 240.5 154.5 c 128,-1,11
 113 310 113 310 113 554 c 0,12,13
 113 717 113 717 150.5 839 c 128,-1,14
 188 961 188 961 253 1082 c 1,15,-1
 383 1082 l 1,16,17
 313 952 313 952 273 820.5 c 128,-1,18
 233 689 233 689 233 553 c 0,19,20
 233 366 233 366 327 234.5 c 128,-1,21
 421 103 421 103 630 90 c 1,22,-1
 636 92 l 1,23,-1
 636 1082 l 1,24,-1
 756 1082 l 2,0,1
1175 524 m 0,25,26
 1173 709 1173 709 1058.5 843 c 128,-1,27
 944 977 944 977 762 973 c 1,28,-1
 756 971 l 1,29,-1
 756 90 l 1,30,-1
 762 88 l 1,31,32
 964 99 964 99 1069.5 226 c 128,-1,33
 1175 353 1175 353 1175 524 c 0,25,26
EndSplineSet
Validated: 33
EndChar

StartChar: chi
Encoding: 967 967 417
Width: 1140
GlyphClass: 1
Flags: W
LayerCount: 2
Fore
SplineSet
158 1093 m 0,0,1
 268 1093 268 1093 329 1021.5 c 128,-1,2
 390 950 390 950 441 839 c 2,3,-1
 585 506 l 1,4,-1
 591 506 l 1,5,-1
 892 1082 l 1,6,-1
 1017 1082 l 1,7,-1
 646 367 l 1,8,-1
 861 -127 l 2,9,10
 911 -233 911 -233 940.5 -277 c 128,-1,11
 970 -321 970 -321 1019 -321 c 0,12,13
 1032 -321 1032 -321 1047 -319 c 128,-1,14
 1062 -317 1062 -317 1077 -315 c 1,15,-1
 1081 -415 l 1,16,17
 1070 -419 1070 -419 1048.5 -423 c 128,-1,18
 1027 -427 1027 -427 1011 -427 c 0,19,20
 919 -427 919 -427 864.5 -367 c 128,-1,21
 810 -307 810 -307 748 -163 c 2,22,-1
 578 225 l 1,23,-1
 572 225 l 1,24,-1
 240 -414 l 1,25,-1
 112 -414 l 1,26,-1
 517 363 l 1,27,-1
 327 797 l 2,28,29
 281 899 281 899 244.5 945 c 128,-1,30
 208 991 208 991 141 991 c 0,31,32
 129 991 129 991 106.5 989 c 128,-1,33
 84 987 84 987 73 985 c 1,34,-1
 68 1081 l 1,35,36
 83 1085 83 1085 110.5 1089 c 128,-1,37
 138 1093 138 1093 158 1093 c 0,0,1
EndSplineSet
Validated: 1
EndChar

StartChar: psi
Encoding: 968 968 418
Width: 1400
GlyphClass: 1
Flags: W
LayerCount: 2
Fore
SplineSet
751 1081 m 1,0,-1
 751 91 l 1,1,-1
 757 89 l 1,2,3
 974 101 974 101 1072.5 240 c 128,-1,4
 1171 379 1171 379 1171 578 c 0,5,6
 1169 707 1169 707 1132 832.5 c 128,-1,7
 1095 958 1095 958 1031 1082 c 1,8,-1
 1162 1082 l 1,9,10
 1221 967 1221 967 1255.5 850.5 c 128,-1,11
 1290 734 1290 734 1290 579 c 0,12,13
 1290 320 1290 320 1159 158 c 128,-1,14
 1028 -4 1028 -4 751 -19 c 1,15,-1
 751 -443 l 1,16,-1
 632 -443 l 1,17,-1
 632 -18 l 1,18,19
 389 0 389 0 255 150 c 128,-1,20
 121 300 121 300 121 593 c 2,21,-1
 121 1082 l 1,22,-1
 241 1082 l 1,23,-1
 241 591 l 2,24,25
 241 348 241 348 344.5 224.5 c 128,-1,26
 448 101 448 101 626 90 c 1,27,-1
 632 92 l 1,28,-1
 632 1081 l 1,29,-1
 751 1081 l 1,0,-1
EndSplineSet
Validated: 1
EndChar

StartChar: omega
Encoding: 969 969 419
Width: 1758
GlyphClass: 1
Flags: W
LayerCount: 2
Fore
SplineSet
408 1082 m 1,0,1
 336 946 336 946 294.5 809.5 c 128,-1,2
 253 673 253 673 251 529 c 0,3,4
 251 336 251 336 322 208 c 128,-1,5
 393 80 393 80 538 80 c 0,6,7
 666 80 666 80 742 176.5 c 128,-1,8
 818 273 818 273 818 478 c 2,9,-1
 818 770 l 1,10,-1
 939 770 l 1,11,-1
 939 478 l 2,12,13
 939 273 939 273 1014.5 176.5 c 128,-1,14
 1090 80 1090 80 1219 80 c 0,15,16
 1363 80 1363 80 1434.5 208 c 128,-1,17
 1506 336 1506 336 1506 529 c 0,18,19
 1504 672 1504 672 1462.5 808.5 c 128,-1,20
 1421 945 1421 945 1349 1082 c 1,21,-1
 1479 1082 l 1,22,23
 1546 957 1546 957 1585.5 829.5 c 128,-1,24
 1625 702 1625 702 1625 531 c 0,25,26
 1625 287 1625 287 1523.5 133 c 128,-1,27
 1422 -21 1422 -21 1225 -21 c 0,28,29
 1096 -21 1096 -21 1007 43.5 c 128,-1,30
 918 108 918 108 878 238 c 1,31,32
 837 108 837 108 748.5 43.5 c 128,-1,33
 660 -21 660 -21 532 -21 c 0,34,35
 334 -21 334 -21 233 133 c 128,-1,36
 132 287 132 287 132 531 c 0,37,38
 132 702 132 702 171 830.5 c 128,-1,39
 210 959 210 959 278 1082 c 1,40,-1
 408 1082 l 1,0,1
EndSplineSet
Validated: 1
EndChar

StartChar: uni03D1
Encoding: 977 977 425
Width: 1259
GlyphClass: 2
Flags: W
LayerCount: 2
Fore
SplineSet
541 1036 m 1,0,-1
 541 1098 l 2,1,2
 541 1270 541 1270 626.5 1373.5 c 128,-1,3
 712 1477 712 1477 847 1477 c 0,4,5
 989 1477 989 1477 1071 1376 c 128,-1,6
 1153 1275 1153 1275 1153 1098 c 2,7,-1
 1153 549 l 2,8,9
 1153 283 1153 283 1011 131 c 128,-1,10
 869 -21 869 -21 633 -21 c 0,11,12
 408 -21 408 -21 270.5 137 c 128,-1,13
 133 295 133 295 133 549 c 2,14,-1
 133 1252 l 1,15,-1
 253 1254 l 1,16,-1
 253 549 l 2,17,18
 253 337 253 337 355 210 c 128,-1,19
 457 83 457 83 633 83 c 0,20,21
 823 83 823 83 928.5 204 c 128,-1,22
 1034 325 1034 325 1034 549 c 2,23,-1
 1034 585 l 1,24,25
 812 593 812 593 676.5 718.5 c 128,-1,26
 541 844 541 844 541 1036 c 1,27,-1
 541 1036 l 1,0,-1
1034 1098 m 2,28,29
 1034 1233 1034 1233 986.5 1302.5 c 128,-1,30
 939 1372 939 1372 847 1372 c 0,31,32
 761 1372 761 1372 711 1303 c 128,-1,33
 661 1234 661 1234 661 1098 c 2,34,-1
 661 1034 l 2,35,36
 661 890 661 890 759 795 c 128,-1,37
 857 700 857 700 1029 695 c 1,38,-1
 1034 697 l 1,39,-1
 1034 1098 l 2,28,29
EndSplineSet
Validated: 5
EndChar

StartChar: uni03D2
Encoding: 978 978 426
Width: 1098
GlyphClass: 1
Flags: W
LayerCount: 2
Fore
SplineSet
780 1239 m 2,0,1
 831 1363 831 1363 892 1415 c 128,-1,2
 953 1467 953 1467 1039 1467 c 0,3,4
 1069 1467 1069 1467 1096 1460 c 128,-1,5
 1123 1453 1123 1453 1145 1441 c 1,6,-1
 1122 1347 l 1,7,8
 1112 1352 1112 1352 1095 1357 c 128,-1,9
 1078 1362 1078 1362 1058 1362 c 0,10,11
 1010 1362 1010 1362 970.5 1333 c 128,-1,12
 931 1304 931 1304 894 1219 c 2,13,-1
 613 599 l 1,14,-1
 613 0 l 1,15,-1
 493 0 l 1,16,-1
 493 601 l 1,17,-1
 209 1219 l 2,18,19
 170 1304 170 1304 131 1333 c 128,-1,20
 92 1362 92 1362 45 1362 c 0,21,22
 24 1362 24 1362 8 1357 c 128,-1,23
 -8 1352 -8 1352 -18 1347 c 1,24,-1
 -41 1441 l 1,25,26
 -19 1453 -19 1453 7.5 1460 c 128,-1,27
 34 1467 34 1467 64 1467 c 0,28,29
 149 1467 149 1467 210 1415 c 128,-1,30
 271 1363 271 1363 323 1239 c 2,31,-1
 513 813 l 1,32,-1
 549 701 l 1,33,-1
 555 701 l 1,34,-1
 591 813 l 1,35,-1
 780 1239 l 2,0,1
EndSplineSet
Validated: 1
EndChar

StartChar: uni03D6
Encoding: 982 982 427
Width: 1610
GlyphClass: 1
Flags: W
LayerCount: 2
Fore
SplineSet
1573 979 m 1,0,-1
 1407 979 l 1,1,2
 1448 882 1448 882 1471.5 773.5 c 128,-1,3
 1495 665 1495 665 1495 531 c 0,4,5
 1495 288 1495 288 1403 133.5 c 128,-1,6
 1311 -21 1311 -21 1133 -21 c 0,7,8
 1012 -21 1012 -21 928.5 42 c 128,-1,9
 845 105 845 105 806 232 c 1,10,11
 766 105 766 105 683.5 42 c 128,-1,12
 601 -21 601 -21 481 -21 c 0,13,14
 302 -21 302 -21 210.5 133.5 c 128,-1,15
 119 288 119 288 119 531 c 0,16,17
 119 664 119 664 142 772.5 c 128,-1,18
 165 881 165 881 207 979 c 1,19,-1
 56 979 l 1,20,-1
 56 1082 l 1,21,-1
 1573 1082 l 1,22,-1
 1573 979 l 1,0,-1
1376 529 m 0,23,24
 1374 645 1374 645 1347.5 756.5 c 128,-1,25
 1321 868 1321 868 1275 979 c 1,26,-1
 338 979 l 1,27,28
 291 868 291 868 264.5 756 c 128,-1,29
 238 644 238 644 238 529 c 0,30,31
 238 336 238 336 300 208 c 128,-1,32
 362 80 362 80 487 80 c 0,33,34
 606 80 606 80 676 176.5 c 128,-1,35
 746 273 746 273 746 478 c 2,36,-1
 746 747 l 1,37,-1
 867 747 l 1,38,-1
 867 478 l 2,39,40
 867 273 867 273 937 176.5 c 128,-1,41
 1007 80 1007 80 1128 80 c 0,42,43
 1251 80 1251 80 1313.5 208 c 128,-1,44
 1376 336 1376 336 1376 529 c 0,23,24
EndSplineSet
Validated: 1
EndChar

StartChar: uni0402
Encoding: 1026 1026 430
Width: 1548
GlyphClass: 1
Flags: W
LayerCount: 2
Fore
SplineSet
1196 1354 m 1,0,-1
 700 1354 l 1,1,-1
 700 859 l 1,2,-1
 889 859 l 2,3,4
 1125 859 1125 859 1269.5 742.5 c 128,-1,5
 1414 626 1414 626 1414 399 c 0,6,7
 1414 266 1414 266 1323.5 133 c 128,-1,8
 1233 0 1233 0 1040 -34 c 1,9,-1
 1008 57 l 1,10,11
 1160 91 1160 91 1226.5 185 c 128,-1,12
 1293 279 1293 279 1294 399 c 0,13,14
 1296 573 1296 573 1184 663 c 128,-1,15
 1072 753 1072 753 889 753 c 2,16,-1
 700 753 l 1,17,-1
 700 0 l 1,18,-1
 581 0 l 1,19,-1
 581 1354 l 1,20,-1
 68 1354 l 1,21,-1
 68 1456 l 1,22,-1
 1196 1456 l 1,23,-1
 1196 1354 l 1,0,-1
EndSplineSet
Validated: 33
EndChar

StartChar: uni0404
Encoding: 1028 1028 432
Width: 1353
GlyphClass: 1
Flags: W
LayerCount: 2
Fore
SplineSet
1206 456 m 1,0,-1
 1208 450 l 1,1,2
 1212 236 1212 236 1068 108 c 128,-1,3
 924 -20 924 -20 690 -20 c 0,4,5
 447 -20 447 -20 298 155.5 c 128,-1,6
 149 331 149 331 149 610 c 2,7,-1
 149 847 l 2,8,9
 149 1125 149 1125 298 1301.5 c 128,-1,10
 447 1478 447 1478 690 1478 c 0,11,12
 927 1478 927 1478 1069.5 1353 c 128,-1,13
 1212 1228 1212 1228 1208 1009 c 1,14,-1
 1206 1003 l 1,15,-1
 1094 1003 l 1,16,17
 1094 1179 1094 1179 986.5 1277.5 c 128,-1,18
 879 1376 879 1376 690 1376 c 0,19,20
 499 1376 499 1376 383.5 1228 c 128,-1,21
 268 1080 268 1080 268 849 c 2,22,-1
 268 788 l 1,23,-1
 833 788 l 1,24,-1
 833 687 l 1,25,-1
 268 687 l 1,26,-1
 268 610 l 2,27,28
 268 376 268 376 383.5 228.5 c 128,-1,29
 499 81 499 81 690 81 c 0,30,31
 879 81 879 81 986.5 177 c 128,-1,32
 1094 273 1094 273 1094 456 c 1,33,-1
 1206 456 l 1,0,-1
EndSplineSet
Validated: 33
EndChar

StartChar: uni0405
Encoding: 1029 1029 433
Width: 1236
GlyphClass: 1
Flags: W
LayerCount: 2
Fore
SplineSet
1007 354 m 0,0,1
 1007 466 1007 466 918 539 c 128,-1,2
 829 612 829 612 616 676 c 1,3,4
 383 740 383 740 261.5 835.5 c 128,-1,5
 140 931 140 931 140 1095 c 0,6,7
 140 1262 140 1262 276 1369.5 c 128,-1,8
 412 1477 412 1477 623 1477 c 0,9,10
 845 1477 845 1477 980 1355.5 c 128,-1,11
 1115 1234 1115 1234 1111 1047 c 1,12,-1
 1109 1041 l 1,13,-1
 997 1041 l 1,14,15
 997 1185 997 1185 892.5 1280 c 128,-1,16
 788 1375 788 1375 623 1375 c 0,17,18
 453 1375 453 1375 356.5 1294.5 c 128,-1,19
 260 1214 260 1214 260 1097 c 0,20,21
 260 986 260 986 347.5 914.5 c 128,-1,22
 435 843 435 843 656 781 c 0,23,24
 886 714 886 714 1007 616 c 128,-1,25
 1128 518 1128 518 1128 356 c 0,26,27
 1128 186 1128 186 986.5 82.5 c 128,-1,28
 845 -21 845 -21 630 -21 c 256,29,30
 415 -21 415 -21 255 88.5 c 128,-1,31
 95 198 95 198 100 408 c 1,32,-1
 102 414 l 1,33,-1
 213 414 l 1,34,35
 213 245 213 245 340 162.5 c 128,-1,36
 467 80 467 80 630 80 c 0,37,38
 797 80 797 80 902 156.5 c 128,-1,39
 1007 233 1007 233 1007 354 c 0,0,1
EndSplineSet
Validated: 33
EndChar

StartChar: uni0409
Encoding: 1033 1033 437
Width: 2205
GlyphClass: 1
Flags: W
LayerCount: 2
Fore
SplineSet
1250 1456 m 1,0,-1
 1250 846 l 1,1,-1
 1615 846 l 2,2,3
 1844 846 1844 846 1969.5 729 c 128,-1,4
 2095 612 2095 612 2095 423 c 256,5,6
 2095 234 2095 234 1969 117 c 128,-1,7
 1843 0 1843 0 1615 0 c 2,8,-1
 1130 0 l 1,9,-1
 1130 1354 l 1,10,-1
 568 1354 l 1,11,-1
 549 797 l 2,12,13
 532 360 532 360 436 180 c 128,-1,14
 340 0 340 0 93 0 c 2,15,-1
 52 0 l 1,16,-1
 52 101 l 1,17,-1
 89 101 l 2,18,19
 264 101 264 101 338 249 c 128,-1,20
 412 397 412 397 429 797 c 2,21,-1
 452 1456 l 1,22,-1
 1250 1456 l 1,0,-1
1250 745 m 1,23,-1
 1250 101 l 1,24,-1
 1615 101 l 2,25,26
 1795 101 1795 101 1885.5 194 c 128,-1,27
 1976 287 1976 287 1976 425 c 0,28,29
 1976 558 1976 558 1885 651.5 c 128,-1,30
 1794 745 1794 745 1615 745 c 2,31,-1
 1250 745 l 1,23,-1
EndSplineSet
Validated: 1
EndChar

StartChar: uni040A
Encoding: 1034 1034 438
Width: 2205
GlyphClass: 1
Flags: W
LayerCount: 2
Fore
SplineSet
302 785 m 1,0,-1
 1130 785 l 1,1,-1
 1130 1456 l 1,2,-1
 1250 1456 l 1,3,-1
 1250 824 l 1,4,-1
 1615 824 l 2,5,6
 1845 824 1845 824 1970 711 c 128,-1,7
 2095 598 2095 598 2095 414 c 0,8,9
 2095 229 2095 229 1969 114.5 c 128,-1,10
 1843 0 1843 0 1615 0 c 2,11,-1
 1130 0 l 1,12,-1
 1130 684 l 1,13,-1
 302 684 l 1,14,-1
 302 0 l 1,15,-1
 182 0 l 1,16,-1
 182 1456 l 1,17,-1
 302 1456 l 1,18,-1
 302 785 l 1,0,-1
1250 722 m 1,19,-1
 1250 106 l 1,20,-1
 1615 106 l 2,21,22
 1795 106 1795 106 1885.5 194 c 128,-1,23
 1976 282 1976 282 1976 416 c 0,24,25
 1976 545 1976 545 1885.5 633.5 c 128,-1,26
 1795 722 1795 722 1615 722 c 2,27,-1
 1250 722 l 1,19,-1
EndSplineSet
Validated: 1
EndChar

StartChar: uni040B
Encoding: 1035 1035 439
Width: 1635
GlyphClass: 1
Flags: W
LayerCount: 2
Fore
SplineSet
1212 1354 m 1,0,-1
 716 1354 l 1,1,-1
 716 939 l 1,2,-1
 994 939 l 2,3,4
 1232 939 1232 939 1355 826.5 c 128,-1,5
 1478 714 1478 714 1478 465 c 2,6,-1
 1478 0 l 1,7,-1
 1359 0 l 1,8,-1
 1359 465 l 2,9,10
 1359 663 1359 663 1269 750 c 128,-1,11
 1179 837 1179 837 994 837 c 2,12,-1
 716 837 l 1,13,-1
 716 0 l 1,14,-1
 597 0 l 1,15,-1
 597 1354 l 1,16,-1
 84 1354 l 1,17,-1
 84 1456 l 1,18,-1
 1212 1456 l 1,19,-1
 1212 1354 l 1,0,-1
EndSplineSet
Validated: 1
EndChar

StartChar: uni040F
Encoding: 1039 1039 443
Width: 1433
GlyphClass: 1
Flags: W
LayerCount: 2
Fore
SplineSet
182 1456 m 1,0,-1
 302 1456 l 1,1,-1
 302 101 l 1,2,-1
 1130 101 l 1,3,-1
 1130 1456 l 1,4,-1
 1250 1456 l 1,5,-1
 1250 0 l 1,6,-1
 781 0 l 1,7,-1
 781 -353 l 1,8,-1
 662 -353 l 1,9,-1
 662 0 l 1,10,-1
 182 0 l 1,11,-1
 182 1456 l 1,0,-1
EndSplineSet
Validated: 1
EndChar

StartChar: uni0411
Encoding: 1041 1041 445
Width: 1285
GlyphClass: 1
Flags: W
LayerCount: 2
Fore
SplineSet
1055 1354 m 1,0,-1
 299 1354 l 1,1,-1
 299 842 l 1,2,-1
 663 842 l 2,3,4
 893 842 893 842 1018.5 726.5 c 128,-1,5
 1144 611 1144 611 1144 423 c 0,6,7
 1144 234 1144 234 1017.5 117 c 128,-1,8
 891 0 891 0 663 0 c 2,9,-1
 179 0 l 1,10,-1
 179 1456 l 1,11,-1
 1055 1456 l 1,12,-1
 1055 1354 l 1,0,-1
299 740 m 1,13,-1
 299 101 l 1,14,-1
 663 101 l 2,15,16
 843 101 843 101 933 194 c 128,-1,17
 1023 287 1023 287 1023 425 c 0,18,19
 1023 558 1023 558 933 649 c 128,-1,20
 843 740 843 740 663 740 c 2,21,-1
 299 740 l 1,13,-1
EndSplineSet
Validated: 1
EndChar

StartChar: uni0414
Encoding: 1044 1044 448
Width: 1494
GlyphClass: 1
Flags: W
LayerCount: 2
Fore
SplineSet
1272 101 m 1,0,-1
 1428 101 l 1,1,-1
 1428 -353 l 1,2,-1
 1308 -353 l 1,3,-1
 1308 0 l 1,4,-1
 173 0 l 1,5,-1
 173 -353 l 1,6,-1
 54 -353 l 1,7,-1
 54 101 l 1,8,-1
 120 101 l 2,9,10
 259 101 259 101 345 314.5 c 128,-1,11
 431 528 431 528 456 932 c 1,12,-1
 494 1456 l 1,13,-1
 1272 1456 l 1,14,-1
 1272 101 l 1,0,-1
577 932 m 2,15,16
 559 631 559 631 502.5 419 c 128,-1,17
 446 207 446 207 347 101 c 1,18,-1
 1152 101 l 1,19,-1
 1152 1354 l 1,20,-1
 606 1354 l 1,21,-1
 577 932 l 2,15,16
EndSplineSet
Validated: 1
EndChar

StartChar: uni0416
Encoding: 1046 1046 450
Width: 1648
GlyphClass: 1
Flags: W
LayerCount: 2
Fore
SplineSet
965 695 m 1,0,-1
 885 695 l 1,1,-1
 885 0 l 1,2,-1
 766 0 l 1,3,-1
 766 695 l 1,4,-1
 680 695 l 1,5,-1
 179 0 l 1,6,-1
 27 0 l 1,7,-1
 573 752 l 1,8,-1
 65 1456 l 1,9,-1
 209 1456 l 1,10,-1
 673 797 l 1,11,-1
 766 797 l 1,12,-1
 766 1456 l 1,13,-1
 885 1456 l 1,14,-1
 885 797 l 1,15,-1
 974 797 l 1,16,-1
 1439 1456 l 1,17,-1
 1582 1456 l 1,18,-1
 1074 753 l 1,19,-1
 1620 0 l 1,20,-1
 1469 0 l 1,21,-1
 965 695 l 1,0,-1
EndSplineSet
Validated: 1
EndChar

StartChar: uni0417
Encoding: 1047 1047 451
Width: 1352
GlyphClass: 1
Flags: W
LayerCount: 2
Fore
SplineSet
669 794 m 2,0,1
 883 794 883 794 985.5 868.5 c 128,-1,2
 1088 943 1088 943 1088 1077 c 256,3,4
 1088 1211 1088 1211 981.5 1293 c 128,-1,5
 875 1375 875 1375 664 1375 c 0,6,7
 493 1375 493 1375 378 1291 c 128,-1,8
 263 1207 263 1207 263 1075 c 1,9,-1
 152 1075 l 1,10,-1
 150 1081 l 1,11,12
 144 1257 144 1257 294 1367 c 128,-1,13
 444 1477 444 1477 664 1477 c 0,14,15
 916 1477 916 1477 1061.5 1372 c 128,-1,16
 1207 1267 1207 1267 1207 1073 c 0,17,18
 1207 964 1207 964 1132.5 876.5 c 128,-1,19
 1058 789 1058 789 924 746 c 1,20,21
 1075 707 1075 707 1152.5 618 c 128,-1,22
 1230 529 1230 529 1230 395 c 0,23,24
 1230 200 1230 200 1073 89.5 c 128,-1,25
 916 -21 916 -21 664 -21 c 0,26,27
 444 -21 444 -21 284 87 c 128,-1,28
 124 195 124 195 129 398 c 1,29,-1
 131 404 l 1,30,-1
 243 404 l 1,31,32
 243 264 243 264 359.5 172 c 128,-1,33
 476 80 476 80 664 80 c 0,34,35
 874 80 874 80 992 164 c 128,-1,36
 1110 248 1110 248 1110 391 c 0,37,38
 1110 546 1110 546 999 618.5 c 128,-1,39
 888 691 888 691 669 691 c 2,40,-1
 485 691 l 1,41,-1
 485 794 l 1,42,-1
 669 794 l 2,0,1
EndSplineSet
Validated: 33
EndChar

StartChar: uni0418
Encoding: 1048 1048 452
Width: 1444
GlyphClass: 1
Flags: W
LayerCount: 2
Fore
SplineSet
1141 1456 m 1,0,-1
 1260 1456 l 1,1,-1
 1260 0 l 1,2,-1
 1141 0 l 1,3,-1
 1141 1245 l 1,4,-1
 1135 1246 l 1,5,-1
 307 0 l 1,6,-1
 187 0 l 1,7,-1
 187 1456 l 1,8,-1
 307 1456 l 1,9,-1
 307 213 l 1,10,-1
 313 212 l 1,11,-1
 1141 1456 l 1,0,-1
EndSplineSet
Validated: 1
EndChar

StartChar: uni041B
Encoding: 1051 1051 455
Width: 1433
GlyphClass: 1
Flags: W
LayerCount: 2
Fore
SplineSet
1250 1456 m 1,0,-1
 1250 0 l 1,1,-1
 1130 0 l 1,2,-1
 1130 1354 l 1,3,-1
 504 1354 l 1,4,-1
 485 797 l 2,5,6
 471 361 471 361 385.5 180.5 c 128,-1,7
 300 0 300 0 82 0 c 2,8,-1
 41 0 l 1,9,-1
 41 101 l 1,10,-1
 78 101 l 2,11,12
 227 101 227 101 289.5 249 c 128,-1,13
 352 397 352 397 365 797 c 2,14,-1
 388 1456 l 1,15,-1
 1250 1456 l 1,0,-1
EndSplineSet
Validated: 1
EndChar

StartChar: uni0423
Encoding: 1059 1059 463
Width: 1324
GlyphClass: 1
Flags: W
LayerCount: 2
Fore
SplineSet
593 660 m 1,0,-1
 657 513 l 1,1,-1
 663 513 l 1,2,-1
 1103 1456 l 1,3,-1
 1244 1456 l 1,4,-1
 661 248 l 2,5,6
 604 130 604 130 522.5 54.5 c 128,-1,7
 441 -21 441 -21 295 -21 c 0,8,9
 238 -21 238 -21 176.5 -8 c 128,-1,10
 115 5 115 5 86 24 c 1,11,-1
 105 119 l 1,12,13
 138 103 138 103 190.5 91.5 c 128,-1,14
 243 80 243 80 287 80 c 0,15,16
 380 80 380 80 441 133 c 128,-1,17
 502 186 502 186 546 275 c 2,18,-1
 599 382 l 1,19,-1
 53 1456 l 1,20,-1
 191 1456 l 1,21,-1
 593 660 l 1,0,-1
EndSplineSet
Validated: 1
EndChar

StartChar: uni0426
Encoding: 1062 1062 466
Width: 1475
GlyphClass: 1
Flags: W
LayerCount: 2
Fore
SplineSet
179 1456 m 1,0,-1
 299 1456 l 1,1,-1
 299 102 l 1,2,-1
 1127 102 l 1,3,-1
 1127 1456 l 1,4,-1
 1247 1456 l 1,5,-1
 1247 121 l 1,6,-1
 1362 121 l 1,7,-1
 1362 -355 l 1,8,-1
 1242 -355 l 1,9,-1
 1242 0 l 1,10,-1
 179 0 l 1,11,-1
 179 1456 l 1,0,-1
EndSplineSet
Validated: 1
EndChar

StartChar: uni0427
Encoding: 1063 1063 467
Width: 1358
GlyphClass: 1
Flags: W
LayerCount: 2
Fore
SplineSet
1175 1456 m 1,0,-1
 1175 0 l 1,1,-1
 1055 0 l 1,2,-1
 1055 664 l 1,3,4
 954 635 954 635 859 620.5 c 128,-1,5
 764 606 764 606 656 606 c 0,6,7
 416 606 416 606 294.5 711 c 128,-1,8
 173 816 173 816 173 1053 c 2,9,-1
 173 1456 l 1,10,-1
 293 1456 l 1,11,-1
 293 1053 l 2,12,13
 293 867 293 867 382 787.5 c 128,-1,14
 471 708 471 708 656 708 c 0,15,16
 758 708 758 708 856.5 722.5 c 128,-1,17
 955 737 955 737 1055 766 c 1,18,-1
 1055 1456 l 1,19,-1
 1175 1456 l 1,0,-1
EndSplineSet
Validated: 1
EndChar

StartChar: uni0428
Encoding: 1064 1064 468
Width: 2057
GlyphClass: 1
Flags: W
LayerCount: 2
Fore
SplineSet
297 1456 m 1,0,-1
 297 101 l 1,1,-1
 965 101 l 1,2,-1
 965 1456 l 1,3,-1
 1085 1456 l 1,4,-1
 1085 101 l 1,5,-1
 1752 101 l 1,6,-1
 1752 1456 l 1,7,-1
 1871 1456 l 1,8,-1
 1871 0 l 1,9,-1
 177 0 l 1,10,-1
 177 1456 l 1,11,-1
 297 1456 l 1,0,-1
EndSplineSet
Validated: 1
EndChar

StartChar: uni0429
Encoding: 1065 1065 469
Width: 2088
GlyphClass: 1
Flags: W
LayerCount: 2
Fore
SplineSet
297 1456 m 1,0,-1
 297 101 l 1,1,-1
 965 101 l 1,2,-1
 965 1456 l 1,3,-1
 1085 1456 l 1,4,-1
 1085 101 l 1,5,-1
 1752 101 l 1,6,-1
 1752 1456 l 1,7,-1
 1871 1456 l 1,8,-1
 1871 119 l 1,9,-1
 1979 119 l 1,10,-1
 1979 -355 l 1,11,-1
 1859 -355 l 1,12,-1
 1859 0 l 1,13,-1
 177 0 l 1,14,-1
 177 1456 l 1,15,-1
 297 1456 l 1,0,-1
EndSplineSet
Validated: 1
EndChar

StartChar: uni042A
Encoding: 1066 1066 470
Width: 1527
GlyphClass: 1
Flags: W
LayerCount: 2
Fore
SplineSet
-16 1456 m 1,0,-1
 462 1456 l 1,1,-1
 462 842 l 1,2,-1
 826 842 l 2,3,4
 1056 842 1056 842 1181.5 726.5 c 128,-1,5
 1307 611 1307 611 1307 423 c 0,6,7
 1307 234 1307 234 1180.5 117 c 128,-1,8
 1054 0 1054 0 826 0 c 2,9,-1
 342 0 l 1,10,-1
 342 1354 l 1,11,-1
 -16 1354 l 1,12,-1
 -16 1456 l 1,0,-1
462 740 m 1,13,-1
 462 101 l 1,14,-1
 826 101 l 2,15,16
 1006 101 1006 101 1096 194 c 128,-1,17
 1186 287 1186 287 1186 425 c 0,18,19
 1186 558 1186 558 1096 649 c 128,-1,20
 1006 740 1006 740 826 740 c 2,21,-1
 462 740 l 1,13,-1
EndSplineSet
Validated: 1
EndChar

StartChar: uni042B
Encoding: 1067 1067 471
Width: 1694
GlyphClass: 1
Flags: W
LayerCount: 2
Fore
SplineSet
299 842 m 1,0,-1
 663 842 l 2,1,2
 893 842 893 842 1018.5 726.5 c 128,-1,3
 1144 611 1144 611 1144 423 c 0,4,5
 1144 234 1144 234 1017.5 117 c 128,-1,6
 891 0 891 0 663 0 c 2,7,-1
 179 0 l 1,8,-1
 179 1456 l 1,9,-1
 299 1456 l 1,10,-1
 299 842 l 1,0,-1
299 740 m 1,11,-1
 299 101 l 1,12,-1
 663 101 l 2,13,14
 843 101 843 101 933 194 c 128,-1,15
 1023 287 1023 287 1023 425 c 0,16,17
 1023 558 1023 558 933 649 c 128,-1,18
 843 740 843 740 663 740 c 2,19,-1
 299 740 l 1,11,-1
1535 0 m 1,20,-1
 1415 0 l 1,21,-1
 1415 1456 l 1,22,-1
 1535 1456 l 1,23,-1
 1535 0 l 1,20,-1
EndSplineSet
Validated: 1
EndChar

StartChar: uni042C
Encoding: 1068 1068 472
Width: 1254
GlyphClass: 1
Flags: W
LayerCount: 2
Fore
SplineSet
299 842 m 1,0,-1
 663 842 l 2,1,2
 893 842 893 842 1018.5 726.5 c 128,-1,3
 1144 611 1144 611 1144 423 c 0,4,5
 1144 234 1144 234 1017.5 117 c 128,-1,6
 891 0 891 0 663 0 c 2,7,-1
 179 0 l 1,8,-1
 179 1456 l 1,9,-1
 299 1456 l 1,10,-1
 299 842 l 1,0,-1
299 740 m 1,11,-1
 299 101 l 1,12,-1
 663 101 l 2,13,14
 843 101 843 101 933 194 c 128,-1,15
 1023 287 1023 287 1023 425 c 0,16,17
 1023 558 1023 558 933 649 c 128,-1,18
 843 740 843 740 663 740 c 2,19,-1
 299 740 l 1,11,-1
EndSplineSet
Validated: 1
EndChar

StartChar: uni042D
Encoding: 1069 1069 473
Width: 1352
GlyphClass: 1
Flags: W
LayerCount: 2
Fore
SplineSet
168 1001 m 1,0,-1
 166 1007 l 1,1,2
 161 1220 161 1220 305 1349 c 128,-1,3
 449 1478 449 1478 684 1478 c 0,4,5
 926 1478 926 1478 1075.5 1301.5 c 128,-1,6
 1225 1125 1225 1125 1225 847 c 2,7,-1
 1225 610 l 2,8,9
 1225 331 1225 331 1075.5 155.5 c 128,-1,10
 926 -20 926 -20 684 -20 c 0,11,12
 446 -20 446 -20 303.5 104 c 128,-1,13
 161 228 161 228 166 448 c 1,14,-1
 168 454 l 1,15,-1
 280 454 l 1,16,17
 280 277 280 277 387 179 c 128,-1,18
 494 81 494 81 684 81 c 256,19,20
 874 81 874 81 990 228 c 128,-1,21
 1106 375 1106 375 1106 608 c 2,22,-1
 1106 705 l 1,23,-1
 527 705 l 1,24,-1
 527 807 l 1,25,-1
 1106 807 l 1,26,-1
 1106 847 l 2,27,28
 1106 1080 1106 1080 990 1228 c 128,-1,29
 874 1376 874 1376 684 1376 c 256,30,31
 494 1376 494 1376 387 1279.5 c 128,-1,32
 280 1183 280 1183 280 1001 c 1,33,-1
 168 1001 l 1,0,-1
EndSplineSet
Validated: 33
EndChar

StartChar: uni042E
Encoding: 1070 1070 474
Width: 1864
GlyphClass: 1
Flags: W
LayerCount: 2
Fore
SplineSet
1734 609 m 2,0,1
 1734 327 1734 327 1579.5 153 c 128,-1,2
 1425 -21 1425 -21 1165 -21 c 0,3,4
 909 -21 909 -21 756.5 153 c 128,-1,5
 604 327 604 327 604 609 c 2,6,-1
 604 664 l 1,7,-1
 337 664 l 1,8,-1
 337 0 l 1,9,-1
 217 0 l 1,10,-1
 217 1456 l 1,11,-1
 337 1456 l 1,12,-1
 337 765 l 1,13,-1
 604 765 l 1,14,-1
 604 846 l 2,15,16
 604 1127 604 1127 756 1302 c 128,-1,17
 908 1477 908 1477 1164 1477 c 0,18,19
 1424 1477 1424 1477 1579 1302 c 128,-1,20
 1734 1127 1734 1127 1734 846 c 2,21,-1
 1734 609 l 2,0,1
1615 848 m 2,22,23
 1615 1084 1615 1084 1495.5 1228 c 128,-1,24
 1376 1372 1376 1372 1164 1372 c 0,25,26
 956 1372 956 1372 840 1228 c 128,-1,27
 724 1084 724 1084 724 848 c 2,28,-1
 724 609 l 2,29,30
 724 371 724 371 840.5 227 c 128,-1,31
 957 83 957 83 1165 83 c 0,32,33
 1378 83 1378 83 1496.5 226.5 c 128,-1,34
 1615 370 1615 370 1615 609 c 2,35,-1
 1615 848 l 2,22,23
EndSplineSet
Validated: 1
EndChar

StartChar: uni042F
Encoding: 1071 1071 475
Width: 1205
GlyphClass: 1
Flags: W
LayerCount: 2
Fore
SplineSet
201 0 m 1,0,-1
 71 0 l 1,1,-1
 418 671 l 1,2,3
 274 716 274 716 199 809.5 c 128,-1,4
 124 903 124 903 124 1038 c 0,5,6
 124 1237 124 1237 255 1346.5 c 128,-1,7
 386 1456 386 1456 617 1456 c 2,8,-1
 1061 1456 l 1,9,-1
 1061 0 l 1,10,-1
 941 0 l 1,11,-1
 941 635 l 1,12,-1
 521 635 l 1,13,-1
 201 0 l 1,0,-1
941 1354 m 1,14,-1
 617 1354 l 2,15,16
 434 1354 434 1354 339 1271 c 128,-1,17
 244 1188 244 1188 244 1040 c 0,18,19
 244 905 244 905 333.5 821.5 c 128,-1,20
 423 738 423 738 583 738 c 2,21,-1
 941 738 l 1,22,-1
 941 1354 l 1,14,-1
EndSplineSet
Validated: 1
EndChar

StartChar: uni0431
Encoding: 1073 1073 477
Width: 1127
GlyphClass: 1
Flags: W
LayerCount: 2
Fore
SplineSet
592 1102 m 0,0,1
 801 1102 801 1102 927.5 949 c 128,-1,2
 1054 796 1054 796 1054 557 c 2,3,-1
 1054 524 l 2,4,5
 1054 284 1054 284 923 131.5 c 128,-1,6
 792 -21 792 -21 576 -21 c 0,7,8
 359 -21 359 -21 228 131.5 c 128,-1,9
 97 284 97 284 97 524 c 2,10,-1
 97 854 l 2,11,12
 97 1134 97 1134 235.5 1272.5 c 128,-1,13
 374 1411 374 1411 634 1422 c 0,14,15
 779 1427 779 1427 855.5 1456.5 c 128,-1,16
 932 1486 932 1486 932 1553 c 1,17,-1
 1024 1553 l 1,18,-1
 1026 1547 l 1,19,20
 1032 1421 1032 1421 934.5 1369.5 c 128,-1,21
 837 1318 837 1318 645 1315 c 0,22,23
 434 1311 434 1311 317.5 1206.5 c 128,-1,24
 201 1102 201 1102 215 901 c 1,25,-1
 219 896 l 1,26,27
 271 987 271 987 371 1044.5 c 128,-1,28
 471 1102 471 1102 592 1102 c 0,0,1
574 1000 m 0,29,30
 406 1000 406 1000 311.5 871 c 128,-1,31
 217 742 217 742 217 557 c 2,32,-1
 217 524 l 2,33,34
 217 336 217 336 312 208 c 128,-1,35
 407 80 407 80 576 80 c 0,36,37
 744 80 744 80 839 208 c 128,-1,38
 934 336 934 336 934 524 c 2,39,-1
 934 557 l 2,40,41
 934 742 934 742 838.5 871 c 128,-1,42
 743 1000 743 1000 574 1000 c 0,29,30
EndSplineSet
Validated: 33
EndChar

StartChar: uni0432
Encoding: 1074 1074 478
Width: 1140
GlyphClass: 1
Flags: W
LayerCount: 2
Fore
SplineSet
164 0 m 1,0,-1
 164 1082 l 1,1,-1
 561 1082 l 2,2,3
 763 1082 763 1082 875 1009.5 c 128,-1,4
 987 937 987 937 987 793 c 0,5,6
 987 710 987 710 937 647 c 128,-1,7
 887 584 887 584 795 556 c 1,8,9
 901 536 901 536 965.5 464.5 c 128,-1,10
 1030 393 1030 393 1030 300 c 0,11,12
 1030 153 1030 153 922.5 76.5 c 128,-1,13
 815 0 815 0 630 0 c 2,14,-1
 164 0 l 1,0,-1
284 498 m 1,15,-1
 284 100 l 1,16,-1
 630 100 l 2,17,18
 764 100 764 100 837.5 152 c 128,-1,19
 911 204 911 204 911 302 c 0,20,21
 911 392 911 392 836.5 445 c 128,-1,22
 762 498 762 498 630 498 c 2,23,-1
 284 498 l 1,15,-1
284 598 m 1,24,-1
 572 598 l 2,25,26
 717 598 717 598 792.5 646.5 c 128,-1,27
 868 695 868 695 868 790 c 0,28,29
 868 887 868 887 790.5 933.5 c 128,-1,30
 713 980 713 980 561 980 c 2,31,-1
 284 980 l 1,32,-1
 284 598 l 1,24,-1
EndSplineSet
Validated: 1
EndChar

StartChar: uni0433
Encoding: 1075 1075 479
Width: 858
GlyphClass: 1
Flags: W
LayerCount: 2
Fore
SplineSet
826 979 m 1,0,-1
 278 979 l 1,1,-1
 278 0 l 1,2,-1
 158 0 l 1,3,-1
 158 1082 l 1,4,-1
 826 1082 l 1,5,-1
 826 979 l 1,0,-1
EndSplineSet
Validated: 1
EndChar

StartChar: uni0434
Encoding: 1076 1076 480
Width: 1200
GlyphClass: 1
Flags: W
LayerCount: 2
Fore
SplineSet
154 101 m 2,0,1
 233 101 233 101 278.5 252.5 c 128,-1,2
 324 404 324 404 338 691 c 2,3,-1
 361 1082 l 1,4,-1
 1010 1082 l 1,5,-1
 1010 101 l 1,6,-1
 1112 101 l 1,7,-1
 1112 -352 l 1,8,-1
 992 -352 l 1,9,-1
 992 0 l 1,10,-1
 175 0 l 1,11,-1
 175 -352 l 1,12,-1
 61 -352 l 1,13,-1
 61 101 l 1,14,-1
 154 101 l 2,0,1
458 691 m 2,15,16
 446 477 446 477 418 330 c 128,-1,17
 390 183 390 183 336 101 c 1,18,-1
 890 101 l 1,19,-1
 890 970 l 1,20,-1
 474 970 l 1,21,-1
 458 691 l 2,15,16
EndSplineSet
Validated: 1
EndChar

StartChar: uni0436
Encoding: 1078 1078 482
Width: 1492
GlyphClass: 1
Flags: W
LayerCount: 2
Fore
SplineSet
895 500 m 1,0,-1
 804 500 l 1,1,-1
 804 0 l 1,2,-1
 684 0 l 1,3,-1
 684 500 l 1,4,-1
 595 500 l 1,5,-1
 186 0 l 1,6,-1
 41 0 l 1,7,-1
 38 5 l 1,8,-1
 494 560 l 1,9,-1
 84 1082 l 1,10,-1
 229 1082 l 1,11,-1
 593 607 l 1,12,-1
 684 607 l 1,13,-1
 684 1082 l 1,14,-1
 804 1082 l 1,15,-1
 804 607 l 1,16,-1
 897 607 l 1,17,-1
 1261 1082 l 1,18,-1
 1408 1082 l 1,19,-1
 996 560 l 1,20,-1
 1453 5 l 1,21,-1
 1450 0 l 1,22,-1
 1304 0 l 1,23,-1
 895 500 l 1,0,-1
EndSplineSet
Validated: 1
EndChar

StartChar: uni0437
Encoding: 1079 1079 483
Width: 1113
GlyphClass: 1
Flags: W
LayerCount: 2
Fore
SplineSet
561 604 m 2,0,1
 714 604 714 604 787 654 c 128,-1,2
 860 704 860 704 860 796 c 0,3,4
 860 884 860 884 783.5 941 c 128,-1,5
 707 998 707 998 557 998 c 0,6,7
 424 998 424 998 334.5 939.5 c 128,-1,8
 245 881 245 881 245 790 c 1,9,-1
 135 790 l 1,10,-1
 133 796 l 1,11,12
 127 930 127 930 250.5 1014.5 c 128,-1,13
 374 1099 374 1099 557 1099 c 0,14,15
 753 1099 753 1099 867 1019.5 c 128,-1,16
 981 940 981 940 981 794 c 0,17,18
 981 716 981 716 926.5 652.5 c 128,-1,19
 872 589 872 589 775 555 c 1,20,21
 885 525 885 525 942.5 459.5 c 128,-1,22
 1000 394 1000 394 1000 297 c 0,23,24
 1000 150 1000 150 876.5 66 c 128,-1,25
 753 -18 753 -18 557 -18 c 0,26,27
 374 -18 374 -18 241.5 65 c 128,-1,28
 109 148 109 148 115 304 c 1,29,-1
 117 310 l 1,30,-1
 227 310 l 1,31,32
 227 213 227 213 319 147.5 c 128,-1,33
 411 82 411 82 557 82 c 0,34,35
 708 82 708 82 793.5 140.5 c 128,-1,36
 879 199 879 199 879 295 c 0,37,38
 879 401 879 401 799 450.5 c 128,-1,39
 719 500 719 500 561 500 c 2,40,-1
 377 500 l 1,41,-1
 377 604 l 1,42,-1
 561 604 l 2,0,1
EndSplineSet
Validated: 33
EndChar

StartChar: uni0438
Encoding: 1080 1080 484
Width: 1140
GlyphClass: 1
Flags: W
LayerCount: 2
Fore
SplineSet
862 1082 m 1,0,-1
 982 1082 l 1,1,-1
 982 0 l 1,2,-1
 862 0 l 1,3,-1
 862 883 l 1,4,-1
 856 885 l 1,5,-1
 278 0 l 1,6,-1
 158 0 l 1,7,-1
 158 1082 l 1,8,-1
 278 1082 l 1,9,-1
 278 200 l 1,10,-1
 284 199 l 1,11,-1
 862 1082 l 1,0,-1
EndSplineSet
Validated: 1
EndChar

StartChar: uni043A
Encoding: 1082 1082 486
Width: 1080
GlyphClass: 1
Flags: W
LayerCount: 2
Fore
SplineSet
420 496 m 1,0,-1
 283 496 l 1,1,-1
 283 0 l 1,2,-1
 162 0 l 1,3,-1
 162 1082 l 1,4,-1
 283 1082 l 1,5,-1
 283 602 l 1,6,-1
 417 602 l 1,7,-1
 844 1082 l 1,8,-1
 988 1082 l 1,9,-1
 990 1077 l 1,10,-1
 524 557 l 1,11,-1
 1039 6 l 1,12,-1
 1036 0 l 1,13,-1
 887 0 l 1,14,-1
 420 496 l 1,0,-1
EndSplineSet
Validated: 1
EndChar

StartChar: uni043B
Encoding: 1083 1083 487
Width: 1127
GlyphClass: 1
Flags: W
LayerCount: 2
Fore
SplineSet
982 1082 m 1,0,-1
 982 0 l 1,1,-1
 862 0 l 1,2,-1
 862 979 l 1,3,-1
 403 979 l 1,4,-1
 403 604 l 2,5,6
 403 285 403 285 329 142.5 c 128,-1,7
 255 0 255 0 79 0 c 2,8,-1
 35 0 l 1,9,-1
 37 107 l 1,10,-1
 75 108 l 2,11,12
 185 108 185 108 234.5 218.5 c 128,-1,13
 284 329 284 329 284 604 c 2,14,-1
 284 1082 l 1,15,-1
 982 1082 l 1,0,-1
EndSplineSet
Validated: 1
EndChar

StartChar: uni043C
Encoding: 1084 1084 488
Width: 1500
GlyphClass: 1
Flags: W
LayerCount: 2
Fore
SplineSet
751 168 m 1,0,-1
 757 168 l 1,1,-1
 1184 1082 l 1,2,-1
 1332 1082 l 1,3,-1
 1332 0 l 1,4,-1
 1212 0 l 1,5,-1
 1212 874 l 1,6,-1
 1206 875 l 1,7,-1
 796 0 l 1,8,-1
 711 0 l 1,9,-1
 294 893 l 1,10,-1
 288 892 l 1,11,-1
 288 0 l 1,12,-1
 168 0 l 1,13,-1
 168 1082 l 1,14,-1
 325 1082 l 1,15,-1
 751 168 l 1,0,-1
EndSplineSet
Validated: 1
EndChar

StartChar: uni043D
Encoding: 1085 1085 489
Width: 1140
GlyphClass: 1
Flags: W
LayerCount: 2
Fore
SplineSet
981 0 m 1,0,-1
 861 0 l 1,1,-1
 861 496 l 1,2,-1
 278 496 l 1,3,-1
 278 0 l 1,4,-1
 158 0 l 1,5,-1
 158 1082 l 1,6,-1
 278 1082 l 1,7,-1
 278 597 l 1,8,-1
 861 597 l 1,9,-1
 861 1082 l 1,10,-1
 981 1082 l 1,11,-1
 981 0 l 1,0,-1
EndSplineSet
Validated: 1
EndChar

StartChar: uni043F
Encoding: 1087 1087 491
Width: 1140
GlyphClass: 1
Flags: W
LayerCount: 2
Fore
SplineSet
982 0 m 1,0,-1
 862 0 l 1,1,-1
 862 979 l 1,2,-1
 278 979 l 1,3,-1
 278 0 l 1,4,-1
 158 0 l 1,5,-1
 158 1082 l 1,6,-1
 982 1082 l 1,7,-1
 982 0 l 1,0,-1
EndSplineSet
Validated: 1
EndChar

StartChar: uni0441
Encoding: 1089 1089 493
Width: 1054
GlyphClass: 1
Flags: W
LayerCount: 2
Fore
SplineSet
554 80 m 0,0,1
 669 80 669 80 757.5 148 c 128,-1,2
 846 216 846 216 846 337 c 1,3,-1
 953 337 l 1,4,-1
 955 331 l 1,5,6
 959 181 959 181 837 80 c 128,-1,7
 715 -21 715 -21 554 -21 c 0,8,9
 338 -21 338 -21 217.5 131 c 128,-1,10
 97 283 97 283 97 520 c 2,11,-1
 97 562 l 2,12,13
 97 798 97 798 217 950 c 128,-1,14
 337 1102 337 1102 553 1102 c 0,15,16
 727 1102 727 1102 843 997 c 128,-1,17
 959 892 959 892 955 721 c 1,18,-1
 953 715 l 1,19,-1
 846 715 l 1,20,21
 846 845 846 845 761 922.5 c 128,-1,22
 676 1000 676 1000 553 1000 c 0,23,24
 383 1000 383 1000 300 875 c 128,-1,25
 217 750 217 750 217 562 c 2,26,-1
 217 520 l 2,27,28
 217 329 217 329 300 204.5 c 128,-1,29
 383 80 383 80 554 80 c 0,0,1
EndSplineSet
Validated: 33
EndChar

StartChar: uni0442
Encoding: 1090 1090 494
Width: 1037
GlyphClass: 1
Flags: W
LayerCount: 2
Fore
SplineSet
965 980 m 1,0,-1
 571 980 l 1,1,-1
 571 0 l 1,2,-1
 451 0 l 1,3,-1
 451 980 l 1,4,-1
 72 980 l 1,5,-1
 72 1082 l 1,6,-1
 965 1082 l 1,7,-1
 965 980 l 1,0,-1
EndSplineSet
Validated: 1
EndChar

StartChar: uni0444
Encoding: 1092 1092 496
Width: 1835
GlyphClass: 1
Flags: W
LayerCount: 2
Fore
SplineSet
111 532 m 2,0,1
 111 791 111 791 220.5 946.5 c 128,-1,2
 330 1102 330 1102 526 1102 c 0,3,4
 634 1102 634 1102 716 1060 c 128,-1,5
 798 1018 798 1018 854 940 c 1,6,-1
 854 1560 l 1,7,-1
 974 1560 l 1,8,-1
 974 934 l 1,9,10
 1030 1015 1030 1015 1113.5 1058.5 c 128,-1,11
 1197 1102 1197 1102 1309 1102 c 0,12,13
 1504 1102 1504 1102 1614 946.5 c 128,-1,14
 1724 791 1724 791 1724 532 c 2,15,-1
 1724 511 l 2,16,17
 1724 268 1724 268 1614 123.5 c 128,-1,18
 1504 -21 1504 -21 1311 -21 c 0,19,20
 1199 -21 1199 -21 1114.5 19 c 128,-1,21
 1030 59 1030 59 974 134 c 1,22,-1
 974 -416 l 1,23,-1
 854 -416 l 1,24,-1
 854 131 l 1,25,26
 797 57 797 57 714.5 18 c 128,-1,27
 632 -21 632 -21 524 -21 c 0,28,29
 330 -21 330 -21 220.5 123.5 c 128,-1,30
 111 268 111 268 111 511 c 2,31,-1
 111 532 l 2,0,1
1605 532 m 2,32,33
 1605 738 1605 738 1522 869 c 128,-1,34
 1439 1000 1439 1000 1282 1000 c 0,35,36
 1163 1000 1163 1000 1088 943 c 128,-1,37
 1013 886 1013 886 974 795 c 1,38,-1
 974 267 l 1,39,40
 1016 180 1016 180 1092.5 130 c 128,-1,41
 1169 80 1169 80 1284 80 c 0,42,43
 1441 80 1441 80 1523 198 c 128,-1,44
 1605 316 1605 316 1605 511 c 2,45,-1
 1605 532 l 2,32,33
231 511 m 2,46,47
 231 315 231 315 309.5 197.5 c 128,-1,48
 388 80 388 80 546 80 c 0,49,50
 657 80 657 80 733.5 129.5 c 128,-1,51
 810 179 810 179 854 266 c 1,52,-1
 854 801 l 1,53,54
 813 890 813 890 738.5 945 c 128,-1,55
 664 1000 664 1000 548 1000 c 0,56,57
 390 1000 390 1000 310.5 869.5 c 128,-1,58
 231 739 231 739 231 532 c 2,59,-1
 231 511 l 2,46,47
EndSplineSet
Validated: 1
EndChar

StartChar: uni0446
Encoding: 1094 1094 498
Width: 1164
GlyphClass: 1
Flags: W
LayerCount: 2
Fore
SplineSet
158 1082 m 1,0,-1
 278 1082 l 1,1,-1
 278 101 l 1,2,-1
 862 101 l 1,3,-1
 862 1082 l 1,4,-1
 982 1082 l 1,5,-1
 982 101 l 1,6,-1
 1072 101 l 1,7,-1
 1072 -351 l 1,8,-1
 953 -351 l 1,9,-1
 953 0 l 1,10,-1
 158 0 l 1,11,-1
 158 1082 l 1,0,-1
EndSplineSet
Validated: 1
EndChar

StartChar: uni0447
Encoding: 1095 1095 499
Width: 1126
GlyphClass: 1
Flags: W
LayerCount: 2
Fore
SplineSet
967 0 m 1,0,-1
 847 0 l 1,1,-1
 847 455 l 1,2,3
 778 430 778 430 705.5 415.5 c 128,-1,4
 633 401 633 401 565 401 c 0,5,6
 355 401 355 401 253 494.5 c 128,-1,7
 151 588 151 588 151 808 c 2,8,-1
 151 1082 l 1,9,-1
 271 1082 l 1,10,-1
 271 808 l 2,11,12
 271 638 271 638 340.5 571 c 128,-1,13
 410 504 410 504 565 504 c 0,14,15
 636 505 636 505 710 519 c 128,-1,16
 784 533 784 533 847 556 c 1,17,-1
 847 1082 l 1,18,-1
 967 1082 l 1,19,-1
 967 0 l 1,0,-1
EndSplineSet
Validated: 1
EndChar

StartChar: uni0448
Encoding: 1096 1096 500
Width: 1617
GlyphClass: 1
Flags: W
LayerCount: 2
Fore
SplineSet
278 1082 m 1,0,-1
 278 101 l 1,1,-1
 760 101 l 1,2,-1
 760 1082 l 1,3,-1
 880 1082 l 1,4,-1
 880 101 l 1,5,-1
 1356 101 l 1,6,-1
 1356 1082 l 1,7,-1
 1476 1082 l 1,8,-1
 1476 0 l 1,9,-1
 158 0 l 1,10,-1
 158 1082 l 1,11,-1
 278 1082 l 1,0,-1
EndSplineSet
Validated: 1
EndChar

StartChar: uni0449
Encoding: 1097 1097 501
Width: 1656
GlyphClass: 1
Flags: W
LayerCount: 2
Fore
SplineSet
1556 -125 m 1,0,-1
 1500 -125 l 1,1,-1
 1500 -116 l 1,2,-1
 1556 -116 l 1,3,-1
 1556 -125 l 1,0,-1
278 1082 m 1,4,-1
 278 101 l 1,5,-1
 760 101 l 1,6,-1
 760 1082 l 1,7,-1
 880 1082 l 1,8,-1
 880 101 l 1,9,-1
 1356 101 l 1,10,-1
 1356 1082 l 1,11,-1
 1476 1082 l 1,12,-1
 1476 0 l 1,13,-1
 158 0 l 1,14,-1
 158 1082 l 1,15,-1
 278 1082 l 1,4,-1
EndSplineSet
Validated: 1
EndChar

StartChar: uni044A
Encoding: 1098 1098 502
Width: 1296
GlyphClass: 1
Flags: W
LayerCount: 2
Fore
SplineSet
35 1082 m 1,0,-1
 486 1082 l 1,1,-1
 486 649 l 1,2,-1
 795 649 l 2,3,4
 982 649 982 649 1086.5 559 c 128,-1,5
 1191 469 1191 469 1191 326 c 0,6,7
 1191 182 1191 182 1086.5 91 c 128,-1,8
 982 0 982 0 795 0 c 2,9,-1
 366 0 l 1,10,-1
 366 980 l 1,11,-1
 35 980 l 1,12,-1
 35 1082 l 1,0,-1
486 547 m 1,13,-1
 486 101 l 1,14,-1
 795 101 l 2,15,16
 934 101 934 101 1002.5 164.5 c 128,-1,17
 1071 228 1071 228 1071 324 c 0,18,19
 1071 416 1071 416 1002 481.5 c 128,-1,20
 933 547 933 547 795 547 c 2,21,-1
 486 547 l 1,13,-1
EndSplineSet
Validated: 1
EndChar

StartChar: uni044B
Encoding: 1099 1099 503
Width: 1546
GlyphClass: 1
Flags: W
LayerCount: 2
Fore
SplineSet
308 649 m 1,0,-1
 617 649 l 2,1,2
 804 649 804 649 908.5 559 c 128,-1,3
 1013 469 1013 469 1013 326 c 0,4,5
 1013 182 1013 182 908.5 91 c 128,-1,6
 804 0 804 0 617 0 c 2,7,-1
 188 0 l 1,8,-1
 188 1082 l 1,9,-1
 308 1082 l 1,10,-1
 308 649 l 1,0,-1
308 547 m 1,11,-1
 308 101 l 1,12,-1
 617 101 l 2,13,14
 756 101 756 101 824.5 164.5 c 128,-1,15
 893 228 893 228 893 324 c 0,16,17
 893 416 893 416 824 481.5 c 128,-1,18
 755 547 755 547 617 547 c 2,19,-1
 308 547 l 1,11,-1
1370 0 m 1,20,-1
 1250 0 l 1,21,-1
 1250 1082 l 1,22,-1
 1370 1082 l 1,23,-1
 1370 0 l 1,20,-1
EndSplineSet
Validated: 1
EndChar

StartChar: uni044C
Encoding: 1100 1100 504
Width: 1095
GlyphClass: 1
Flags: W
LayerCount: 2
Fore
SplineSet
288 649 m 1,0,-1
 597 649 l 2,1,2
 784 649 784 649 888.5 559 c 128,-1,3
 993 469 993 469 993 326 c 0,4,5
 993 182 993 182 888.5 91 c 128,-1,6
 784 0 784 0 597 0 c 2,7,-1
 168 0 l 1,8,-1
 168 1082 l 1,9,-1
 288 1082 l 1,10,-1
 288 649 l 1,0,-1
288 547 m 1,11,-1
 288 101 l 1,12,-1
 597 101 l 2,13,14
 736 101 736 101 804.5 164.5 c 128,-1,15
 873 228 873 228 873 324 c 0,16,17
 873 416 873 416 804 481.5 c 128,-1,18
 735 547 735 547 597 547 c 2,19,-1
 288 547 l 1,11,-1
EndSplineSet
Validated: 1
EndChar

StartChar: uni044D
Encoding: 1101 1101 505
Width: 1095
GlyphClass: 1
Flags: W
LayerCount: 2
Fore
SplineSet
517 1000 m 0,0,1
 401 1000 401 1000 314 932 c 128,-1,2
 227 864 227 864 227 744 c 1,3,-1
 119 744 l 1,4,-1
 117 750 l 1,5,6
 112 899 112 899 233.5 1000.5 c 128,-1,7
 355 1102 355 1102 517 1102 c 0,8,9
 729 1102 729 1102 854 949 c 128,-1,10
 979 796 979 796 979 562 c 2,11,-1
 979 520 l 2,12,13
 979 285 979 285 854.5 132 c 128,-1,14
 730 -21 730 -21 518 -21 c 0,15,16
 344 -21 344 -21 228 83.5 c 128,-1,17
 112 188 112 188 117 360 c 1,18,-1
 119 366 l 1,19,-1
 227 366 l 1,20,21
 227 234 227 234 310.5 157 c 128,-1,22
 394 80 394 80 518 80 c 0,23,24
 678 80 678 80 764.5 198 c 128,-1,25
 851 316 851 316 854 491 c 1,26,-1
 851 496 l 1,27,-1
 369 496 l 1,28,-1
 369 597 l 1,29,-1
 851 597 l 1,30,-1
 853 602 l 1,31,32
 848 772 848 772 761.5 886 c 128,-1,33
 675 1000 675 1000 517 1000 c 0,0,1
EndSplineSet
Validated: 33
EndChar

StartChar: uni044E
Encoding: 1102 1102 506
Width: 1664
GlyphClass: 1
Flags: W
LayerCount: 2
Fore
SplineSet
288 589 m 1,0,-1
 598 589 l 1,1,2
 607 815 607 815 737 958.5 c 128,-1,3
 867 1102 867 1102 1075 1102 c 0,4,5
 1292 1102 1292 1102 1423 949 c 128,-1,6
 1554 796 1554 796 1554 557 c 2,7,-1
 1554 524 l 2,8,9
 1554 284 1554 284 1423.5 131.5 c 128,-1,10
 1293 -21 1293 -21 1077 -21 c 0,11,12
 868 -21 868 -21 738 120 c 128,-1,13
 608 261 608 261 598 488 c 1,14,-1
 288 488 l 1,15,-1
 288 0 l 1,16,-1
 168 0 l 1,17,-1
 168 1082 l 1,18,-1
 288 1082 l 1,19,-1
 288 589 l 1,0,-1
717 524 m 2,20,21
 717 336 717 336 812 208 c 128,-1,22
 907 80 907 80 1077 80 c 0,23,24
 1244 80 1244 80 1339.5 208 c 128,-1,25
 1435 336 1435 336 1435 524 c 2,26,-1
 1435 557 l 2,27,28
 1435 742 1435 742 1339 871 c 128,-1,29
 1243 1000 1243 1000 1075 1000 c 256,30,31
 907 1000 907 1000 812 871 c 128,-1,32
 717 742 717 742 717 557 c 2,33,-1
 717 524 l 2,20,21
EndSplineSet
Validated: 1
EndChar

StartChar: uni044F
Encoding: 1103 1103 507
Width: 1129
GlyphClass: 1
Flags: W
LayerCount: 2
Fore
SplineSet
963 1082 m 1,0,-1
 963 0 l 1,1,-1
 843 0 l 1,2,-1
 843 436 l 1,3,-1
 507 436 l 1,4,-1
 243 0 l 1,5,-1
 111 0 l 1,6,-1
 383 451 l 1,7,8
 271 480 271 480 210 562 c 128,-1,9
 149 644 149 644 149 759 c 0,10,11
 149 901 149 901 251.5 991.5 c 128,-1,12
 354 1082 354 1082 537 1082 c 2,13,-1
 963 1082 l 1,0,-1
269 757 m 0,14,15
 269 665 269 665 328 601.5 c 128,-1,16
 387 538 387 538 505 538 c 2,17,-1
 843 538 l 1,18,-1
 843 980 l 1,19,-1
 537 980 l 2,20,21
 403 980 403 980 336 915.5 c 128,-1,22
 269 851 269 851 269 757 c 0,14,15
EndSplineSet
Validated: 1
EndChar

StartChar: uni0452
Encoding: 1106 1106 510
Width: 1141
GlyphClass: 1
Flags: W
LayerCount: 2
Fore
SplineSet
539 1254 m 1,0,-1
 278 1254 l 1,1,-1
 278 898 l 1,2,3
 333 995 333 995 422.5 1048.5 c 128,-1,4
 512 1102 512 1102 632 1102 c 0,5,6
 803 1102 803 1102 894.5 996 c 128,-1,7
 986 890 986 890 986 667 c 2,8,-1
 986 -89 l 2,9,10
 986 -256 986 -256 906 -346.5 c 128,-1,11
 826 -437 826 -437 682 -437 c 0,12,13
 649 -437 649 -437 619.5 -432 c 128,-1,14
 590 -427 590 -427 559 -418 c 1,15,-1
 573 -320 l 1,16,17
 588 -325 588 -325 622.5 -330 c 128,-1,18
 657 -335 657 -335 682 -335 c 0,19,20
 769 -335 769 -335 817.5 -270.5 c 128,-1,21
 866 -206 866 -206 866 -89 c 2,22,-1
 866 669 l 2,23,24
 866 845 866 845 796.5 921.5 c 128,-1,25
 727 998 727 998 605 998 c 0,26,27
 479 998 479 998 397.5 936.5 c 128,-1,28
 316 875 316 875 278 772 c 1,29,-1
 278 0 l 1,30,-1
 158 0 l 1,31,-1
 158 1254 l 1,32,-1
 -51 1254 l 1,33,-1
 -51 1335 l 1,34,-1
 158 1335 l 1,35,-1
 158 1560 l 1,36,-1
 278 1560 l 1,37,-1
 278 1335 l 1,38,-1
 539 1335 l 1,39,-1
 539 1254 l 1,0,-1
EndSplineSet
Validated: 1
EndChar

StartChar: uni0454
Encoding: 1108 1108 512
Width: 1095
GlyphClass: 1
Flags: W
LayerCount: 2
Fore
SplineSet
554 80 m 0,0,1
 669 80 669 80 757.5 148 c 128,-1,2
 846 216 846 216 846 337 c 1,3,-1
 953 337 l 1,4,-1
 955 331 l 1,5,6
 959 181 959 181 837 80 c 128,-1,7
 715 -21 715 -21 554 -21 c 0,8,9
 338 -21 338 -21 217.5 131 c 128,-1,10
 97 283 97 283 97 520 c 2,11,-1
 97 562 l 2,12,13
 97 798 97 798 217 950 c 128,-1,14
 337 1102 337 1102 553 1102 c 0,15,16
 727 1102 727 1102 843 997 c 128,-1,17
 959 892 959 892 955 721 c 1,18,-1
 953 715 l 1,19,-1
 846 715 l 1,20,21
 846 845 846 845 761 922.5 c 128,-1,22
 676 1000 676 1000 553 1000 c 0,23,24
 390 1000 390 1000 307 885 c 128,-1,25
 224 770 224 770 221 597 c 1,26,-1
 224 592 l 1,27,-1
 721 592 l 1,28,-1
 721 491 l 1,29,-1
 224 491 l 1,30,-1
 221 486 l 1,31,32
 224 310 224 310 307 195 c 128,-1,33
 390 80 390 80 554 80 c 0,0,1
EndSplineSet
Validated: 33
EndChar

StartChar: uni0459
Encoding: 1113 1113 517
Width: 1772
GlyphClass: 1
Flags: W
LayerCount: 2
Fore
SplineSet
982 1082 m 1,0,-1
 982 649 l 1,1,-1
 1292 649 l 2,2,3
 1478 649 1478 649 1582.5 559 c 128,-1,4
 1687 469 1687 469 1687 326 c 0,5,6
 1687 182 1687 182 1582.5 91 c 128,-1,7
 1478 0 1478 0 1292 0 c 2,8,-1
 862 0 l 1,9,-1
 862 979 l 1,10,-1
 420 979 l 1,11,-1
 420 604 l 2,12,13
 420 286 420 286 344.5 143 c 128,-1,14
 269 0 269 0 91 0 c 2,15,-1
 48 0 l 1,16,-1
 50 103 l 1,17,-1
 87 103 l 2,18,19
 198 103 198 103 249.5 216 c 128,-1,20
 301 329 301 329 301 604 c 2,21,-1
 301 1082 l 1,22,-1
 982 1082 l 1,0,-1
982 548 m 1,23,-1
 982 100 l 1,24,-1
 1292 100 l 2,25,26
 1430 100 1430 100 1498.5 166 c 128,-1,27
 1567 232 1567 232 1567 328 c 0,28,29
 1567 420 1567 420 1498.5 484 c 128,-1,30
 1430 548 1430 548 1292 548 c 2,31,-1
 982 548 l 1,23,-1
EndSplineSet
Validated: 1
EndChar

StartChar: uni045A
Encoding: 1114 1114 518
Width: 1772
GlyphClass: 1
Flags: W
LayerCount: 2
Fore
SplineSet
278 652 m 1,0,-1
 861 652 l 1,1,-1
 861 1082 l 1,2,-1
 981 1082 l 1,3,-1
 981 649 l 1,4,-1
 1291 649 l 2,5,6
 1478 649 1478 649 1582.5 559 c 128,-1,7
 1687 469 1687 469 1687 326 c 0,8,9
 1687 182 1687 182 1582.5 91 c 128,-1,10
 1478 0 1478 0 1291 0 c 2,11,-1
 861 0 l 1,12,-1
 861 551 l 1,13,-1
 278 551 l 1,14,-1
 278 0 l 1,15,-1
 158 0 l 1,16,-1
 158 1082 l 1,17,-1
 278 1082 l 1,18,-1
 278 652 l 1,0,-1
981 548 m 1,19,-1
 981 100 l 1,20,-1
 1291 100 l 2,21,22
 1430 100 1430 100 1498.5 166 c 128,-1,23
 1567 232 1567 232 1567 328 c 0,24,25
 1567 420 1567 420 1498.5 484 c 128,-1,26
 1430 548 1430 548 1291 548 c 2,27,-1
 981 548 l 1,19,-1
EndSplineSet
Validated: 1
EndChar

StartChar: uni045B
Encoding: 1115 1115 519
Width: 1141
GlyphClass: 1
Flags: W
LayerCount: 2
Fore
SplineSet
610 1249 m 1,0,-1
 278 1249 l 1,1,-1
 278 898 l 1,2,3
 333 995 333 995 422.5 1048.5 c 128,-1,4
 512 1102 512 1102 632 1102 c 0,5,6
 803 1102 803 1102 894.5 996 c 128,-1,7
 986 890 986 890 986 667 c 2,8,-1
 986 0 l 1,9,-1
 866 0 l 1,10,-1
 866 669 l 2,11,12
 866 845 866 845 796.5 921.5 c 128,-1,13
 727 998 727 998 605 998 c 0,14,15
 479 998 479 998 397.5 936.5 c 128,-1,16
 316 875 316 875 278 772 c 1,17,-1
 278 0 l 1,18,-1
 158 0 l 1,19,-1
 158 1249 l 1,20,-1
 -2 1249 l 1,21,-1
 -2 1351 l 1,22,-1
 158 1351 l 1,23,-1
 158 1560 l 1,24,-1
 278 1560 l 1,25,-1
 278 1351 l 1,26,-1
 610 1351 l 1,27,-1
 610 1249 l 1,0,-1
EndSplineSet
Validated: 1
EndChar

StartChar: uni045F
Encoding: 1119 1119 523
Width: 1140
GlyphClass: 1
Flags: W
LayerCount: 2
Fore
SplineSet
278 1082 m 1,0,-1
 278 101 l 1,1,-1
 862 101 l 1,2,-1
 862 1082 l 1,3,-1
 982 1082 l 1,4,-1
 982 0 l 1,5,-1
 633 0 l 1,6,-1
 633 -353 l 1,7,-1
 514 -353 l 1,8,-1
 514 0 l 1,9,-1
 158 0 l 1,10,-1
 158 1082 l 1,11,-1
 278 1082 l 1,0,-1
EndSplineSet
Validated: 1
EndChar

StartChar: uni0460
Encoding: 1120 1120 524
Width: 1941
GlyphClass: 1
Flags: W
LayerCount: 2
Fore
SplineSet
1085 1426 m 1,0,1
 1144 1450 1144 1450 1214.5 1463.5 c 128,-1,2
 1285 1477 1285 1477 1366 1477 c 0,3,4
 1575 1477 1575 1477 1708 1307 c 128,-1,5
 1841 1137 1841 1137 1841 867 c 2,6,-1
 1841 600 l 2,7,8
 1841 324 1841 324 1703.5 151.5 c 128,-1,9
 1566 -21 1566 -21 1351 -21 c 0,10,11
 1226 -21 1226 -21 1132 14 c 128,-1,12
 1038 49 1038 49 977 103 c 1,13,14
 916 49 916 49 822.5 14 c 128,-1,15
 729 -21 729 -21 604 -21 c 0,16,17
 388 -21 388 -21 250.5 152 c 128,-1,18
 113 325 113 325 113 600 c 2,19,-1
 113 867 l 2,20,21
 113 1137 113 1137 246 1307 c 128,-1,22
 379 1477 379 1477 589 1477 c 0,23,24
 668 1477 668 1477 739 1463.5 c 128,-1,25
 810 1450 810 1450 870 1426 c 1,26,-1
 835 1325 l 1,27,28
 787 1348 787 1348 724.5 1361.5 c 128,-1,29
 662 1375 662 1375 589 1375 c 0,30,31
 428 1375 428 1375 330.5 1233 c 128,-1,32
 233 1091 233 1091 233 869 c 2,33,-1
 233 600 l 2,34,35
 233 371 233 371 335.5 225.5 c 128,-1,36
 438 80 438 80 604 80 c 0,37,38
 727 80 727 80 805.5 118.5 c 128,-1,39
 884 157 884 157 917 209 c 1,40,-1
 917 606 l 1,41,-1
 661 606 l 1,42,-1
 661 708 l 1,43,-1
 1293 708 l 1,44,-1
 1293 606 l 1,45,-1
 1037 606 l 1,46,-1
 1037 211 l 1,47,48
 1067 159 1067 159 1146 119.5 c 128,-1,49
 1225 80 1225 80 1351 80 c 0,50,51
 1515 80 1515 80 1618.5 226 c 128,-1,52
 1722 372 1722 372 1722 600 c 2,53,-1
 1722 869 l 2,54,55
 1722 1091 1722 1091 1623.5 1233 c 128,-1,56
 1525 1375 1525 1375 1366 1375 c 0,57,58
 1292 1375 1292 1375 1229.5 1361.5 c 128,-1,59
 1167 1348 1167 1348 1120 1325 c 1,60,-1
 1085 1426 l 1,0,1
EndSplineSet
Validated: 1
EndChar

StartChar: uni0461
Encoding: 1121 1121 525
Width: 1386
GlyphClass: 1
Flags: W
LayerCount: 2
Fore
SplineSet
466 271 m 1,0,-1
 501 144 l 1,1,-1
 507 144 l 1,2,-1
 545 271 l 1,3,-1
 697 674 l 1,4,-1
 563 1082 l 1,5,-1
 686 1082 l 1,6,-1
 930 271 l 1,7,-1
 972 122 l 1,8,-1
 978 122 l 1,9,-1
 1006 191 l 1,10,11
 1100 360 1100 360 1150.5 592 c 128,-1,12
 1201 824 1201 824 1213 1082 c 1,13,-1
 1332 1082 l 1,14,15
 1319 784 1319 784 1240 511 c 128,-1,16
 1161 238 1161 238 1016 0 c 1,17,-1
 920 0 l 1,18,-1
 752 509 l 1,19,-1
 746 509 l 1,20,-1
 552 0 l 1,21,-1
 456 0 l 1,22,-1
 44 1082 l 1,23,-1
 168 1082 l 1,24,-1
 466 271 l 1,0,-1
EndSplineSet
Validated: 1
EndChar

StartChar: uni0462
Encoding: 1122 1122 526
Width: 1254
GlyphClass: 1
Flags: W
LayerCount: 2
Fore
SplineSet
609 1127 m 1,0,-1
 299 1127 l 1,1,-1
 299 842 l 1,2,-1
 663 842 l 2,3,4
 893 842 893 842 1018.5 726.5 c 128,-1,5
 1144 611 1144 611 1144 423 c 0,6,7
 1144 234 1144 234 1017.5 117 c 128,-1,8
 891 0 891 0 663 0 c 2,9,-1
 179 0 l 1,10,-1
 179 1127 l 1,11,-1
 -3 1127 l 1,12,-1
 -3 1229 l 1,13,-1
 179 1229 l 1,14,-1
 179 1456 l 1,15,-1
 299 1456 l 1,16,-1
 299 1229 l 1,17,-1
 609 1229 l 1,18,-1
 609 1127 l 1,0,-1
299 740 m 1,19,-1
 299 101 l 1,20,-1
 663 101 l 2,21,22
 843 101 843 101 933 194 c 128,-1,23
 1023 287 1023 287 1023 425 c 0,24,25
 1023 558 1023 558 933 649 c 128,-1,26
 843 740 843 740 663 740 c 2,27,-1
 299 740 l 1,19,-1
EndSplineSet
Validated: 1
EndChar

StartChar: uni0463
Encoding: 1123 1123 527
Width: 1095
GlyphClass: 1
Flags: W
LayerCount: 2
Fore
SplineSet
613 1102 m 1,0,-1
 288 1102 l 1,1,-1
 288 649 l 1,2,-1
 597 649 l 2,3,4
 784 649 784 649 888.5 559 c 128,-1,5
 993 469 993 469 993 326 c 0,6,7
 993 182 993 182 888.5 91 c 128,-1,8
 784 0 784 0 597 0 c 2,9,-1
 168 0 l 1,10,-1
 168 1102 l 1,11,-1
 -29 1102 l 1,12,-1
 -29 1204 l 1,13,-1
 168 1204 l 1,14,-1
 168 1562 l 1,15,-1
 288 1562 l 1,16,-1
 288 1204 l 1,17,-1
 613 1204 l 1,18,-1
 613 1102 l 1,0,-1
288 547 m 1,19,-1
 288 101 l 1,20,-1
 597 101 l 2,21,22
 736 101 736 101 804.5 164.5 c 128,-1,23
 873 228 873 228 873 324 c 0,24,25
 873 416 873 416 804 481.5 c 128,-1,26
 735 547 735 547 597 547 c 2,27,-1
 288 547 l 1,19,-1
EndSplineSet
Validated: 1
EndChar

StartChar: uni0464
Encoding: 1124 1124 528
Width: 1830
GlyphClass: 1
Flags: W
LayerCount: 2
Fore
SplineSet
1202 671 m 1,0,-1
 718 671 l 1,1,-1
 718 610 l 2,2,3
 718 376 718 376 833.5 228.5 c 128,-1,4
 949 81 949 81 1140 81 c 0,5,6
 1329 81 1329 81 1436.5 177 c 128,-1,7
 1544 273 1544 273 1544 456 c 1,8,-1
 1656 456 l 1,9,-1
 1658 450 l 1,10,11
 1662 236 1662 236 1518 108 c 128,-1,12
 1374 -20 1374 -20 1140 -20 c 0,13,14
 897 -20 897 -20 748 155.5 c 128,-1,15
 599 331 599 331 599 610 c 2,16,-1
 599 671 l 1,17,-1
 338 671 l 1,18,-1
 338 0 l 1,19,-1
 218 0 l 1,20,-1
 218 1456 l 1,21,-1
 338 1456 l 1,22,-1
 338 772 l 1,23,-1
 599 772 l 1,24,-1
 599 847 l 2,25,26
 599 1125 599 1125 748 1301.5 c 128,-1,27
 897 1478 897 1478 1140 1478 c 0,28,29
 1377 1478 1377 1478 1519.5 1353 c 128,-1,30
 1662 1228 1662 1228 1658 1009 c 1,31,-1
 1656 1003 l 1,32,-1
 1544 1003 l 1,33,34
 1544 1179 1544 1179 1436.5 1277.5 c 128,-1,35
 1329 1376 1329 1376 1140 1376 c 0,36,37
 949 1376 949 1376 833.5 1228 c 128,-1,38
 718 1080 718 1080 718 849 c 2,39,-1
 718 772 l 1,40,-1
 1202 772 l 1,41,-1
 1202 671 l 1,0,-1
EndSplineSet
Validated: 33
EndChar

StartChar: uni0465
Encoding: 1125 1125 529
Width: 1523
GlyphClass: 1
Flags: W
LayerCount: 2
Fore
SplineSet
989 499 m 1,0,-1
 650 499 l 1,1,-1
 647 494 l 1,2,3
 647 315 647 315 730 197.5 c 128,-1,4
 813 80 813 80 980 80 c 0,5,6
 1095 80 1095 80 1183.5 148 c 128,-1,7
 1272 216 1272 216 1272 337 c 1,8,-1
 1379 337 l 1,9,-1
 1381 331 l 1,10,11
 1385 181 1385 181 1263 80 c 128,-1,12
 1141 -21 1141 -21 980 -21 c 0,13,14
 769 -21 769 -21 649 124 c 128,-1,15
 529 269 529 269 523 499 c 1,16,-1
 286 499 l 1,17,-1
 286 0 l 1,18,-1
 166 0 l 1,19,-1
 166 1082 l 1,20,-1
 286 1082 l 1,21,-1
 286 601 l 1,22,-1
 524 601 l 1,23,24
 534 822 534 822 653.5 962 c 128,-1,25
 773 1102 773 1102 979 1102 c 0,26,27
 1153 1102 1153 1102 1269 997 c 128,-1,28
 1385 892 1385 892 1381 721 c 1,29,-1
 1379 715 l 1,30,-1
 1272 715 l 1,31,32
 1272 845 1272 845 1187 922.5 c 128,-1,33
 1102 1000 1102 1000 979 1000 c 0,34,35
 819 1000 819 1000 736 887.5 c 128,-1,36
 653 775 653 775 649 606 c 1,37,-1
 651 601 l 1,38,-1
 989 601 l 1,39,-1
 989 499 l 1,0,-1
EndSplineSet
Validated: 33
EndChar

StartChar: uni0466
Encoding: 1126 1126 530
Width: 1229
GlyphClass: 1
Flags: W
LayerCount: 2
Fore
SplineSet
923 475 m 1,0,-1
 681 475 l 1,1,-1
 681 0 l 1,2,-1
 562 0 l 1,3,-1
 562 475 l 1,4,-1
 334 475 l 1,5,-1
 162 0 l 1,6,-1
 38 0 l 1,7,-1
 573 1456 l 1,8,-1
 686 1456 l 1,9,-1
 1217 0 l 1,10,-1
 1093 0 l 1,11,-1
 923 475 l 1,0,-1
372 581 m 1,12,-1
 885 581 l 1,13,-1
 633 1285 l 1,14,-1
 627 1285 l 1,15,-1
 372 581 l 1,12,-1
EndSplineSet
Validated: 1
EndChar

StartChar: uni0467
Encoding: 1127 1127 531
Width: 1080
GlyphClass: 1
Flags: W
LayerCount: 2
Fore
SplineSet
764 347 m 1,0,-1
 593 347 l 1,1,-1
 593 0 l 1,2,-1
 473 0 l 1,3,-1
 473 347 l 1,4,-1
 295 347 l 1,5,-1
 149 0 l 1,6,-1
 25 0 l 1,7,-1
 477 1082 l 1,8,-1
 582 1082 l 1,9,-1
 1035 0 l 1,10,-1
 911 0 l 1,11,-1
 764 347 l 1,0,-1
338 449 m 1,12,-1
 720 449 l 1,13,-1
 568 809 l 1,14,-1
 532 929 l 1,15,-1
 526 929 l 1,16,-1
 489 809 l 1,17,-1
 338 449 l 1,12,-1
EndSplineSet
Validated: 1
EndChar

StartChar: uni0468
Encoding: 1128 1128 532
Width: 1798
GlyphClass: 1
Flags: W
LayerCount: 2
Fore
SplineSet
356 581 m 1,0,-1
 780 581 l 1,1,-1
 1102 1456 l 1,2,-1
 1215 1456 l 1,3,-1
 1746 0 l 1,4,-1
 1622 0 l 1,5,-1
 1452 475 l 1,6,-1
 1210 475 l 1,7,-1
 1210 0 l 1,8,-1
 1091 0 l 1,9,-1
 1091 475 l 1,10,-1
 863 475 l 1,11,-1
 691 0 l 1,12,-1
 567 0 l 1,13,-1
 741 475 l 1,14,-1
 356 475 l 1,15,-1
 356 0 l 1,16,-1
 236 0 l 1,17,-1
 236 1456 l 1,18,-1
 356 1456 l 1,19,-1
 356 581 l 1,0,-1
901 581 m 1,20,-1
 1414 581 l 1,21,-1
 1162 1285 l 1,22,-1
 1156 1285 l 1,23,-1
 901 581 l 1,20,-1
EndSplineSet
Validated: 1
EndChar

StartChar: uni0469
Encoding: 1129 1129 533
Width: 1542
GlyphClass: 1
Flags: W
LayerCount: 2
Fore
SplineSet
321 449 m 1,0,-1
 659 449 l 1,1,-1
 924 1082 l 1,2,-1
 1029 1082 l 1,3,-1
 1482 0 l 1,4,-1
 1358 0 l 1,5,-1
 1211 347 l 1,6,-1
 1040 347 l 1,7,-1
 1040 0 l 1,8,-1
 920 0 l 1,9,-1
 920 347 l 1,10,-1
 742 347 l 1,11,-1
 596 0 l 1,12,-1
 472 0 l 1,13,-1
 617 347 l 1,14,-1
 321 347 l 1,15,-1
 321 0 l 1,16,-1
 201 0 l 1,17,-1
 201 1082 l 1,18,-1
 321 1082 l 1,19,-1
 321 449 l 1,0,-1
785 449 m 1,20,-1
 1167 449 l 1,21,-1
 1015 809 l 1,22,-1
 979 929 l 1,23,-1
 973 929 l 1,24,-1
 936 809 l 1,25,-1
 785 449 l 1,20,-1
EndSplineSet
Validated: 1
EndChar

StartChar: uni046A
Encoding: 1130 1130 534
Width: 1669
GlyphClass: 1
Flags: W
LayerCount: 2
Fore
SplineSet
158 0 m 1,0,-1
 158 380 l 2,1,2
 158 590 158 590 271.5 685 c 128,-1,3
 385 780 385 780 602 780 c 2,4,-1
 703 780 l 1,5,-1
 271 1456 l 1,6,-1
 1403 1456 l 1,7,-1
 970 780 l 1,8,-1
 1066 780 l 2,9,10
 1283 780 1283 780 1396.5 685.5 c 128,-1,11
 1510 591 1510 591 1510 380 c 2,12,-1
 1510 0 l 1,13,-1
 1390 0 l 1,14,-1
 1390 380 l 2,15,16
 1390 545 1390 545 1313 611.5 c 128,-1,17
 1236 678 1236 678 1066 678 c 2,18,-1
 905 678 l 1,19,-1
 895 662 l 1,20,-1
 895 0 l 1,21,-1
 775 0 l 1,22,-1
 775 667 l 1,23,-1
 768 678 l 1,24,-1
 602 678 l 2,25,26
 432 678 432 678 355.5 611 c 128,-1,27
 279 544 279 544 279 380 c 2,28,-1
 279 0 l 1,29,-1
 158 0 l 1,0,-1
827 780 m 1,30,-1
 846 780 l 1,31,-1
 1201 1354 l 1,32,-1
 473 1354 l 1,33,-1
 827 780 l 1,30,-1
EndSplineSet
Validated: 1
EndChar

StartChar: uni046B
Encoding: 1131 1131 535
Width: 1447
GlyphClass: 1
Flags: W
LayerCount: 2
Fore
SplineSet
1099 1082 m 1,0,-1
 1189 1082 l 1,1,-1
 863 594 l 1,2,3
 1070 593 1070 593 1179 498.5 c 128,-1,4
 1288 404 1288 404 1288 195 c 2,5,-1
 1288 0 l 1,6,-1
 1168 0 l 1,7,-1
 1168 195 l 2,8,9
 1168 359 1168 359 1095 425.5 c 128,-1,10
 1022 492 1022 492 862 492 c 2,11,-1
 795 492 l 1,12,-1
 785 476 l 1,13,-1
 785 0 l 1,14,-1
 666 0 l 1,15,-1
 666 482 l 1,16,-1
 659 492 l 1,17,-1
 585 492 l 2,18,19
 423 492 423 492 351 425.5 c 128,-1,20
 279 359 279 359 279 195 c 2,21,-1
 279 0 l 1,22,-1
 158 0 l 1,23,-1
 158 195 l 2,24,25
 158 405 158 405 267 499.5 c 128,-1,26
 376 594 376 594 585 594 c 2,27,-1
 591 594 l 1,28,-1
 265 1082 l 1,29,-1
 373 1082 l 1,30,-1
 373 1083 l 1,31,-1
 1099 1083 l 1,32,-1
 1099 1082 l 1,0,-1
717 594 m 1,33,-1
 737 594 l 1,34,-1
 987 980 l 1,35,-1
 468 980 l 1,36,-1
 717 594 l 1,33,-1
EndSplineSet
Validated: 1
EndChar

StartChar: uni046C
Encoding: 1132 1132 536
Width: 2214
GlyphClass: 1
Flags: W
LayerCount: 2
Fore
SplineSet
1197 677 m 1,0,-1
 295 677 l 1,1,-1
 295 779 l 1,2,-1
 1197 779 l 1,3,-1
 1197 677 l 1,0,-1
337 0 m 1,4,-1
 217 0 l 1,5,-1
 217 1456 l 1,6,-1
 337 1456 l 1,7,-1
 337 0 l 1,4,-1
725 0 m 1,8,-1
 725 380 l 2,9,10
 725 590 725 590 838.5 685 c 128,-1,11
 952 780 952 780 1169 780 c 2,12,-1
 1270 780 l 1,13,-1
 838 1456 l 1,14,-1
 1970 1456 l 1,15,-1
 1537 780 l 1,16,-1
 1633 780 l 2,17,18
 1850 780 1850 780 1963.5 685.5 c 128,-1,19
 2077 591 2077 591 2077 380 c 2,20,-1
 2077 0 l 1,21,-1
 1957 0 l 1,22,-1
 1957 380 l 2,23,24
 1957 545 1957 545 1880 611.5 c 128,-1,25
 1803 678 1803 678 1633 678 c 2,26,-1
 1472 678 l 1,27,-1
 1462 662 l 1,28,-1
 1462 0 l 1,29,-1
 1342 0 l 1,30,-1
 1342 667 l 1,31,-1
 1335 678 l 1,32,-1
 1169 678 l 2,33,34
 999 678 999 678 922.5 611 c 128,-1,35
 846 544 846 544 846 380 c 2,36,-1
 846 0 l 1,37,-1
 725 0 l 1,8,-1
1394 780 m 1,38,-1
 1413 780 l 1,39,-1
 1768 1354 l 1,40,-1
 1040 1354 l 1,41,-1
 1394 780 l 1,38,-1
EndSplineSet
Validated: 5
EndChar

StartChar: uni046D
Encoding: 1133 1133 537
Width: 1899
GlyphClass: 1
Flags: W
LayerCount: 2
Fore
SplineSet
1110 492 m 1,0,-1
 221 492 l 1,1,-1
 221 594 l 1,2,-1
 1110 594 l 1,3,-1
 1110 492 l 1,0,-1
288 0 m 1,4,-1
 168 0 l 1,5,-1
 168 1082 l 1,6,-1
 288 1082 l 1,7,-1
 288 0 l 1,4,-1
1605 1082 m 1,8,-1
 1695 1082 l 1,9,-1
 1369 594 l 1,10,11
 1576 593 1576 593 1685 498.5 c 128,-1,12
 1794 404 1794 404 1794 195 c 2,13,-1
 1794 0 l 1,14,-1
 1674 0 l 1,15,-1
 1674 195 l 2,16,17
 1674 359 1674 359 1601 425.5 c 128,-1,18
 1528 492 1528 492 1368 492 c 2,19,-1
 1301 492 l 1,20,-1
 1291 476 l 1,21,-1
 1291 0 l 1,22,-1
 1172 0 l 1,23,-1
 1172 482 l 1,24,-1
 1165 492 l 1,25,-1
 1091 492 l 2,26,27
 929 492 929 492 857 425.5 c 128,-1,28
 785 359 785 359 785 195 c 2,29,-1
 785 0 l 1,30,-1
 664 0 l 1,31,-1
 664 195 l 2,32,33
 664 405 664 405 773 499.5 c 128,-1,34
 882 594 882 594 1091 594 c 2,35,-1
 1097 594 l 1,36,-1
 771 1082 l 1,37,-1
 879 1082 l 1,38,-1
 879 1083 l 1,39,-1
 1605 1083 l 1,40,-1
 1605 1082 l 1,8,-1
1223 594 m 1,41,-1
 1243 594 l 1,42,-1
 1493 980 l 1,43,-1
 974 980 l 1,44,-1
 1223 594 l 1,41,-1
EndSplineSet
Validated: 5
EndChar

StartChar: uni046E
Encoding: 1134 1134 538
Width: 1054
GlyphClass: 1
Flags: W
LayerCount: 2
Fore
SplineSet
476 1456 m 2,0,1
 692 1456 692 1456 821.5 1355 c 128,-1,2
 951 1254 951 1254 951 1073 c 0,3,4
 951 963 951 963 881 876.5 c 128,-1,5
 811 790 811 790 686 748 c 1,6,7
 828 710 828 710 901 620.5 c 128,-1,8
 974 531 974 531 974 396 c 0,9,10
 974 207 974 207 831 99 c 128,-1,11
 688 -9 688 -9 470 -9 c 2,12,-1
 403 -9 l 2,13,14
 312 -9 312 -9 271.5 -41.5 c 128,-1,15
 231 -74 231 -74 231 -137 c 0,16,17
 231 -202 231 -202 285 -250.5 c 128,-1,18
 339 -299 339 -299 402 -322 c 1,19,-1
 357 -409 l 1,20,21
 265 -376 265 -376 191 -301.5 c 128,-1,22
 117 -227 117 -227 117 -133 c 0,23,24
 117 -25 117 -25 190 33.5 c 128,-1,25
 263 92 263 92 406 92 c 2,26,-1
 470 92 l 2,27,28
 645 92 645 92 749.5 173.5 c 128,-1,29
 854 255 854 255 854 392 c 0,30,31
 854 546 854 546 752.5 620 c 128,-1,32
 651 694 651 694 454 694 c 2,33,-1
 322 694 l 1,34,-1
 322 797 l 1,35,-1
 454 797 l 2,36,37
 647 797 647 797 739 870 c 128,-1,38
 831 943 831 943 831 1077 c 0,39,40
 831 1201 831 1201 741.5 1277.5 c 128,-1,41
 652 1354 652 1354 476 1354 c 2,42,-1
 155 1354 l 1,43,-1
 155 1456 l 1,44,-1
 476 1456 l 2,0,1
499 1716 m 1,45,-1
 665 1885 l 1,46,-1
 780 1885 l 1,47,-1
 780 1868 l 1,48,-1
 547 1643 l 1,49,-1
 450 1643 l 1,50,-1
 218 1868 l 1,51,-1
 218 1885 l 1,52,-1
 332 1885 l 1,53,-1
 499 1716 l 1,45,-1
EndSplineSet
Validated: 1
EndChar

StartChar: uni046F
Encoding: 1135 1135 539
Width: 992
GlyphClass: 1
Flags: W
LayerCount: 2
Fore
SplineSet
408 601 m 2,0,1
 575 601 575 601 654.5 652.5 c 128,-1,2
 734 704 734 704 734 798 c 0,3,4
 734 878 734 878 657.5 928.5 c 128,-1,5
 581 979 581 979 431 979 c 2,6,-1
 139 979 l 1,7,-1
 139 1082 l 1,8,-1
 431 1082 l 2,9,10
 622 1082 622 1082 738 1005.5 c 128,-1,11
 854 929 854 929 854 794 c 0,12,13
 854 715 854 715 798.5 651 c 128,-1,14
 743 587 743 587 644 552 c 1,15,16
 758 522 758 522 817 459 c 128,-1,17
 876 396 876 396 876 304 c 0,18,19
 876 160 876 160 747.5 75.5 c 128,-1,20
 619 -9 619 -9 425 -9 c 2,21,-1
 380 -9 l 2,22,23
 289 -9 289 -9 249 -41.5 c 128,-1,24
 209 -74 209 -74 209 -137 c 0,25,26
 209 -202 209 -202 263 -250.5 c 128,-1,27
 317 -299 317 -299 380 -322 c 1,28,-1
 334 -409 l 1,29,30
 243 -376 243 -376 168.5 -301.5 c 128,-1,31
 94 -227 94 -227 94 -133 c 0,32,33
 94 -25 94 -25 167.5 33.5 c 128,-1,34
 241 92 241 92 384 92 c 2,35,-1
 425 92 l 2,36,37
 576 92 576 92 666 148.5 c 128,-1,38
 756 205 756 205 756 300 c 0,39,40
 756 402 756 402 668.5 450 c 128,-1,41
 581 498 581 498 408 498 c 2,42,-1
 277 498 l 1,43,-1
 277 601 l 1,44,-1
 408 601 l 2,0,1
427 1372 m 1,45,-1
 593 1541 l 1,46,-1
 708 1541 l 1,47,-1
 708 1524 l 1,48,-1
 475 1299 l 1,49,-1
 378 1299 l 1,50,-1
 146 1524 l 1,51,-1
 146 1541 l 1,52,-1
 260 1541 l 1,53,-1
 427 1372 l 1,45,-1
EndSplineSet
Validated: 1
EndChar

